<?xml version="1.0" encoding="utf-8"?>
<!-- Generator: Adobe Illustrator 24.1.0, SVG Export Plug-In . SVG Version: 6.00 Build 0)  -->
<svg version="1.1" id="Layer_1" xmlns="http://www.w3.org/2000/svg" xmlns:xlink="http://www.w3.org/1999/xlink" x="0px" y="0px"
	 viewBox="0 0 300 300" enable-background="new 0 0 300 300" xml:space="preserve">
<path opacity="0.17" d="M245.8,44V25.5c0-2.4-2-4.3-4.5-4.3l0,0c-2.5,0-4.5,1.9-4.5,4.3V44h-16.3V25.5c0-2.4-2-4.3-4.5-4.3l0,0
	c-2.5,0-4.5,1.9-4.5,4.3V44h-16.3V25.5c0-2.4-2-4.3-4.5-4.3h0c-2.5,0-4.5,1.9-4.5,4.3V44h-16.3V25.5c0-2.4-2-4.3-4.5-4.3h0
	c-2.5,0-4.5,1.9-4.5,4.3V44h-16.3V25.5c0-2.4-2-4.3-4.5-4.3l0,0c-2.5,0-4.5,1.9-4.5,4.3V44h-16.3V25.5c0-2.4-2-4.3-4.5-4.3l0,0
	c-2.5,0-4.5,1.9-4.5,4.3V44H93.8V25.5c0-2.4-2-4.3-4.5-4.3l0,0c-2.5,0-4.5,1.9-4.5,4.3V44H68.4V25.5c0-2.4-2-4.3-4.5-4.3l0,0
	c-2.5,0-4.5,1.9-4.5,4.3v18.6C43,44.9,29.9,57.8,29.9,73.7v7.4v7.6v8.7v152v7.4c0,16.4,13.9,29.7,31.1,29.7h184.2
	c17.2,0,31.1-13.3,31.1-29.7v-7.4v-152v-8.7v-7.6v-7.4C276.3,57.5,262.7,44.3,245.8,44z"/>
<path fill="#D5D4D8" d="M238.6,43.7H54.4c-17.2,0-31.1,13.3-31.1,29.7v175.7c0,16.4,13.9,29.7,31.1,29.7h184.2
	c17.2,0,31.1-13.3,31.1-29.7V73.4C269.7,57,255.7,43.7,238.6,43.7z"/>
<path fill="#FFFFFF" d="M238.6,36.3H54.4c-17.2,0-31.1,13.3-31.1,29.7v175.7c0,16.4,13.9,29.7,31.1,29.7h184.2
	c17.2,0,31.1-13.3,31.1-29.7V66C269.7,49.6,255.7,36.3,238.6,36.3z"/>
<path fill="#F74344" d="M269.7,66c0-16.4-13.9-29.7-31.1-29.7H54.4c-17.2,0-31.1,13.3-31.1,29.7v23.7h246.4V66z"/>
<rect x="23.3" y="81" fill="#DD3C44" width="246.4" height="8.7"/>
<rect x="204.7" y="227.7" fill="#D9DADD" width="21.1" height="21.1"/>
<rect x="36" y="136" fill="#D9DADD" width="21.1" height="21.1"/>
<rect x="69.7" y="136" fill="#D9DADD" width="21.1" height="21.1"/>
<rect x="103.5" y="136" fill="#D9DADD" width="21.1" height="21.1"/>
<rect x="137.2" y="136" fill="#D9DADD" width="21.1" height="21.1"/>
<rect x="171" y="136" fill="#D9DADD" width="21.1" height="21.1"/>
<rect x="204.7" y="136" fill="#D9DADD" width="21.1" height="21.1"/>
<rect x="36" y="166.5" fill="#D9DADD" width="21.1" height="21.1"/>
<rect x="69.7" y="166.5" fill="#D9DADD" width="21.1" height="21.1"/>
<rect x="103.5" y="166.5" fill="#D9DADD" width="21.1" height="21.1"/>
<rect x="137.2" y="166.5" fill="#D9DADD" width="21.1" height="21.1"/>
<rect x="171" y="166.5" fill="#D9DADD" width="21.1" height="21.1"/>
<rect x="204.7" y="166.5" fill="#D9DADD" width="21.1" height="21.1"/>
<rect x="36" y="197.1" fill="#D9DADD" width="21.1" height="21.1"/>
<rect x="69.7" y="197.1" fill="#D9DADD" width="21.1" height="21.1"/>
<rect x="103.5" y="197.1" fill="#D9DADD" width="21.1" height="21.1"/>
<rect x="137.2" y="197.1" fill="#D9DADD" width="21.1" height="21.1"/>
<rect x="171" y="197.1" fill="#D9DADD" width="21.1" height="21.1"/>
<rect x="204.7" y="197.1" fill="#D9DADD" width="21.1" height="21.1"/>
<rect x="36" y="227.7" fill="#D9DADD" width="21.1" height="21.1"/>
<rect x="69.7" y="227.7" fill="#D9DADD" width="21.1" height="21.1"/>
<rect x="103.5" y="227.7" fill="#D9DADD" width="21.1" height="21.1"/>
<rect x="137.2" y="227.7" fill="#D9DADD" width="21.1" height="21.1"/>
<rect x="171" y="227.7" fill="#D9DADD" width="21.1" height="21.1"/>
<g>
	<ellipse fill="#B73238" cx="57.3" cy="52.9" rx="6.5" ry="6.2"/>
	<ellipse fill="#B73238" cx="82.6" cy="52.9" rx="6.5" ry="6.2"/>
	<ellipse fill="#B73238" cx="108" cy="52.9" rx="6.5" ry="6.2"/>
	<ellipse fill="#B73238" cx="133.3" cy="52.9" rx="6.5" ry="6.2"/>
	<ellipse fill="#B73238" cx="158.6" cy="52.9" rx="6.5" ry="6.2"/>
	<ellipse fill="#B73238" cx="184" cy="52.9" rx="6.5" ry="6.2"/>
	<ellipse fill="#B73238" cx="209.3" cy="52.9" rx="6.5" ry="6.2"/>
	<ellipse fill="#B73238" cx="234.7" cy="52.9" rx="6.5" ry="6.2"/>
</g>
<g>
	<path fill="#EDEDED" d="M57.3,13.4L57.3,13.4c-2.5,0-4.5,1.9-4.5,4.3v32.4c0,2.4,2,4.3,4.5,4.3h0c2.5,0,4.5-1.9,4.5-4.3V17.7
		C61.8,15.4,59.8,13.4,57.3,13.4z"/>
	<path opacity="7.000000e-02" d="M52.8,17.7v32.4c0,2.3,2,4.3,4.4,4.3v-41C54.8,13.5,52.8,15.4,52.8,17.7z"/>
</g>
<g>
	<path fill="#EDEDED" d="M82.6,13.4L82.6,13.4c-2.5,0-4.5,1.9-4.5,4.3v32.4c0,2.4,2,4.3,4.5,4.3l0,0c2.5,0,4.5-1.9,4.5-4.3V17.7
		C87.1,15.4,85.1,13.4,82.6,13.4z"/>
	<path opacity="7.000000e-02" d="M78.1,17.7v32.4c0,2.3,2,4.3,4.4,4.3v-41C80.1,13.5,78.1,15.4,78.1,17.7z"/>
</g>
<g>
	<path fill="#EDEDED" d="M108,13.4L108,13.4c-2.5,0-4.5,1.9-4.5,4.3v32.4c0,2.4,2,4.3,4.5,4.3h0c2.5,0,4.5-1.9,4.5-4.3V17.7
		C112.5,15.4,110.4,13.4,108,13.4z"/>
	<path opacity="7.000000e-02" d="M103.5,17.7v32.4c0,2.3,2,4.3,4.4,4.3v-41C105.5,13.5,103.5,15.4,103.5,17.7z"/>
</g>
<g>
	<path fill="#EDEDED" d="M133.3,13.4L133.3,13.4c-2.5,0-4.5,1.9-4.5,4.3v32.4c0,2.4,2,4.3,4.5,4.3h0c2.5,0,4.5-1.9,4.5-4.3V17.7
		C137.8,15.4,135.8,13.4,133.3,13.4z"/>
	<path opacity="7.000000e-02" d="M128.8,17.7v32.4c0,2.3,2,4.3,4.4,4.3v-41C130.8,13.5,128.8,15.4,128.8,17.7z"/>
</g>
<g>
	<path fill="#EDEDED" d="M158.6,13.4L158.6,13.4c-2.5,0-4.5,1.9-4.5,4.3v32.4c0,2.4,2,4.3,4.5,4.3l0,0c2.5,0,4.5-1.9,4.5-4.3V17.7
		C163.1,15.4,161.1,13.4,158.6,13.4z"/>
	<path opacity="7.000000e-02" d="M154.1,17.7v32.4c0,2.3,2,4.3,4.4,4.3v-41C156.1,13.5,154.1,15.4,154.1,17.7z"/>
</g>
<g>
	<path fill="#EDEDED" d="M184,13.4L184,13.4c-2.5,0-4.5,1.9-4.5,4.3v32.4c0,2.4,2,4.3,4.5,4.3l0,0c2.5,0,4.5-1.9,4.5-4.3V17.7
		C188.5,15.4,186.5,13.4,184,13.4z"/>
	<path opacity="7.000000e-02" d="M179.5,17.7v32.4c0,2.3,2,4.3,4.4,4.3v-41C181.5,13.5,179.5,15.4,179.5,17.7z"/>
</g>
<g>
	<path fill="#EDEDED" d="M209.3,13.4L209.3,13.4c-2.5,0-4.5,1.9-4.5,4.3v32.4c0,2.4,2,4.3,4.5,4.3h0c2.5,0,4.5-1.9,4.5-4.3V17.7
		C213.8,15.4,211.8,13.4,209.3,13.4z"/>
	<path opacity="7.000000e-02" d="M204.8,17.7v32.4c0,2.3,2,4.3,4.4,4.3v-41C206.8,13.5,204.8,15.4,204.8,17.7z"/>
</g>
<g>
	<path fill="#EDEDED" d="M234.7,13.4L234.7,13.4c-2.5,0-4.5,1.9-4.5,4.3v32.4c0,2.4,2,4.3,4.5,4.3l0,0c2.5,0,4.5-1.9,4.5-4.3V17.7
		C239.2,15.4,237.1,13.4,234.7,13.4z"/>
	<path opacity="7.000000e-02" d="M230.1,17.7v32.4c0,2.3,2,4.3,4.4,4.3v-41C232.1,13.5,230.1,15.4,230.1,17.7z"/>
</g>
<path display="none" fill="#F74344" d="M153.4,157.1c-1.4-0.1-2.9-0.1-4.3-0.1c-1.4,0-2.8,0.1-4.2,0.4c-2.7,0.5-5.3,1.8-7.6,3.3
	c-2.4,1.5-4.4,3.3-5.6,5.5c-0.3,0.6-0.6,1.2-0.8,1.8c-0.2,0.6-0.4,1.2-0.5,1.9c-0.1,0.6-0.2,1.3-0.3,1.9c0,0.6,0,1.3,0,1.9
	c0.1,1.3,0.3,2.6,0.7,3.9c0.2,0.6,0.4,1.3,0.6,1.9c0.2,0.6,0.5,1.2,0.8,1.8c0.6,1.2,1.3,2.4,2.1,3.5c0.8,1.1,1.6,2.1,2.5,3.1
	c0.9,0.9,1.9,1.7,3,2.4c1.1,0.7,2.2,1.3,3.5,1.8c1.2,0.5,2.5,0.9,3.8,1.2c1.3,0.3,2.6,0.5,3.9,0.6c1.3,0.1,2.5,0,3.7-0.3l0.4-0.1
	c0.1,0,0.3-0.1,0.4-0.1c0.3-0.1,0.6-0.2,0.8-0.3c0.1-0.1,0.3-0.1,0.4-0.2l0.2-0.1l0.2-0.1l0.4-0.2l0.4-0.2c2.1-1.3,3.8-3.3,5-5.5
	c1.2-2.3,1.8-4.9,2.1-7.5c0.1-1.3,0.2-2.7,0.1-4.1c0-1.3-0.2-2.7-0.5-3.8c-0.2-0.6-0.4-1.1-0.7-1.6c-0.3-0.5-0.6-0.9-1-1.3
	c-0.4-0.4-0.9-0.8-1.5-1.1c-0.3-0.2-0.6-0.4-0.9-0.5c-0.1-0.1-0.3-0.2-0.4-0.3l-0.4-0.2c-1.2-0.6-2.5-1.1-3.8-1.6
	c-1.3-0.4-2.6-0.7-4-0.8c-1.4-0.2-2.7-0.1-4.1,0c-1.4,0.1-2.7,0.5-4.1,0.9c-0.2,0.1-0.3,0.1-0.5,0.2c-0.2,0.1-0.3,0.1-0.5,0.2
	c-0.3,0.1-0.6,0.3-1,0.4c-0.2,0.1-0.3,0.2-0.5,0.2l-0.5,0.3l-0.2,0.1l-0.2,0.1l-0.5,0.3c-1.2,0.8-2.3,1.7-3.3,2.7
	c0.8-1.2,1.8-2.3,2.9-3.2c1.1-0.9,2.4-1.8,3.7-2.4c1.3-0.6,2.8-1.1,4.2-1.5c0.4-0.1,0.7-0.2,1.1-0.2c0.2,0,0.4-0.1,0.6-0.1l0.6-0.1
	l0.3,0l0.3,0l0.6,0c0.2,0,0.4,0,0.6,0c0.2,0,0.4,0,0.6,0c0.4,0,0.8,0,1.1,0c0.2,0,0.4,0,0.6,0l0.6,0.1c0.2,0,0.4,0,0.6,0.1l0.6,0.1
	l0.6,0.1c0.2,0,0.4,0.1,0.6,0.1c1.5,0.3,2.9,0.8,4.3,1.4l0.5,0.2c0.2,0.1,0.3,0.2,0.5,0.2c0.3,0.2,0.7,0.3,1,0.5
	c0.7,0.4,1.4,0.8,2,1.4c0.7,0.5,1.3,1.2,1.7,1.9c0.5,0.7,0.8,1.5,1.1,2.3c0.6,1.6,0.8,3.1,0.9,4.7c0,0.4,0.1,0.8,0.1,1.1
	c0,0.4,0,0.8,0,1.1c0,0.8,0,1.5,0,2.3c0,0.8-0.1,1.5-0.2,2.3c-0.1,0.4-0.1,0.8-0.2,1.2l-0.1,0.6l-0.1,0.6c0,0.2-0.1,0.4-0.1,0.6
	c-0.1,0.2-0.1,0.4-0.2,0.6c-0.1,0.4-0.2,0.8-0.4,1.1c-0.3,0.7-0.6,1.5-0.9,2.2c-0.3,0.7-0.8,1.4-1.2,2.1l-0.3,0.5l-0.2,0.2l-0.2,0.2
	c-0.1,0.2-0.2,0.3-0.4,0.5l-0.4,0.5c-0.1,0.2-0.3,0.3-0.4,0.5c-0.1,0.1-0.3,0.3-0.4,0.4c-0.3,0.3-0.6,0.6-0.9,0.8
	c-0.3,0.3-0.6,0.5-0.9,0.8c-0.2,0.1-0.3,0.2-0.5,0.4c-0.2,0.1-0.3,0.2-0.5,0.3l-0.5,0.3c-0.2,0.1-0.4,0.2-0.5,0.3l-0.3,0.1l-0.3,0.1
	c-0.2,0.1-0.4,0.2-0.6,0.3c-0.4,0.2-0.8,0.3-1.2,0.4c-0.2,0.1-0.4,0.1-0.6,0.2c-0.2,0.1-0.4,0.1-0.6,0.2c-1.6,0.4-3.3,0.5-4.9,0.4
	c-1.6-0.1-3.2-0.4-4.7-0.7c-1.5-0.4-3-0.8-4.4-1.4c-1.4-0.6-2.8-1.3-4.2-2.2c-1.3-0.9-2.5-1.9-3.6-3.1c-1.1-1.1-2-2.4-2.9-3.7
	c-0.8-1.3-1.6-2.6-2.2-4c-0.3-0.7-0.6-1.4-0.9-2.2c-0.3-0.7-0.5-1.5-0.7-2.2c-0.4-1.5-0.6-3.1-0.6-4.7c0-1.6,0.2-3.2,0.6-4.7
	c0.2-0.8,0.5-1.5,0.8-2.2c0.3-0.7,0.7-1.4,1.1-2.1c0.4-0.7,0.9-1.3,1.5-1.9c0.5-0.6,1.1-1.1,1.7-1.6c1.2-1,2.5-1.8,3.8-2.4
	c1.3-0.7,2.7-1.3,4.1-1.7c1.4-0.5,2.9-0.8,4.4-0.9c1.5-0.1,3,0,4.4,0.2C150.6,156.5,152,156.8,153.4,157.1z"/>
<text transform="matrix(1.3239 0 0 1 100.0821 109.2208)" font-family="'ArialBlack'" font-size="16.675px">MONTH</text>
<text transform="matrix(1 0 0 1 43.755 131.17)"><tspan x="0" y="0" font-family="'ArialBlack'" font-size="9.1343px" letter-spacing="11">S M T </tspan><tspan x="99.4" y="0" font-family="'ArialBlack'" font-size="9.1343px" letter-spacing="10">W </tspan><tspan x="131.7" y="0" font-family="'ArialBlack'" font-size="9.1343px">Th</tspan><tspan x="144.4" y="0" font-family="'ArialBlack'" font-size="9.1343px" letter-spacing="21"> </tspan><tspan x="169.4" y="0" font-family="'ArialBlack'" font-size="9.1343px" letter-spacing="10">F S</tspan></text>
<g>
	<rect x="237.5" y="227.7" fill="#D9DADD" width="21.1" height="21.1"/>
	<rect x="237.5" y="136" fill="#D9DADD" width="21.1" height="21.1"/>
	<rect x="237.5" y="166.5" fill="#D9DADD" width="21.1" height="21.1"/>
	<rect x="237.5" y="197.1" fill="#D9DADD" width="21.1" height="21.1"/>
</g>
</svg>
