<?xml version="1.0" encoding="utf-8"?>
<!-- Generator: Adobe Illustrator 24.1.0, SVG Export Plug-In . SVG Version: 6.00 Build 0)  -->
<svg version="1.1" id="Layer_1" xmlns="http://www.w3.org/2000/svg" xmlns:xlink="http://www.w3.org/1999/xlink" x="0px" y="0px"
	 viewBox="0 0 57 62" enable-background="new 0 0 57 62" xml:space="preserve">
<path display="none" opacity="0.17" enable-background="new    " d="M126.8-99v-18.5c0-2.4-2-4.3-4.5-4.3l0,0
	c-2.5,0-4.5,1.9-4.5,4.3V-99h-16.3v-18.5c0-2.4-2-4.3-4.5-4.3l0,0c-2.5,0-4.5,1.9-4.5,4.3V-99H76.2v-18.5c0-2.4-2-4.3-4.5-4.3l0,0
	c-2.5,0-4.5,1.9-4.5,4.3V-99H50.9v-18.5c0-2.4-2-4.3-4.5-4.3l0,0c-2.5,0-4.5,1.9-4.5,4.3V-99H25.6v-18.5c0-2.4-2-4.3-4.5-4.3l0,0
	c-2.5,0-4.5,1.9-4.5,4.3V-99H0.3v-18.5c0-2.4-2-4.3-4.5-4.3l0,0c-2.5,0-4.5,1.9-4.5,4.3V-99h-16.5v-18.5c0-2.4-2-4.3-4.5-4.3l0,0
	c-2.5,0-4.5,1.9-4.5,4.3V-99h-16.4v-18.5c0-2.4-2-4.3-4.5-4.3l0,0c-2.5,0-4.5,1.9-4.5,4.3v18.6C-76-98.1-89.1-85.2-89.1-69.3v7.4
	v7.6v8.7v152v7.4c0,16.4,13.9,29.7,31.1,29.7h184.2c17.2,0,31.1-13.3,31.1-29.7v-7.4v-152v-8.7v-7.6v-7.4
	C157.3-85.5,143.7-98.7,126.8-99z"/>
<path display="none" fill="#D5D4D8" d="M119.6-99.3H-64.6c-17.2,0-31.1,13.3-31.1,29.7v175.7c0,16.4,13.9,29.7,31.1,29.7h184.2
	c17.2,0,31.1-13.3,31.1-29.7V-69.6C150.7-86,136.7-99.3,119.6-99.3z"/>
<path display="none" fill="#FFFFFF" d="M119.6-106.7H-64.6c-17.2,0-31.1,13.3-31.1,29.7V98.7c0,16.4,13.9,29.7,31.1,29.7h184.2
	c17.2,0,31.1-13.3,31.1-29.7V-77C150.7-93.4,136.7-106.7,119.6-106.7z"/>
<path display="none" fill="#F74344" d="M150.7-77c0-16.4-13.9-29.7-31.1-29.7H-64.6c-17.2,0-31.1,13.3-31.1,29.7v23.7h246.4
	L150.7-77L150.7-77z"/>
<rect x="-95.7" y="-62" display="none" fill="#DD3C44" width="246.4" height="8.7"/>
<rect x="85.7" y="84.7" display="none" fill="#D9DADD" width="21.1" height="21.1"/>
<rect x="-83" y="-7" display="none" fill="#D9DADD" width="21.1" height="21.1"/>
<rect x="-49.3" y="-7" display="none" fill="#D9DADD" width="21.1" height="21.1"/>
<rect x="-15.5" y="-7" display="none" fill="#D9DADD" width="21.1" height="21.1"/>
<rect x="18.2" y="-7" display="none" fill="#D9DADD" width="21.1" height="21.1"/>
<rect x="52" y="-7" display="none" fill="#D9DADD" width="21.1" height="21.1"/>
<rect x="85.7" y="-7" display="none" fill="#D9DADD" width="21.1" height="21.1"/>
<rect x="-83" y="23.5" display="none" fill="#D9DADD" width="21.1" height="21.1"/>
<rect x="-49.3" y="23.5" display="none" fill="#D9DADD" width="21.1" height="21.1"/>
<rect x="-15.5" y="23.5" display="none" fill="#D9DADD" width="21.1" height="21.1"/>
<rect x="18.2" y="23.5" display="none" fill="#D9DADD" width="21.1" height="21.1"/>
<rect x="52" y="23.5" display="none" fill="#D9DADD" width="21.1" height="21.1"/>
<rect x="85.7" y="23.5" display="none" fill="#D9DADD" width="21.1" height="21.1"/>
<rect x="-83" y="54.1" display="none" fill="#D9DADD" width="21.1" height="21.1"/>
<rect x="-49.3" y="54.1" display="none" fill="#D9DADD" width="21.1" height="21.1"/>
<rect x="-15.5" y="54.1" display="none" fill="#D9DADD" width="21.1" height="21.1"/>
<rect x="18.2" y="54.1" display="none" fill="#D9DADD" width="21.1" height="21.1"/>
<rect x="52" y="54.1" display="none" fill="#D9DADD" width="21.1" height="21.1"/>
<rect x="85.7" y="54.1" display="none" fill="#D9DADD" width="21.1" height="21.1"/>
<rect x="-83" y="84.7" display="none" fill="#D9DADD" width="21.1" height="21.1"/>
<rect x="-49.3" y="84.7" display="none" fill="#D9DADD" width="21.1" height="21.1"/>
<rect x="-15.5" y="84.7" display="none" fill="#D9DADD" width="21.1" height="21.1"/>
<rect x="18.2" y="84.7" display="none" fill="#D9DADD" width="21.1" height="21.1"/>
<rect x="52" y="84.7" display="none" fill="#D9DADD" width="21.1" height="21.1"/>
<g display="none">
	<ellipse display="inline" fill="#B73238" cx="-61.7" cy="-90.1" rx="6.5" ry="6.2"/>
	<ellipse display="inline" fill="#B73238" cx="-36.4" cy="-90.1" rx="6.5" ry="6.2"/>
	<ellipse display="inline" fill="#B73238" cx="-11" cy="-90.1" rx="6.5" ry="6.2"/>
	<ellipse display="inline" fill="#B73238" cx="14.3" cy="-90.1" rx="6.5" ry="6.2"/>
	<ellipse display="inline" fill="#B73238" cx="39.6" cy="-90.1" rx="6.5" ry="6.2"/>
	<ellipse display="inline" fill="#B73238" cx="65" cy="-90.1" rx="6.5" ry="6.2"/>
	<ellipse display="inline" fill="#B73238" cx="90.3" cy="-90.1" rx="6.5" ry="6.2"/>
	<ellipse display="inline" fill="#B73238" cx="115.7" cy="-90.1" rx="6.5" ry="6.2"/>
</g>
<g display="none">
	<path display="inline" fill="#EDEDED" d="M-61.7-129.6L-61.7-129.6c-2.5,0-4.5,1.9-4.5,4.3v32.4c0,2.4,2,4.3,4.5,4.3l0,0
		c2.5,0,4.5-1.9,4.5-4.3v-32.4C-57.2-127.6-59.2-129.6-61.7-129.6z"/>
	<path display="inline" opacity="7.000000e-02" enable-background="new    " d="M-66.2-125.3v32.4c0,2.3,2,4.3,4.4,4.3v-41
		C-64.2-129.5-66.2-127.6-66.2-125.3z"/>
</g>
<g display="none">
	<path display="inline" fill="#EDEDED" d="M-36.4-129.6L-36.4-129.6c-2.5,0-4.5,1.9-4.5,4.3v32.4c0,2.4,2,4.3,4.5,4.3l0,0
		c2.5,0,4.5-1.9,4.5-4.3v-32.4C-31.9-127.6-33.9-129.6-36.4-129.6z"/>
	<path display="inline" opacity="7.000000e-02" enable-background="new    " d="M-40.9-125.3v32.4c0,2.3,2,4.3,4.4,4.3v-41
		C-38.9-129.5-40.9-127.6-40.9-125.3z"/>
</g>
<g display="none">
	<path display="inline" fill="#EDEDED" d="M-11-129.6L-11-129.6c-2.5,0-4.5,1.9-4.5,4.3v32.4c0,2.4,2,4.3,4.5,4.3l0,0
		c2.5,0,4.5-1.9,4.5-4.3v-32.4C-6.5-127.6-8.6-129.6-11-129.6z"/>
	<path display="inline" opacity="7.000000e-02" enable-background="new    " d="M-15.5-125.3v32.4c0,2.3,2,4.3,4.4,4.3v-41
		C-13.5-129.5-15.5-127.6-15.5-125.3z"/>
</g>
<g display="none">
	<path display="inline" fill="#EDEDED" d="M14.3-129.6L14.3-129.6c-2.5,0-4.5,1.9-4.5,4.3v32.4c0,2.4,2,4.3,4.5,4.3l0,0
		c2.5,0,4.5-1.9,4.5-4.3v-32.4C18.8-127.6,16.8-129.6,14.3-129.6z"/>
	<path display="inline" opacity="7.000000e-02" enable-background="new    " d="M9.8-125.3v32.4c0,2.3,2,4.3,4.4,4.3v-41
		C11.8-129.5,9.8-127.6,9.8-125.3z"/>
</g>
<g display="none">
	<path display="inline" fill="#EDEDED" d="M39.6-129.6L39.6-129.6c-2.5,0-4.5,1.9-4.5,4.3v32.4c0,2.4,2,4.3,4.5,4.3l0,0
		c2.5,0,4.5-1.9,4.5-4.3v-32.4C44.1-127.6,42.1-129.6,39.6-129.6z"/>
	<path display="inline" opacity="7.000000e-02" enable-background="new    " d="M35.1-125.3v32.4c0,2.3,2,4.3,4.4,4.3v-41
		C37.1-129.5,35.1-127.6,35.1-125.3z"/>
</g>
<g display="none">
	<path display="inline" fill="#EDEDED" d="M65-129.6L65-129.6c-2.5,0-4.5,1.9-4.5,4.3v32.4c0,2.4,2,4.3,4.5,4.3l0,0
		c2.5,0,4.5-1.9,4.5-4.3v-32.4C69.5-127.6,67.5-129.6,65-129.6z"/>
	<path display="inline" opacity="7.000000e-02" enable-background="new    " d="M60.5-125.3v32.4c0,2.3,2,4.3,4.4,4.3v-41
		C62.5-129.5,60.5-127.6,60.5-125.3z"/>
</g>
<g display="none">
	<path display="inline" fill="#EDEDED" d="M90.3-129.6L90.3-129.6c-2.5,0-4.5,1.9-4.5,4.3v32.4c0,2.4,2,4.3,4.5,4.3l0,0
		c2.5,0,4.5-1.9,4.5-4.3v-32.4C94.8-127.6,92.8-129.6,90.3-129.6z"/>
	<path display="inline" opacity="7.000000e-02" enable-background="new    " d="M85.8-125.3v32.4c0,2.3,2,4.3,4.4,4.3v-41
		C87.8-129.5,85.8-127.6,85.8-125.3z"/>
</g>
<g display="none">
	<path display="inline" fill="#EDEDED" d="M115.7-129.6L115.7-129.6c-2.5,0-4.5,1.9-4.5,4.3v32.4c0,2.4,2,4.3,4.5,4.3l0,0
		c2.5,0,4.5-1.9,4.5-4.3v-32.4C120.2-127.6,118.1-129.6,115.7-129.6z"/>
	<path display="inline" opacity="7.000000e-02" enable-background="new    " d="M111.1-125.3v32.4c0,2.3,2,4.3,4.4,4.3v-41
		C113.1-129.5,111.1-127.6,111.1-125.3z"/>
</g>
<path fill="#F74344" d="M34.4,14.1C33,14,31.5,14,30.1,14c-1.4,0-2.8,0.1-4.2,0.4c-2.7,0.5-5.3,1.8-7.6,3.3
	c-2.4,1.5-4.4,3.3-5.6,5.5c-0.3,0.6-0.6,1.2-0.8,1.8s-0.4,1.2-0.5,1.9c-0.1,0.6-0.2,1.3-0.3,1.9c0,0.6,0,1.3,0,1.9
	c0.1,1.3,0.3,2.6,0.7,3.9c0.2,0.6,0.4,1.3,0.6,1.9c0.2,0.6,0.5,1.2,0.8,1.8c0.6,1.2,1.3,2.4,2.1,3.5s1.6,2.1,2.5,3.1
	c0.9,0.9,1.9,1.7,3,2.4s2.2,1.3,3.5,1.8c1.2,0.5,2.5,0.9,3.8,1.2s2.6,0.5,3.9,0.6c1.3,0.1,2.5,0,3.7-0.3l0.4-0.1
	c0.1,0,0.3-0.1,0.4-0.1c0.3-0.1,0.6-0.2,0.8-0.3c0.1-0.1,0.3-0.1,0.4-0.2l0.2-0.1l0.2-0.1l0.4-0.2l0.4-0.2c2.1-1.3,3.8-3.3,5-5.5
	c1.2-2.3,1.8-4.9,2.1-7.5c0.1-1.3,0.2-2.7,0.1-4.1c0-1.3-0.2-2.7-0.5-3.8c-0.2-0.6-0.4-1.1-0.7-1.6s-0.6-0.9-1-1.3
	c-0.4-0.4-0.9-0.8-1.5-1.1c-0.3-0.2-0.6-0.4-0.9-0.5c-0.1-0.1-0.3-0.2-0.4-0.3l-0.4-0.2c-1.2-0.6-2.5-1.1-3.8-1.6
	c-1.3-0.4-2.6-0.7-4-0.8c-1.4-0.2-2.7-0.1-4.1,0c-1.4,0.1-2.7,0.5-4.1,0.9c-0.2,0.1-0.3,0.1-0.5,0.2c-0.2,0.1-0.3,0.1-0.5,0.2
	c-0.3,0.1-0.6,0.3-1,0.4c-0.2,0.1-0.3,0.2-0.5,0.2l-0.5,0.3l-0.2,0.1l-0.2,0.1l-0.5,0.3c-1.2,0.8-2.3,1.7-3.3,2.7
	c0.8-1.2,1.8-2.3,2.9-3.2c1.1-0.9,2.4-1.8,3.7-2.4c1.3-0.6,2.8-1.1,4.2-1.5c0.4-0.1,0.7-0.2,1.1-0.2c0.2,0,0.4-0.1,0.6-0.1l0.6-0.1
	h0.3h0.3h0.6c0.2,0,0.4,0,0.6,0c0.2,0,0.4,0,0.6,0c0.4,0,0.8,0,1.1,0c0.2,0,0.4,0,0.6,0l0.6,0.1c0.2,0,0.4,0,0.6,0.1l0.6,0.1
	l0.6,0.1c0.2,0,0.4,0.1,0.6,0.1c1.5,0.3,2.9,0.8,4.3,1.4l0.5,0.2c0.2,0.1,0.3,0.2,0.5,0.2c0.3,0.2,0.7,0.3,1,0.5
	c0.7,0.4,1.4,0.8,2,1.4c0.7,0.5,1.3,1.2,1.7,1.9c0.5,0.7,0.8,1.5,1.1,2.3c0.6,1.6,0.8,3.1,0.9,4.7c0,0.4,0.1,0.8,0.1,1.1
	c0,0.4,0,0.8,0,1.1c0,0.8,0,1.5,0,2.3s-0.1,1.5-0.2,2.3c-0.1,0.4-0.1,0.8-0.2,1.2l-0.1,0.6l-0.1,0.6c0,0.2-0.1,0.4-0.1,0.6
	C49,42,49,42.2,48.9,42.4c-0.1,0.4-0.2,0.8-0.4,1.1c-0.3,0.7-0.6,1.5-0.9,2.2c-0.3,0.7-0.8,1.4-1.2,2.1l-0.3,0.5l-0.2,0.2l-0.2,0.2
	c-0.1,0.2-0.2,0.3-0.4,0.5l-0.4,0.5c-0.1,0.2-0.3,0.3-0.4,0.5c-0.1,0.1-0.3,0.3-0.4,0.4c-0.3,0.3-0.6,0.6-0.9,0.8
	c-0.3,0.3-0.6,0.5-0.9,0.8c-0.2,0.1-0.3,0.2-0.5,0.4c-0.2,0.1-0.3,0.2-0.5,0.3l-0.5,0.3c-0.2,0.1-0.4,0.2-0.5,0.3L40,53.6l-0.3,0.1
	c-0.2,0.1-0.4,0.2-0.6,0.3c-0.4,0.2-0.8,0.3-1.2,0.4c-0.2,0.1-0.4,0.1-0.6,0.2c-0.2,0.1-0.4,0.1-0.6,0.2c-1.6,0.4-3.3,0.5-4.9,0.4
	c-1.6-0.1-3.2-0.4-4.7-0.7c-1.5-0.4-3-0.8-4.4-1.4c-1.4-0.6-2.8-1.3-4.2-2.2C17.2,50,16,49,14.9,47.8c-1.1-1.1-2-2.4-2.9-3.7
	c-0.8-1.3-1.6-2.6-2.2-4c-0.3-0.7-0.6-1.4-0.9-2.2c-0.3-0.7-0.5-1.5-0.7-2.2c-0.4-1.5-0.6-3.1-0.6-4.7c0-1.6,0.2-3.2,0.6-4.7
	c0.2-0.8,0.5-1.5,0.8-2.2c0.3-0.7,0.7-1.4,1.1-2.1c0.4-0.7,0.9-1.3,1.5-1.9c0.5-0.6,1.1-1.1,1.7-1.6c1.2-1,2.5-1.8,3.8-2.4
	c1.3-0.7,2.7-1.3,4.1-1.7c1.4-0.5,2.9-0.8,4.4-0.9c1.5-0.1,3,0,4.4,0.2C31.6,13.5,33,13.8,34.4,14.1z"/>
<text transform="matrix(1.3239 0 0 1 -18.918 -33.7793)" display="none" enable-background="new    " font-family="'ArialBlack'" font-size="16.675px">MONTH</text>
<text transform="matrix(1 0 0 1 -75.245 -11.83)" font-family="'ArialBlack'" font-size="9.1343px" letter-spacing="10">S M T </text>
<text transform="matrix(1 0 0 1 24.155 -11.83)" font-family="'ArialBlack'" font-size="9.1343px" letter-spacing="9">W </text>
<text transform="matrix(1 0 0 1 56.455 -11.83)" font-family="'ArialBlack'" font-size="9.1343px">Th</text>
<text transform="matrix(1 0 0 1 69.155 -11.83)" font-family="'ArialBlack'" font-size="9.1343px" letter-spacing="21"> </text>
<text transform="matrix(1 0 0 1 94.155 -11.83)" font-family="'ArialBlack'" font-size="9.1343px" letter-spacing="9">F S</text>
<g display="none">
	<rect x="118.5" y="84.7" display="inline" fill="#D9DADD" width="21.1" height="21.1"/>
	<rect x="118.5" y="-7" display="inline" fill="#D9DADD" width="21.1" height="21.1"/>
	<rect x="118.5" y="23.5" display="inline" fill="#D9DADD" width="21.1" height="21.1"/>
	<rect x="118.5" y="54.1" display="inline" fill="#D9DADD" width="21.1" height="21.1"/>
</g>
</svg>
