<?xml version="1.0" encoding="utf-8"?>
<!-- Generator: Adobe Illustrator 24.1.0, SVG Export Plug-In . SVG Version: 6.00 Build 0)  -->
<svg version="1.1" xmlns="http://www.w3.org/2000/svg" xmlns:xlink="http://www.w3.org/1999/xlink" x="0px" y="0px"
	 viewBox="0 0 250 250" style="enable-background:new 0 0 250 250;" xml:space="preserve">
<style type="text/css">
	.st0{fill:none;}
	.st1{fill:#393939;}
	.st2{fill:#A5A5A5;}
	.st3{fill:#191919;}
	.st4{fill:#878787;}
</style>
<g id="_x31_">
</g>
<g id="Designed_by_Vecteezy">
	<path class="st0" d="M165.42,175.93c-4.14,2.3-9.11,4.34-14.56,6.12c5.37,0.53,10.42,1.2,15.08,2.01
		C165.92,181.12,165.95,177.99,165.42,175.93z"/>
	<path class="st1" d="M214.26,134.05c-0.3,0.73-0.62,1.46-0.96,2.17C213.64,135.51,213.96,134.78,214.26,134.05z"/>
	<path class="st1" d="M205.37,121.98c0.28-0.01,0.55-0.02,0.82-0.02C205.92,121.97,205.65,121.97,205.37,121.98z"/>
	<path class="st1" d="M211.66,122.45c0.16,0.04,0.33,0.07,0.48,0.11C211.98,122.52,211.82,122.48,211.66,122.45z"/>
	<path class="st1" d="M213.14,122.87c0.09,0.03,0.16,0.07,0.25,0.11C213.31,122.95,213.23,122.91,213.14,122.87z"/>
	<path class="st1" d="M214.07,123.29c0.1,0.05,0.2,0.11,0.3,0.17C214.27,123.4,214.17,123.34,214.07,123.29z"/>
	<path class="st1" d="M206.98,121.96c0.25,0,0.51,0,0.75,0.01C207.48,121.96,207.23,121.96,206.98,121.96z"/>
	<path class="st1" d="M208.91,122.04c0.24,0.02,0.47,0.04,0.7,0.07C209.38,122.08,209.15,122.06,208.91,122.04z"/>
	<path class="st1" d="M210.38,122.2c0.2,0.03,0.38,0.06,0.57,0.1C210.77,122.27,210.58,122.23,210.38,122.2z"/>
	<path class="st1" d="M216.26,125.96c0.01,0.08,0.03,0.15,0.03,0.23C216.28,126.11,216.27,126.03,216.26,125.96z"/>
	<path class="st1" d="M203.71,122.08c-3.73,0.3-8,1.14-12.43,2.55c5.08,5.51,10.81,13.14,14.44,22.4c3.01-3.21,5.64-6.81,7.57-10.8
		C212.1,131.83,209.46,125.91,203.71,122.08z"/>
	<path class="st1" d="M215.66,124.54c0.02,0.02,0.03,0.05,0.05,0.07C215.69,124.59,215.68,124.56,215.66,124.54z"/>
	<path class="st1" d="M216.05,125.2c0.03,0.07,0.05,0.15,0.08,0.22C216.1,125.34,216.08,125.27,216.05,125.2z"/>
	<path class="st1" d="M214.87,123.8c0.08,0.06,0.16,0.11,0.23,0.17C215.03,123.91,214.95,123.85,214.87,123.8z"/>
	<path class="st1" d="M205.72,147.03c-1.32,1.41-2.72,2.74-4.17,4C202.99,149.77,204.39,148.44,205.72,147.03z"/>
	<path class="st1" d="M183.16,127.84c0.89-0.42,1.78-0.82,2.67-1.2C184.94,127.02,184.05,127.42,183.16,127.84z"/>
	<path class="st1" d="M201.48,151.09c-1.44,1.25-2.92,2.43-4.42,3.54C198.56,153.53,200.04,152.35,201.48,151.09z"/>
	<path class="st1" d="M190.05,159.29c-1.48,0.88-2.92,1.68-4.32,2.42C187.13,160.97,188.57,160.17,190.05,159.29z"/>
	<path class="st1" d="M215.75,129.48c-0.15,0.59-0.32,1.17-0.5,1.75C215.42,130.65,215.6,130.07,215.75,129.48z"/>
	<path class="st1" d="M215.08,131.81c-0.24,0.73-0.5,1.45-0.79,2.16C214.57,133.26,214.84,132.54,215.08,131.81z"/>
	<path class="st1" d="M185.86,126.63c1.81-0.76,3.62-1.43,5.42-2C189.49,125.2,187.67,125.87,185.86,126.63z"/>
	<path class="st1" d="M178.99,158.25c-0.68,3.04-1.53,5.7-2.59,7.81c-0.01,0.01-0.01,0.02-0.02,0.03c2.45-1,5.64-2.43,9.16-4.28
		c-1.38,0.73-2.72,1.39-3.98,1.99C180.81,162.08,179.95,160.19,178.99,158.25z"/>
	<path class="st1" d="M180.86,129.61c0.14,4.4,0.14,8.67-0.02,12.71c3.51,4.88,6.9,10.62,9.23,16.96c2.31-1.37,4.67-2.93,6.99-4.64
		C194.02,148.07,188,136.39,180.86,129.61z"/>
	<path class="st1" d="M203.71,122.08c0.28-0.02,0.55-0.04,0.82-0.05C204.25,122.04,203.99,122.06,203.71,122.08z"/>
	<path class="st1" d="M183.1,127.87c-0.76,0.36-1.51,0.74-2.27,1.13l0,0.01C181.59,128.62,182.34,128.23,183.1,127.87z"/>
	<path class="st2" d="M216.26,125.96c-0.03-0.19-0.07-0.37-0.13-0.54c-0.03-0.07-0.05-0.15-0.08-0.22c-0.09-0.2-0.2-0.4-0.34-0.59
		c-0.02-0.02-0.03-0.05-0.05-0.07c-0.16-0.2-0.35-0.39-0.56-0.57c-0.07-0.06-0.15-0.12-0.23-0.17c-0.16-0.12-0.33-0.23-0.51-0.34
		c-0.1-0.06-0.19-0.12-0.3-0.17c-0.21-0.11-0.44-0.21-0.67-0.31c-0.09-0.03-0.16-0.07-0.25-0.11c-0.31-0.12-0.65-0.22-1-0.31
		c-0.15-0.04-0.32-0.08-0.48-0.11c-0.23-0.05-0.46-0.1-0.7-0.15c-0.19-0.03-0.38-0.07-0.57-0.1c-0.25-0.04-0.51-0.07-0.78-0.1
		c-0.23-0.03-0.46-0.05-0.7-0.07c-0.38-0.03-0.78-0.05-1.18-0.07c-0.24-0.01-0.5-0.01-0.75-0.01c-0.26,0-0.52,0-0.79,0
		c-0.27,0-0.54,0.01-0.82,0.02c-0.28,0.01-0.56,0.03-0.85,0.04c-0.27,0.02-0.54,0.03-0.82,0.05c0,0,0,0,0,0h0
		c5.75,3.83,8.4,9.75,9.58,14.15l0,0c0,0,0-0.01,0.01-0.01c0.34-0.71,0.66-1.43,0.96-2.17c0.01-0.03,0.02-0.05,0.03-0.08
		c0.29-0.71,0.55-1.43,0.79-2.16c0.06-0.19,0.11-0.39,0.17-0.59c0.18-0.58,0.35-1.16,0.5-1.75c0.2-0.81,0.37-1.63,0.51-2.47
		c0.05-0.29,0.05-0.56,0.03-0.82C216.28,126.11,216.27,126.03,216.26,125.96z"/>
	<path class="st2" d="M191.28,124.63C191.28,124.63,191.28,124.63,191.28,124.63c-1.79,0.57-3.61,1.24-5.42,2
		c-0.01,0-0.02,0.01-0.02,0.01c-0.89,0.38-1.78,0.77-2.67,1.2c-0.02,0.01-0.04,0.02-0.06,0.03c-0.76,0.36-1.51,0.75-2.27,1.14
		c0.01,0.2,0.01,0.4,0.02,0.6c7.15,6.78,13.17,18.45,16.2,25.03l0,0c0,0,0,0,0,0c1.5-1.11,2.98-2.29,4.42-3.54
		c0.02-0.02,0.05-0.04,0.07-0.06c1.44-1.26,2.84-2.59,4.17-4c0,0,0,0,0,0l0,0C202.09,137.77,196.36,130.14,191.28,124.63
		L191.28,124.63z"/>
	<path class="st2" d="M178.99,158.25c0.96,1.95,1.82,3.84,2.56,5.56c1.26-0.6,2.6-1.26,3.98-1.99c0.07-0.03,0.13-0.07,0.19-0.1
		c1.4-0.74,2.85-1.54,4.32-2.42c0.01,0,0.01-0.01,0.02-0.01l0,0c-2.33-6.34-5.72-12.08-9.23-16.96
		C180.59,148.29,179.99,153.71,178.99,158.25z"/>
	<path class="st3" d="M180.99,62.04c-6.16-6.72-4.84,7.25-8.31,12.15c-0.07,0.09-0.14,0.21-0.2,0.31
		c1.51,4.85,2.89,10.55,4.08,16.71C182.24,86.03,186.07,67.58,180.99,62.04z"/>
	<path class="st3" d="M53.98,98.28c-1.44-1.21-2.94-2.23-4.22-2.94c-5.25-2.92-10.1-16.08-12.75-7.36
		c-2.38,7.85,11.44,24.97,18.5,24.65c-0.04-0.24-0.07-0.48-0.1-0.72C54.72,107.09,54.25,102.56,53.98,98.28z"/>
	<path class="st3" d="M86.08,204.07c6.48,1.99,1.22-7.69-0.15-13.83c-2.55-0.31-4.62-0.77-6.04-1.39c-2.37-1.03-4.44-2.62-6.29-4.77
		c0.14,0.46,0.3,0.99,0.49,1.56C75.95,191.42,80.16,202.26,86.08,204.07z"/>
	<path class="st3" d="M165.42,175.93c0.53,2.06,0.49,5.19,0.52,8.12c0.05,5.08,0.31,9.55,4.14,6.76c1.54-1.12,2.63-3.02,3.42-5.26
		c2.06-5.82,2.02-14.04,1.85-17.81C173.27,170.76,169.81,173.49,165.42,175.93z"/>
	<path class="st1" d="M72.08,48.36c-4.21-2.27-13.94-7.04-15.34-3.36c-1.18,3.12,1.66,11.02,3.72,16.01
		C63.36,56.05,67.2,51.88,72.08,48.36z"/>
	<path class="st1" d="M158.85,52.08c1.33-4.79,3.86-15.1,2.03-18.46c-2.42-4.42-16.5,6.8-16.5,6.8l0.11,0.11
		C150.19,43.72,154.86,47.81,158.85,52.08z"/>
	<path class="st4" d="M178.99,158.25c1.01-4.53,1.6-9.96,1.85-15.93c0.16-4.03,0.16-8.31,0.02-12.71c-0.01-0.2-0.01-0.4-0.02-0.6
		l0-0.01c-0.43-12.53-2-26.01-4.28-37.8c-1.19-6.16-2.57-11.86-4.08-16.71c-1.82-5.84-3.83-10.46-5.92-13.17
		c-0.73-0.94-1.48-1.9-2.25-2.87c1.83-6.18,7.4-27.09,0.75-31.59c-7.83-5.29-27.12,10.49-27.12,10.49l0.3,0.27
		c-9.36-3.58-21.16-4.74-36.5-1.26c-9.22,2.09-16.99,4.76-23.43,8.18c-5.16-2.89-20.79-10.92-26.62-5.67
		c-5.85,5.27,2.12,24.54,4.94,30.82c-2.52,7.85-3.34,17.28-2.64,28.59c0.27,4.27,0.74,8.81,1.43,13.64c0.04,0.24,0.07,0.48,0.1,0.72
		c5.52,38.29,9.27,61.26,18.08,71.44c1.85,2.14,3.93,3.73,6.29,4.77c1.42,0.62,3.49,1.08,6.04,1.39c14.06,1.74,43.23-1.12,64.94-8.2
		c5.45-1.78,10.41-3.82,14.56-6.12c4.39-2.44,7.85-5.17,9.94-8.18c0.38-0.54,0.72-1.09,1.01-1.65c0.01-0.01,0.01-0.02,0.02-0.03
		C177.46,163.94,178.31,161.29,178.99,158.25z M144.37,40.43c0,0,14.09-11.21,16.5-6.8c1.83,3.35-0.7,13.67-2.03,18.46
		c-3.99-4.28-8.66-8.36-14.37-11.55L144.37,40.43z M97.33,49.22c6.76,3.42,9.38,8.68,9.17,13.08c5.16-3.14,13.23-2.65,14.52-0.51
		c-1.44-4.35-0.03-10.42,6.3-15.35c9.21-7.17,21.15-2.19,29.69,12.26c8.54,14.46-4.97,17.54-13.12,17.75
		c-8.15,0.22-11.07-7.32-17.65-9.32c-2.41-0.73-4.25-2.65-5.14-5.16c1.11,2.36-1.64,6.46-5.83,8.09l0.55,2.81
		c2.09-0.47,4.4-1.04,6.82-1.73c0,0-0.63,6.55-6.33,7.39c-5.7,0.84-8.45-1.48-9.5-4.01c0,0,2.79-0.35,6.89-1.19l-0.52-2.68
		c-3.27,0.49-7.66-0.44-9.36-2.37c-0.44,0.4-0.91,0.76-1.45,1.04c-6.07,3.22-7.5,11.18-15.54,12.53
		c-8.04,1.35-21.9,0.91-16.28-14.91C76.15,51.12,86.92,43.95,97.33,49.22z M56.75,45c1.39-3.68,11.13,1.09,15.34,3.36
		c-4.88,3.51-8.72,7.69-11.62,12.65C58.41,56.02,55.57,48.12,56.75,45z M84.88,172.58c-19.32-13.3-31.09-62.88-13.21-78.82
		c12.95-11.54,72.82-19.37,85.79-7.77c12.97,11.61,14.88,49.32,7.13,68.81C156.83,174.3,104.2,185.88,84.88,172.58z"/>
	<path class="st2" d="M157.46,85.99c-12.97-11.61-72.84-3.77-85.79,7.77c-17.87,15.93-6.1,65.52,13.21,78.82
		c19.32,13.3,71.95,1.72,79.71-17.77C172.34,135.32,170.43,97.6,157.46,85.99z"/>
	<path class="st1" d="M70.53,66.94c-5.62,15.82,8.24,16.26,16.28,14.91c8.04-1.35,9.46-9.3,15.54-12.53
		c0.53-0.28,1.01-0.65,1.45-1.04c-0.93-1.06-1.06-2.4,0.28-3.98c0.67-0.79,1.5-1.45,2.41-2c0.21-4.4-2.41-9.66-9.17-13.08
		C86.92,43.95,76.15,51.12,70.53,66.94z M81.36,63.66c0.11-0.23,2.75-5.49,7.66-6.38c2.94-0.54,5.92,0.58,8.83,3.31
		c0.87,0.82,0.92,2.2,0.1,3.07c-0.82,0.88-2.2,0.92-3.07,0.1c-1.84-1.73-3.55-2.46-5.07-2.2c-2.29,0.42-4.09,3.11-4.54,4.02
		c-0.38,0.77-1.15,1.21-1.95,1.21c-0.32,0-0.65-0.07-0.96-0.22C81.27,66.04,80.83,64.73,81.36,63.66z"/>
	<path class="st1" d="M121.09,61.98c0.89,2.51,2.74,4.43,5.14,5.16c6.58,2,9.5,9.54,17.65,9.32c8.15-0.22,21.67-3.29,13.12-17.75
		c-8.54-14.46-20.48-19.43-29.69-12.26c-6.33,4.93-7.74,11-6.3,15.35c0.01,0.01,0.03,0.03,0.04,0.04
		C121.07,61.87,121.06,61.93,121.09,61.98z M128.11,57.41c0.11-0.23,2.75-5.49,7.66-6.38c2.95-0.53,5.92,0.58,8.83,3.31
		c0.87,0.82,0.92,2.2,0.1,3.07c-0.82,0.88-2.2,0.92-3.07,0.1c-1.84-1.73-3.54-2.45-5.07-2.2c-2.29,0.42-4.09,3.11-4.54,4.02
		c-0.38,0.77-1.15,1.21-1.95,1.21c-0.32,0-0.65-0.07-0.96-0.22C128.02,59.79,127.58,58.48,128.11,57.41z"/>
	<path class="st3" d="M104.08,64.3c-1.34,1.58-1.21,2.93-0.28,3.98c1.7,1.93,6.09,2.86,9.36,2.37l0.52,2.68
		c-4.11,0.84-6.89,1.19-6.89,1.19c1.06,2.53,3.8,4.86,9.5,4.01c5.7-0.84,6.33-7.39,6.33-7.39c-2.41,0.7-4.73,1.27-6.82,1.73
		l-0.55-2.81c4.19-1.63,6.94-5.73,5.83-8.09c-0.02-0.05-0.02-0.1-0.04-0.14c-0.01-0.01-0.03-0.03-0.04-0.04
		c-1.29-2.14-9.36-2.63-14.52,0.51C105.58,62.85,104.75,63.51,104.08,64.3z"/>
	<path class="st3" d="M129.1,60.32c0.31,0.15,0.63,0.22,0.96,0.22c0.8,0,1.58-0.45,1.95-1.21c0.45-0.91,2.24-3.61,4.54-4.02
		c1.53-0.25,3.23,0.47,5.07,2.2c0.87,0.82,2.25,0.78,3.07-0.1c0.82-0.87,0.78-2.25-0.1-3.07c-2.91-2.73-5.88-3.84-8.83-3.31
		c-4.91,0.89-7.55,6.16-7.66,6.38C127.58,58.48,128.02,59.79,129.1,60.32z"/>
	<path class="st3" d="M82.35,66.57c0.31,0.15,0.63,0.22,0.96,0.22c0.8,0,1.58-0.45,1.95-1.21c0.45-0.91,2.24-3.61,4.54-4.02
		c1.52-0.26,3.23,0.47,5.07,2.2c0.87,0.82,2.25,0.78,3.07-0.1c0.82-0.87,0.78-2.25-0.1-3.07c-2.91-2.73-5.88-3.85-8.83-3.31
		c-4.91,0.89-7.55,6.16-7.66,6.38C80.83,64.73,81.27,66.04,82.35,66.57z"/>
</g>
</svg>
