<?xml version="1.0" encoding="utf-8"?>
<!-- Generator: Adobe Illustrator 24.1.0, SVG Export Plug-In . SVG Version: 6.00 Build 0)  -->
<svg version="1.1" id="Layer_1" xmlns="http://www.w3.org/2000/svg" xmlns:xlink="http://www.w3.org/1999/xlink" x="0px" y="0px"
	 viewBox="0 0 250 214.6" enable-background="new 0 0 250 214.6" xml:space="preserve">
<g id="_x31_">
</g>
<g id="Designed_by_Vecteezy">
	<path fill="#393939" d="M185.6,138.9c-0.4,0.2-0.8,0.4-1.2,0.6c0,0,0,0,0,0C184.8,139.4,185.2,139.1,185.6,138.9z"/>
	<path fill="#393939" d="M178.9,168.9c-1.5,4.7-3.2,8.6-5.1,11.4c2-0.8,7-2.9,12.8-6.2c-1.4,0.8-2.7,1.5-3.9,2.1
		C181.6,174,180.3,171.5,178.9,168.9z"/>
	<path fill="#393939" d="M215.8,136.4c0,0.1,0.1,0.1,0.1,0.2C215.8,136.6,215.8,136.5,215.8,136.4z"/>
	<path fill="#393939" d="M216,137.2c0,0.1,0,0.1,0,0.2C216.1,137.4,216,137.3,216,137.2z"/>
	<path fill="#393939" d="M182,155.9c3.4,4.5,6.6,9.7,9,15.5c2.3-1.4,4.6-3.1,6.8-4.9c-2.8-5.6-8-14.8-14.1-21.5
		C183.3,148.8,182.7,152.4,182,155.9z"/>
	<path fill="#393939" d="M185.7,138.9c1.8-0.8,3.6-1.6,5.3-2.2C189.2,137.4,187.4,138.1,185.7,138.9z"/>
	<path fill="#393939" d="M203.3,133.8c0.3,0,0.6-0.1,0.8-0.1c-3.9,0.4-8.4,1.4-13.2,3.1c5.3,5.3,11.3,12.8,15.2,21.9
		c2.9-3.3,5.4-7,7.2-11.1C212.1,143.2,209.2,137.4,203.3,133.8z"/>
	<path fill="#393939" d="M212.8,134.2c0.1,0,0.2,0.1,0.2,0.1C213,134.3,212.9,134.2,212.8,134.2z"/>
	<path fill="#393939" d="M191,171.4c-1.4,0.9-2.9,1.8-4.2,2.6C188.1,173.2,189.6,172.4,191,171.4z"/>
	<path fill="#393939" d="M214.6,135.1c0.1,0.1,0.2,0.1,0.2,0.2C214.7,135.2,214.6,135.1,214.6,135.1z"/>
	<path fill="#393939" d="M213.7,134.6c0.1,0.1,0.2,0.1,0.3,0.2C213.9,134.7,213.8,134.7,213.7,134.6z"/>
	<path fill="#393939" d="M208.6,133.5c0.2,0,0.4,0,0.7,0.1C209,133.6,208.8,133.6,208.6,133.5z"/>
	<path fill="#393939" d="M206.6,133.5c0.2,0,0.5,0,0.7,0C207.1,133.5,206.9,133.5,206.6,133.5z"/>
	<path fill="#393939" d="M205,133.6c0.3,0,0.6,0,0.8-0.1C205.5,133.6,205.3,133.6,205,133.6z"/>
	<path fill="#393939" d="M211.3,133.9c0.2,0,0.3,0.1,0.5,0.1C211.6,133.9,211.5,133.9,211.3,133.9z"/>
	<path fill="#393939" d="M210,133.6c0.2,0,0.4,0.1,0.6,0.1C210.4,133.7,210.2,133.7,210,133.6z"/>
	<path fill="#393939" d="M202.1,162.8c-1.4,1.3-2.8,2.5-4.3,3.7C199.3,165.4,200.7,164.1,202.1,162.8z"/>
	<path fill="#393939" d="M206.2,158.6c-1.3,1.5-2.6,2.8-4,4.1C203.6,161.5,204.9,160.1,206.2,158.6z"/>
	<path fill="#393939" d="M215.4,135.8C215.4,135.8,215.4,135.9,215.4,135.8C215.4,135.9,215.4,135.8,215.4,135.8z"/>
	<path fill="#393939" d="M214.3,145.4c-0.3,0.7-0.6,1.5-0.9,2.2C213.7,146.8,214,146.1,214.3,145.4z"/>
	<path fill="#393939" d="M215.6,140.7c-0.1,0.6-0.3,1.2-0.4,1.8C215.4,141.9,215.5,141.3,215.6,140.7z"/>
	<path fill="#393939" d="M215,143.1c-0.2,0.7-0.4,1.5-0.7,2.2C214.6,144.6,214.8,143.8,215,143.1z"/>
	<path fill="#A5A5A5" d="M216,137.2c0-0.2-0.1-0.4-0.1-0.5c0-0.1-0.1-0.1-0.1-0.2c-0.1-0.2-0.2-0.4-0.4-0.6c0,0,0-0.1-0.1-0.1
		c-0.2-0.2-0.4-0.4-0.6-0.6c-0.1-0.1-0.2-0.1-0.2-0.2c-0.2-0.1-0.3-0.2-0.5-0.3c-0.1-0.1-0.2-0.1-0.3-0.2c-0.2-0.1-0.4-0.2-0.7-0.3
		c-0.1,0-0.2-0.1-0.2-0.1c-0.3-0.1-0.7-0.2-1-0.3c-0.2,0-0.3-0.1-0.5-0.1c-0.2,0-0.5-0.1-0.7-0.1c-0.2,0-0.4-0.1-0.6-0.1
		c-0.2,0-0.5-0.1-0.8-0.1c-0.2,0-0.4,0-0.7-0.1c-0.4,0-0.8,0-1.2,0c-0.2,0-0.5,0-0.7,0c-0.3,0-0.5,0-0.8,0c-0.3,0-0.5,0-0.8,0.1
		c-0.3,0-0.6,0.1-0.8,0.1c-0.3,0-0.6,0.1-0.8,0.1c5.9,3.6,8.7,9.4,10.1,13.8l0,0c0,0,0,0,0,0c0.3-0.7,0.6-1.4,0.9-2.2
		c0,0,0-0.1,0-0.1c0.3-0.7,0.5-1.4,0.7-2.2c0.1-0.2,0.1-0.4,0.1-0.6c0.2-0.6,0.3-1.2,0.4-1.8c0.2-0.8,0.3-1.6,0.4-2.5
		c0-0.3,0-0.6,0-0.8C216.1,137.4,216,137.3,216,137.2z"/>
	<path fill="#A5A5A5" d="M191,136.8C191,136.8,191,136.8,191,136.8c-1.8,0.6-3.6,1.4-5.3,2.2c0,0,0,0,0,0c-0.4,0.2-0.8,0.4-1.2,0.6
		c-0.2,1.9-0.4,3.7-0.6,5.5c6.1,6.6,11.3,15.9,14.1,21.5l0,0l0,0c1.5-1.2,2.9-2.4,4.3-3.7c0,0,0,0,0.1-0.1c1.4-1.3,2.8-2.7,4-4.1
		l0,0l0,0C202.3,149.5,196.3,142.1,191,136.8L191,136.8z"/>
	<path fill="#A5A5A5" d="M178.9,168.9c1.5,2.6,2.8,5.1,3.8,7.4c1.2-0.6,2.6-1.4,3.9-2.1c0.1,0,0.1-0.1,0.2-0.1
		c1.4-0.8,2.8-1.6,4.2-2.6c0,0,0,0,0,0l0,0c-2.4-5.8-5.6-11-9-15.5C181.1,160.6,180.1,165,178.9,168.9z"/>
	<path fill="#191919" d="M77.9,203.7c6.1,3,2.5-7.4,2.1-13.7c-2.4-0.7-4.4-1.5-5.7-2.4c-2.2-1.4-3.9-3.3-5.4-5.7
		c0.2,1.2,0.4,2.9,0.8,4.8C70.8,192.9,73.2,201.4,77.9,203.7z"/>
	<path fill="#191919" d="M160.8,189.1c0.5,5.8-4.5,18.8,2.1,15.5c5.3-2.6,7.7-13.2,8.7-19.3c0.1-1,0.3-1.8,0.4-2.5
		C169.4,185.2,165.5,187.4,160.8,189.1z"/>
	<path fill="#393939" d="M89.8,47.8C86,44.9,77.2,38.6,75.2,42c-1.7,2.9-0.2,11.1,1,16.4C79.9,54,84.4,50.5,89.8,47.8z"/>
	<path fill="#393939" d="M174.8,65.8c2.1-4.5,6.3-14.3,5.1-17.9c-1.6-4.8-17.4,4-17.4,4l0.1,0.1C167.6,56.2,171.5,61,174.8,65.8z"/>
	<path fill="#878787" d="M72.8,103.6C75,98.8,78,95,81.9,92.5c14.7-9.2,75-7.1,85.9,6.5c1.8,2.3,3.2,5.3,4.2,8.7h0
		c3.6-1.4,9.7-2.6,13.7-1.1c-0.4-13.5-2-25-4.9-30.4c-0.6-1.1-1.1-2.1-1.7-3.2c2.8-5.8,11.8-25.5,6-31c-6.9-6.5-28.5,5.9-28.5,5.9
		l0.2,0.3c-8.6-5.1-20.1-8.2-35.8-7.3c-9.4,0.5-17.5,1.9-24.5,4.2c-4.6-3.7-18.7-14.2-25.3-10c-6.7,4.2-2,24.6-0.2,31.2
		c-4.7,9.1-7.2,21-8,36.3C65.7,101.5,69.5,102.3,72.8,103.6z M162.4,51.9c0,0,15.8-8.7,17.4-4c1.2,3.6-2.9,13.4-5.1,17.9
		c-3.2-4.9-7.2-9.7-12.3-13.8L162.4,51.9z M144.6,55c10.3-5.5,21.2,1.3,27.3,17c6,15.7-7.8,16.5-15.9,15.3
		c-8.1-1.1-9.7-9.1-15.9-12.1S133.3,61.2,144.6,55z M114.6,52.8c6.6,4.8,8.1,11,6.6,15.4c6.2-2.1,15,1.9,15.3,4.6
		c0.3,2.6-3.9,5.6-8.4,5.5l-1.2,6.2c0.1,0,0.1,0,0.2,0c3.7,0.1,7.2-1.8,10.4-5.6c0.4-0.4,1.1-0.5,1.5-0.1c0.4,0.4,0.5,1.1,0.1,1.5
		c-3.6,4.2-7.6,6.3-11.9,6.3c-0.1,0-0.2,0-0.3,0c-7.5-0.2-12.9-6.8-13.1-7.1c-0.4-0.5-0.3-1.2,0.2-1.5s1.2-0.3,1.5,0.2
		c0,0.1,3.8,4.7,9.1,5.9l1.2-6.2c-3.2-0.8-6.8-3.2-7.8-5.6c-0.6,0.4-1.2,0.8-1.9,1c-6.5,2.2-9.2,9.8-17.4,9.8S77,80.6,85.2,65.9
		C93.4,51.2,105.2,45.9,114.6,52.8z M75.2,42c2-3.4,10.8,2.9,14.6,5.8c-5.4,2.7-9.9,6.1-13.6,10.5C75.1,53.1,73.6,44.8,75.2,42z"/>
	<path fill="#878787" d="M182,155.9c0.7-3.5,1.2-7.1,1.7-10.9c0.2-1.8,0.5-3.6,0.6-5.5c0,0,0,0,0,0c0.8-7.6,1.3-15.4,1.4-23
		c-3.1,1.3-7.5,1.8-11.9,1.7c1.3,16.6-3.1,37.7-10.4,49.8c-10.9,17.9-64.7,20.7-81.6,4.4c-11.3-10.9-16.5-37.4-12.7-57.4
		c-2.5-0.8-4.8-1.8-6.5-2.9c-0.8,36.6-0.7,58.7,6.1,69.9c1.5,2.4,3.2,4.3,5.4,5.7c1.3,0.8,3.3,1.6,5.7,2.4c17,5.1,58.5,6.9,80.8-1
		c4.7-1.7,8.6-3.8,11.2-6.4c0.5-0.5,0.9-1,1.3-1.5c0.2-0.2,0.4-0.5,0.5-0.8c1.9-2.9,3.6-6.8,5.1-11.4
		C180.1,165,181.1,160.6,182,155.9z"/>
	<path fill="#A5A5A5" d="M158.2,112.9c-5-7.6,8.2-3,13.8-5.1c-1-3.4-2.4-6.4-4.2-8.7c-10.9-13.6-71.2-15.8-85.9-6.5
		C78,95,75,98.8,72.8,103.6c2,0.8,3.8,1.8,5.1,2.7c5,3.3,18.9,1.7,12.4,8c-3.7,3.6-13.5,3.1-21,0.8c-3.9,20.1,1.4,46.5,12.7,57.5
		c16.8,16.3,70.7,13.6,81.5-4.4c7.4-12.1,11.7-33.2,10.4-49.8C167.2,118.1,160.5,116.3,158.2,112.9z"/>
	<path fill="#393939" d="M85.2,65.9c-8.2,14.7,5.4,17.4,13.6,17.4s10.9-7.6,17.4-9.8c0.7-0.2,1.3-0.6,1.9-1
		c-0.5-1.4-0.2-2.7,1.7-3.7c0.4-0.2,0.9-0.4,1.4-0.6c1.4-4.4-0.1-10.5-6.6-15.4C105.2,45.9,93.4,51.2,85.2,65.9z M97,63.2
		c0.2-0.2,3.7-4.9,8.7-4.9l0,0c3,0,5.7,1.6,8.1,4.8c0.7,1,0.5,2.3-0.4,3c-1,0.7-2.3,0.5-3-0.4c-1.5-2-3.1-3.1-4.6-3.1h0
		c-2.3,0-4.5,2.3-5.2,3.2c-0.4,0.6-1.1,0.9-1.8,0.9c-0.4,0-0.9-0.1-1.3-0.4C96.5,65.5,96.3,64.2,97,63.2z"/>
	<path fill="#393939" d="M140.1,75.3c6.2,3.1,7.8,11,15.9,12.1c8.1,1.1,21.9,0.3,15.9-15.3s-17-22.5-27.3-17
		C133.3,61.2,133.9,72.2,140.1,75.3z M143,65.7c0.1-0.2,3.7-4.9,8.7-4.9l0,0c3,0,5.7,1.6,8.1,4.8c0.7,1,0.5,2.3-0.4,3
		c-1,0.7-2.3,0.5-3-0.4c-1.5-2-3.1-3.1-4.6-3.1h0c-2.3,0-4.5,2.3-5.2,3.2c-0.4,0.6-1.1,0.9-1.8,0.9c-0.4,0-0.9-0.1-1.3-0.4
		C142.5,68,142.3,66.6,143,65.7z"/>
	<path fill="#191919" d="M118.1,72.5c0.9,2.4,4.6,4.8,7.8,5.6l-1.2,6.2c-5.3-1.2-9.1-5.9-9.1-5.9c-0.4-0.5-1.1-0.5-1.5-0.2
		c-0.5,0.4-0.5,1.1-0.2,1.5c0.2,0.3,5.6,6.9,13.1,7.1c0.1,0,0.2,0,0.3,0c4.3,0,8.3-2.1,11.9-6.3c0.4-0.4,0.3-1.1-0.1-1.5
		c-0.4-0.4-1.1-0.3-1.5,0.1c-3.3,3.8-6.8,5.7-10.4,5.6c-0.1,0-0.1,0-0.2,0l1.2-6.2c4.6,0.1,8.8-2.9,8.4-5.5
		c-0.3-2.7-9.1-6.6-15.3-4.6c-0.5,0.2-0.9,0.3-1.4,0.6C117.9,69.8,117.6,71.1,118.1,72.5z"/>
	<path fill="#191919" d="M90.3,114.2c6.6-6.3-7.4-4.7-12.4-8c-1.3-0.9-3.2-1.9-5.1-2.7c-3.3-1.3-7-2.1-9.7-1
		c-1.6,0.7-2.9,1.9-3.4,4.2c-0.5,1.9,0.8,3.7,3.1,5.2c1.7,1.2,4,2.2,6.5,2.9C76.8,117.4,86.6,117.8,90.3,114.2z"/>
	<path fill="#191919" d="M172,107.8L172,107.8c-5.6,2.2-18.8-2.4-13.8,5.1c2.3,3.4,9,5.2,15.6,5.4c4.5,0.1,8.9-0.4,11.9-1.7
		c2.4-1,4-2.5,3.9-4.3c-0.1-3.1-1.7-4.8-4-5.6C181.7,105.1,175.6,106.3,172,107.8z"/>
	<path fill="#191919" d="M144.7,69.1c0.7,0,1.3-0.3,1.8-0.9c0.7-0.9,2.9-3.2,5.2-3.2h0c1.5,0,3.1,1,4.6,3.1c0.7,1,2.1,1.2,3,0.4
		c1-0.7,1.2-2.1,0.4-3c-2.4-3.2-5.1-4.8-8.1-4.8l0,0c-5,0-8.5,4.7-8.7,4.9c-0.7,1-0.5,2.3,0.4,3C143.8,69,144.3,69.1,144.7,69.1z"/>
	<path fill="#191919" d="M98.8,66.7c0.7,0,1.3-0.3,1.8-0.9c0.7-0.9,2.9-3.2,5.2-3.2h0c1.5,0,3.1,1,4.6,3.1c0.7,1,2.1,1.2,3,0.4
		c1-0.7,1.2-2.1,0.4-3c-2.4-3.2-5.1-4.8-8.1-4.8l0,0c-5,0-8.5,4.7-8.7,4.9c-0.7,1-0.5,2.3,0.4,3C97.9,66.5,98.3,66.7,98.8,66.7z"/>
</g>
</svg>
