<?xml version="1.0" encoding="utf-8"?>
<!-- Generator: Adobe Illustrator 24.1.0, SVG Export Plug-In . SVG Version: 6.00 Build 0)  -->
<svg version="1.1" xmlns="http://www.w3.org/2000/svg" xmlns:xlink="http://www.w3.org/1999/xlink" x="0px" y="0px"
	 viewBox="0 0 250 250" style="enable-background:new 0 0 250 250;" xml:space="preserve">
<style type="text/css">
	.st0{fill:#393939;}
	.st1{fill:#A5A5A5;}
	.st2{fill:#191919;}
	.st3{fill:#878787;}
</style>
<g id="_x31_">
</g>
<g id="Designed_by_Vecteezy">
	<path class="st0" d="M185.63,138.95c-0.4,0.19-0.81,0.38-1.21,0.57c0,0.01,0,0.01,0,0.02
		C184.83,139.35,185.23,139.14,185.63,138.95z"/>
	<path class="st0" d="M178.85,168.89c-1.47,4.66-3.17,8.56-5.1,11.43c2.04-0.8,6.99-2.88,12.82-6.21c-1.36,0.78-2.67,1.49-3.91,2.13
		C181.6,173.99,180.31,171.46,178.85,168.89z"/>
	<path class="st0" d="M215.78,136.44c0.03,0.07,0.06,0.14,0.09,0.22C215.84,136.59,215.81,136.51,215.78,136.44z"/>
	<path class="st0" d="M216.02,137.19c0.01,0.08,0.03,0.15,0.04,0.23C216.05,137.35,216.03,137.27,216.02,137.19z"/>
	<path class="st0" d="M182.04,155.91c3.38,4.51,6.62,9.73,8.97,15.5c2.26-1.45,4.56-3.09,6.82-4.88
		c-2.81-5.56-7.97-14.84-14.07-21.48C183.28,148.8,182.7,152.45,182.04,155.91z"/>
	<path class="st0" d="M185.66,138.94c1.78-0.82,3.57-1.55,5.34-2.19C189.23,137.38,187.45,138.12,185.66,138.94z"/>
	<path class="st0" d="M203.34,133.76c0.28-0.03,0.55-0.05,0.83-0.08c-3.91,0.37-8.45,1.39-13.16,3.07
		c5.27,5.33,11.27,12.75,15.22,21.87c2.9-3.31,5.39-7,7.18-11.06C212.07,143.21,209.22,137.39,203.34,133.76z"/>
	<path class="st0" d="M212.79,134.22c0.09,0.03,0.16,0.07,0.25,0.1C212.96,134.29,212.88,134.25,212.79,134.22z"/>
	<path class="st0" d="M191,171.43c-1.45,0.93-2.87,1.79-4.24,2.58C188.14,173.21,189.55,172.36,191,171.43z"/>
	<path class="st0" d="M214.55,135.08c0.08,0.06,0.16,0.11,0.24,0.17C214.72,135.19,214.63,135.14,214.55,135.08z"/>
	<path class="st0" d="M213.73,134.61c0.11,0.05,0.21,0.11,0.31,0.16C213.94,134.71,213.84,134.66,213.73,134.61z"/>
	<path class="st0" d="M208.55,133.54c0.23,0.01,0.45,0.03,0.68,0.05C209.01,133.57,208.79,133.55,208.55,133.54z"/>
	<path class="st0" d="M206.61,133.53c0.25-0.01,0.5-0.01,0.74-0.02C207.11,133.51,206.86,133.52,206.61,133.53z"/>
	<path class="st0" d="M205,133.61c0.28-0.02,0.55-0.04,0.82-0.05C205.54,133.57,205.27,133.59,205,133.61z"/>
	<path class="st0" d="M211.3,133.85c0.16,0.03,0.33,0.06,0.48,0.1C211.63,133.91,211.46,133.88,211.3,133.85z"/>
	<path class="st0" d="M210.02,133.65c0.2,0.02,0.38,0.05,0.57,0.08C210.4,133.7,210.21,133.68,210.02,133.65z"/>
	<path class="st0" d="M202.13,162.83c-1.39,1.3-2.84,2.54-4.3,3.7C199.3,165.37,200.74,164.14,202.13,162.83z"/>
	<path class="st0" d="M206.22,158.63c-1.27,1.46-2.63,2.84-4.03,4.15C203.6,161.46,204.95,160.08,206.22,158.63z"/>
	<path class="st0" d="M215.37,135.8c0.02,0.02,0.03,0.05,0.05,0.07C215.4,135.85,215.39,135.82,215.37,135.8z"/>
	<path class="st0" d="M214.3,145.35c-0.27,0.74-0.57,1.48-0.89,2.2C213.73,146.83,214.03,146.1,214.3,145.35z"/>
	<path class="st0" d="M215.63,140.73c-0.13,0.6-0.28,1.18-0.44,1.77C215.35,141.91,215.51,141.33,215.63,140.73z"/>
	<path class="st0" d="M215.04,143.09c-0.21,0.74-0.45,1.46-0.71,2.18C214.59,144.55,214.83,143.83,215.04,143.09z"/>
	<path class="st1" d="M216.02,137.19c-0.03-0.18-0.08-0.36-0.15-0.53c-0.03-0.07-0.05-0.15-0.09-0.22c-0.1-0.2-0.22-0.39-0.36-0.57
		c-0.02-0.02-0.03-0.05-0.05-0.07c-0.16-0.2-0.36-0.38-0.58-0.55c-0.07-0.06-0.16-0.11-0.24-0.17c-0.16-0.11-0.33-0.22-0.52-0.32
		c-0.1-0.05-0.2-0.11-0.31-0.16c-0.22-0.1-0.45-0.2-0.69-0.28c-0.09-0.03-0.16-0.07-0.25-0.1c-0.32-0.11-0.66-0.2-1.01-0.28
		c-0.16-0.04-0.32-0.07-0.48-0.1c-0.23-0.04-0.47-0.09-0.71-0.12c-0.19-0.03-0.38-0.05-0.57-0.08c-0.25-0.03-0.52-0.05-0.78-0.07
		c-0.22-0.02-0.45-0.04-0.68-0.05c-0.39-0.02-0.79-0.03-1.2-0.03c-0.24,0-0.49,0.01-0.74,0.02c-0.26,0.01-0.52,0.02-0.79,0.03
		c-0.27,0.01-0.54,0.03-0.82,0.05c-0.27,0.02-0.55,0.05-0.83,0.07c-0.28,0.03-0.55,0.05-0.83,0.08c5.88,3.63,8.73,9.45,10.07,13.8v0
		c0,0,0-0.01,0.01-0.01c0.32-0.72,0.61-1.45,0.89-2.2c0.01-0.03,0.02-0.06,0.03-0.08c0.26-0.72,0.5-1.44,0.71-2.18
		c0.06-0.19,0.1-0.4,0.15-0.59c0.16-0.58,0.31-1.17,0.44-1.77c0.17-0.82,0.32-1.65,0.42-2.49c0.04-0.29,0.03-0.56,0-0.82
		C216.05,137.35,216.03,137.27,216.02,137.19z"/>
	<path class="st1" d="M191.01,136.75C191,136.75,191,136.75,191.01,136.75c-1.77,0.63-3.56,1.36-5.34,2.19
		c-0.01,0-0.02,0.01-0.03,0.01c-0.4,0.19-0.81,0.4-1.21,0.59c-0.2,1.86-0.42,3.69-0.65,5.51c6.1,6.64,11.26,15.91,14.07,21.48v0
		c0,0,0,0,0,0c1.46-1.16,2.9-2.4,4.3-3.7c0.02-0.02,0.04-0.04,0.06-0.06c1.4-1.31,2.75-2.69,4.03-4.15c0,0,0,0,0,0l0,0
		C202.27,149.5,196.28,142.08,191.01,136.75L191.01,136.75z"/>
	<path class="st1" d="M178.85,168.89c1.46,2.57,2.75,5.1,3.81,7.35c1.24-0.64,2.55-1.35,3.91-2.13c0.06-0.04,0.12-0.07,0.19-0.11
		c1.37-0.79,2.79-1.65,4.24-2.58c0,0,0.01,0,0.01-0.01h0c-2.35-5.77-5.59-10.99-8.97-15.5
		C181.14,160.62,180.07,165.01,178.85,168.89z"/>
	<path class="st2" d="M77.87,203.69c6.06,3.03,2.47-7.38,2.13-13.67c-2.45-0.73-4.43-1.52-5.72-2.37c-2.16-1.41-3.94-3.32-5.42-5.74
		c0.15,1.23,0.4,2.9,0.76,4.79C70.79,192.91,73.2,201.36,77.87,203.69z"/>
	<path class="st2" d="M160.77,189.05c0.51,5.8-4.54,18.8,2.14,15.46c5.29-2.65,7.69-13.17,8.66-19.34c0.15-0.97,0.27-1.83,0.36-2.54
		C169.37,185.25,165.5,187.37,160.77,189.05z"/>
	<path class="st0" d="M89.81,47.81c-3.77-2.93-12.59-9.25-14.57-5.85c-1.68,2.88-0.18,11.14,1.02,16.41
		C79.93,53.95,84.41,50.47,89.81,47.81z"/>
	<path class="st0" d="M174.77,65.83c2.1-4.5,6.3-14.26,5.05-17.87c-1.65-4.76-17.4,3.97-17.4,3.97l0.09,0.13
		C167.6,56.15,171.53,60.95,174.77,65.83z"/>
	<path class="st3" d="M72.76,103.59c2.22-4.75,5.23-8.62,9.12-11.07c14.68-9.24,75.02-7.07,85.9,6.52c1.83,2.29,3.22,5.27,4.23,8.71
		c0,0,0.01,0,0.01,0c3.56-1.39,9.68-2.61,13.71-1.14c-0.38-13.51-2-24.96-4.91-30.4c-0.56-1.05-1.14-2.12-1.74-3.21
		c2.82-5.79,11.78-25.49,5.96-31.03c-6.85-6.51-28.48,5.86-28.48,5.86l0.25,0.31c-8.64-5.08-20.08-8.17-35.79-7.28
		c-9.43,0.54-17.54,1.88-24.46,4.2c-4.61-3.7-18.7-14.21-25.32-10c-6.65,4.23-1.96,24.56-0.22,31.22
		c-4.69,9.1-7.23,21.02-7.98,36.33C65.74,101.54,69.46,102.28,72.76,103.59z M162.42,51.94c0,0,15.75-8.73,17.4-3.97
		c1.25,3.61-2.95,13.36-5.05,17.87c-3.23-4.88-7.16-9.68-12.26-13.76L162.42,51.94z M144.59,55.05c10.27-5.55,21.22,1.33,27.26,17
		c6.03,15.67-7.8,16.47-15.88,15.34c-8.08-1.14-9.71-9.05-15.87-12.11C133.94,72.22,133.3,61.15,144.59,55.05z M114.56,52.83
		c6.56,4.83,8.06,10.97,6.63,15.37c6.19-2.07,14.96,1.87,15.3,4.56c0.33,2.64-3.86,5.58-8.45,5.53l-1.2,6.19
		c0.07,0,0.13,0.01,0.19,0.01c3.66,0.13,7.18-1.8,10.44-5.56c0.4-0.45,1.08-0.5,1.54-0.11c0.45,0.4,0.5,1.08,0.11,1.54
		c-3.64,4.19-7.64,6.31-11.89,6.31c-0.08,0-0.17,0-0.26,0c-7.47-0.15-12.86-6.79-13.09-7.07c-0.37-0.47-0.3-1.15,0.17-1.53
		c0.47-0.38,1.15-0.3,1.53,0.17c0.04,0.05,3.83,4.7,9.09,5.95l1.19-6.16c-3.17-0.75-6.82-3.18-7.75-5.55
		c-0.59,0.42-1.23,0.77-1.93,1.01c-6.52,2.17-9.24,9.79-17.4,9.79s-21.75-2.72-13.59-17.4C93.36,51.2,105.17,45.91,114.56,52.83z
		 M75.24,41.96c1.98-3.4,10.79,2.92,14.57,5.85c-5.39,2.66-9.88,6.14-13.55,10.55C75.06,53.1,73.56,44.84,75.24,41.96z"/>
	<path class="st3" d="M182.04,155.91c0.66-3.47,1.24-7.11,1.73-10.86c0.24-1.82,0.46-3.65,0.65-5.51c0-0.01,0-0.01,0-0.02
		c0.8-7.59,1.26-15.43,1.38-22.96c-3.05,1.27-7.48,1.85-11.95,1.72c1.31,16.58-3.06,37.67-10.41,49.8
		c-10.87,17.94-64.69,20.66-81.55,4.35c-11.29-10.93-16.54-37.36-12.68-57.45c-2.5-0.79-4.75-1.8-6.45-2.94
		c-0.8,36.55-0.69,58.73,6.1,69.87c1.47,2.42,3.25,4.33,5.42,5.74c1.29,0.84,3.27,1.64,5.72,2.37c16.98,5.06,58.52,6.93,80.77-0.97
		c4.73-1.68,8.6-3.8,11.16-6.43c0.47-0.48,0.91-0.98,1.29-1.49c0.18-0.25,0.36-0.54,0.53-0.81c1.93-2.87,3.63-6.77,5.1-11.43
		C180.07,165.01,181.14,160.62,182.04,155.91z"/>
	<path class="st1" d="M158.24,112.89c-5.04-7.59,8.19-2.96,13.78-5.14c-1.01-3.44-2.4-6.42-4.23-8.71
		c-10.87-13.59-71.22-15.77-85.9-6.52c-3.89,2.45-6.91,6.32-9.12,11.07c1.96,0.78,3.78,1.75,5.13,2.65
		c4.99,3.34,18.92,1.66,12.36,7.99c-3.69,3.56-13.5,3.14-21.05,0.75c-3.86,20.09,1.38,46.52,12.68,57.45
		c16.85,16.31,70.67,13.59,81.55-4.35c7.35-12.13,11.72-33.22,10.41-49.8C167.21,118.09,160.51,116.32,158.24,112.89z"/>
	<path class="st0" d="M85.21,65.88c-8.15,14.68,5.44,17.4,13.59,17.4s10.87-7.61,17.4-9.79c0.7-0.23,1.34-0.59,1.93-1.01
		c-0.53-1.36-0.19-2.71,1.69-3.71c0.44-0.23,0.9-0.42,1.37-0.57c1.44-4.4-0.07-10.54-6.63-15.37
		C105.17,45.91,93.36,51.2,85.21,65.88z M97.04,63.2c0.15-0.2,3.69-4.91,8.68-4.91c0,0,0,0,0,0c3,0,5.72,1.62,8.09,4.83
		c0.72,0.96,0.51,2.33-0.45,3.04c-0.96,0.72-2.33,0.51-3.04-0.45c-1.5-2.03-3.05-3.06-4.58-3.07c0,0-0.01,0-0.01,0
		c-2.31,0-4.53,2.28-5.19,3.16c-0.43,0.57-1.08,0.87-1.75,0.87c-0.45,0-0.9-0.14-1.3-0.43C96.54,65.52,96.33,64.16,97.04,63.2z"/>
	<path class="st0" d="M140.1,75.28c6.16,3.06,7.79,10.98,15.87,12.11c8.08,1.13,21.91,0.33,15.88-15.34
		c-6.03-15.67-16.99-22.55-27.26-17C133.3,61.15,133.94,72.22,140.1,75.28z M142.98,65.65c0.15-0.2,3.69-4.91,8.68-4.91c0,0,0,0,0,0
		c3,0,5.72,1.62,8.09,4.83c0.72,0.96,0.51,2.33-0.45,3.04c-0.96,0.72-2.33,0.51-3.04-0.45c-1.5-2.03-3.05-3.06-4.58-3.07
		c0,0-0.01,0-0.01,0c-2.31,0-4.53,2.28-5.19,3.16c-0.43,0.57-1.08,0.87-1.75,0.87c-0.45,0-0.9-0.14-1.3-0.43
		C142.47,67.96,142.27,66.61,142.98,65.65z"/>
	<path class="st2" d="M118.13,72.48c0.93,2.38,4.58,4.8,7.75,5.55l-1.19,6.16c-5.26-1.25-9.05-5.89-9.09-5.95
		c-0.37-0.47-1.06-0.54-1.53-0.17c-0.47,0.38-0.54,1.06-0.17,1.53c0.23,0.28,5.62,6.92,13.09,7.07c0.08,0,0.17,0,0.26,0
		c4.25,0,8.25-2.12,11.89-6.31c0.39-0.45,0.34-1.14-0.11-1.54c-0.45-0.39-1.14-0.34-1.54,0.11c-3.26,3.76-6.78,5.7-10.44,5.56
		c-0.07,0-0.13-0.01-0.19-0.01l1.2-6.19c4.59,0.05,8.78-2.88,8.45-5.53c-0.34-2.69-9.11-6.63-15.3-4.56
		c-0.47,0.16-0.94,0.34-1.37,0.57C117.94,69.77,117.59,71.12,118.13,72.48z"/>
	<path class="st2" d="M90.26,114.23c6.56-6.33-7.37-4.65-12.36-7.99c-1.35-0.91-3.17-1.87-5.13-2.65c-3.3-1.31-7.02-2.05-9.71-0.97
		c-1.62,0.65-2.87,1.93-3.42,4.17c-0.46,1.89,0.83,3.7,3.13,5.25c1.7,1.15,3.95,2.15,6.45,2.94
		C76.76,117.37,86.57,117.79,90.26,114.23z"/>
	<path class="st2" d="M172.03,107.75c0,0-0.01,0-0.01,0c-5.6,2.18-18.82-2.45-13.78,5.14c2.28,3.43,8.97,5.2,15.61,5.39
		c4.47,0.13,8.91-0.45,11.95-1.72c2.43-1.02,3.99-2.46,3.95-4.34c-0.07-3.07-1.7-4.77-4.01-5.61
		C181.7,105.14,175.58,106.35,172.03,107.75z"/>
	<path class="st2" d="M144.73,69.11c0.66,0,1.32-0.3,1.75-0.87c0.66-0.88,2.88-3.16,5.19-3.16c0,0,0.01,0,0.01,0
		c1.54,0,3.08,1.04,4.58,3.07c0.72,0.97,2.08,1.17,3.04,0.45c0.97-0.72,1.17-2.08,0.45-3.04c-2.37-3.2-5.09-4.83-8.09-4.83
		c0,0,0,0,0,0c-4.99,0-8.53,4.71-8.68,4.91c-0.71,0.96-0.51,2.32,0.45,3.03C143.82,68.97,144.28,69.11,144.73,69.11z"/>
	<path class="st2" d="M98.79,66.66c0.66,0,1.32-0.3,1.75-0.87c0.66-0.88,2.88-3.16,5.19-3.16c0,0,0.01,0,0.01,0
		c1.54,0,3.08,1.04,4.58,3.07c0.72,0.97,2.08,1.17,3.04,0.45c0.97-0.72,1.17-2.08,0.45-3.04c-2.37-3.2-5.09-4.83-8.09-4.83
		c0,0,0,0,0,0c-4.99,0-8.53,4.71-8.68,4.91c-0.71,0.96-0.51,2.32,0.45,3.03C97.89,66.52,98.34,66.66,98.79,66.66z"/>
</g>
</svg>
