<?xml version="1.0" encoding="utf-8"?>
<!-- Generator: Adobe Illustrator 24.1.0, SVG Export Plug-In . SVG Version: 6.00 Build 0)  -->
<svg version="1.1" xmlns="http://www.w3.org/2000/svg" xmlns:xlink="http://www.w3.org/1999/xlink" x="0px" y="0px"
	 viewBox="0 0 250 250" style="enable-background:new 0 0 250 250;" xml:space="preserve">
<style type="text/css">
	.st0{fill:#393939;}
	.st1{fill:#A5A5A5;}
	.st2{fill:#191919;}
	.st3{fill:#878787;}
</style>
<g id="_x31_">
</g>
<g id="Designed_by_Vecteezy">
	<path class="st0" d="M209.1,174.29c-1.76,0.79-3.55,1.48-5.36,2.09C205.55,175.77,207.34,175.08,209.1,174.29z"/>
	<path class="st0" d="M189.87,179.61c-0.8,0.12-1.6,0.22-2.37,0.31C188.28,179.83,189.07,179.73,189.87,179.61z"/>
	<path class="st0" d="M221.96,165.57c-0.56,0.56-1.13,1.11-1.72,1.63C220.83,166.67,221.41,166.13,221.96,165.57z"/>
	<path class="st0" d="M184.64,180.22c-0.66,0.06-1.31,0.11-1.95,0.16C183.32,180.33,183.97,180.28,184.64,180.22z"/>
	<path class="st0" d="M200.84,177.28c-0.89,0.25-1.77,0.49-2.66,0.71C199.07,177.77,199.95,177.53,200.84,177.28z"/>
	<path class="st0" d="M223.57,163.82c-0.5,0.58-1.02,1.14-1.55,1.69C222.55,164.96,223.07,164.4,223.57,163.82z"/>
	<path class="st0" d="M180.33,179.84c-0.15,0.23-0.3,0.48-0.46,0.69c0.82-0.04,1.68-0.09,2.57-0.15c-0.72,0.05-1.42,0.09-2.1,0.12
		C180.34,180.3,180.33,180.06,180.33,179.84z"/>
	<path class="st0" d="M187.01,179.98c-0.65,0.07-1.29,0.14-1.92,0.2C185.71,180.12,186.35,180.05,187.01,179.98z"/>
	<path class="st0" d="M203.54,176.44c-0.85,0.28-1.69,0.55-2.54,0.79C201.85,176.99,202.69,176.73,203.54,176.44z"/>
	<path class="st0" d="M192.59,148.14c0.99-0.1,1.98-0.17,2.96-0.22C194.57,147.97,193.58,148.04,192.59,148.14z"/>
	<path class="st0" d="M226.9,157.32c0.01,0.03,0.01,0.05,0.01,0.08C226.91,157.38,226.91,157.35,226.9,157.32z"/>
	<path class="st0" d="M225.91,155.55c0.08,0.09,0.14,0.18,0.21,0.27C226.05,155.74,225.98,155.64,225.91,155.55z"/>
	<path class="st0" d="M226.46,156.33c0.05,0.08,0.1,0.17,0.15,0.25C226.56,156.5,226.51,156.41,226.46,156.33z"/>
	<path class="st0" d="M225.21,154.82c0.07,0.06,0.12,0.13,0.19,0.19C225.34,154.95,225.28,154.88,225.21,154.82z"/>
	<path class="st0" d="M216.8,150.47c-3.56-1.15-7.83-2.01-12.46-2.4c2.58,7.04,4.95,16.28,4.76,26.22
		c4.01-1.81,7.82-4.13,11.13-7.07C220.82,162.69,220.64,156.21,216.8,150.47z"/>
	<path class="st0" d="M226.85,159.08c0.02-0.07,0.04-0.15,0.06-0.23C226.89,158.93,226.88,159.01,226.85,159.08z"/>
	<path class="st0" d="M224.01,153.86c0.13,0.1,0.27,0.19,0.4,0.29C224.28,154.05,224.14,153.95,224.01,153.86z"/>
	<path class="st0" d="M227.01,158.08c0,0.08,0,0.16-0.01,0.23C227,158.23,227.01,158.16,227.01,158.08z"/>
	<path class="st0" d="M218.38,151.02c0.26,0.1,0.52,0.2,0.77,0.3C218.89,151.21,218.64,151.11,218.38,151.02z"/>
	<path class="st0" d="M216.8,150.47c0.27,0.09,0.53,0.18,0.79,0.27C217.33,150.65,217.07,150.55,216.8,150.47z"/>
	<path class="st0" d="M225.09,161.92c-0.36,0.49-0.74,0.95-1.12,1.41C224.35,162.87,224.73,162.4,225.09,161.92z"/>
	<path class="st0" d="M198.58,147.83c1.97-0.01,3.9,0.07,5.77,0.23C202.47,147.9,200.54,147.83,198.58,147.83z"/>
	<path class="st0" d="M195.63,147.92c0.98-0.05,1.96-0.08,2.92-0.08C197.58,147.84,196.61,147.87,195.63,147.92z"/>
	<path class="st0" d="M189.69,148.49c-0.57,3.81-1.23,7.48-1.99,10.93c1.5,6.09,2.54,13.06,2.25,20.18
		c2.66-0.39,5.43-0.91,8.23-1.61c-0.29-7.37-1.4-20.84-5.6-29.85C191.62,148.23,190.65,148.35,189.69,148.49z"/>
	<path class="st0" d="M219.87,151.61c0.23,0.1,0.46,0.19,0.68,0.3C220.34,151.81,220.1,151.71,219.87,151.61z"/>
	<path class="st0" d="M222.92,153.14c0.17,0.1,0.33,0.2,0.49,0.31C223.25,153.35,223.09,153.25,222.92,153.14z"/>
	<path class="st0" d="M221.64,152.43c0.21,0.11,0.4,0.22,0.6,0.33C222.04,152.65,221.85,152.54,221.64,152.43z"/>
	<path class="st1" d="M227,158.31c0-0.08,0.01-0.16,0.01-0.23c-0.01-0.23-0.03-0.45-0.09-0.67c-0.01-0.03-0.01-0.05-0.01-0.08
		c-0.07-0.25-0.17-0.49-0.3-0.74c-0.04-0.08-0.1-0.17-0.15-0.25c-0.1-0.17-0.21-0.34-0.34-0.5c-0.07-0.09-0.14-0.18-0.21-0.27
		c-0.15-0.18-0.32-0.36-0.5-0.54c-0.07-0.06-0.12-0.13-0.19-0.19c-0.24-0.23-0.52-0.45-0.81-0.67c-0.13-0.1-0.26-0.19-0.4-0.29
		c-0.19-0.14-0.39-0.27-0.6-0.41c-0.16-0.1-0.32-0.2-0.49-0.31c-0.22-0.13-0.45-0.26-0.68-0.39c-0.2-0.11-0.39-0.22-0.6-0.33
		c-0.35-0.18-0.71-0.35-1.08-0.52c-0.22-0.1-0.45-0.2-0.68-0.3c-0.24-0.1-0.48-0.2-0.73-0.3c-0.25-0.1-0.51-0.2-0.77-0.3
		c-0.26-0.1-0.52-0.19-0.78-0.28c-0.26-0.09-0.52-0.18-0.79-0.27h0l0,0c3.84,5.75,4.02,12.22,3.43,16.74v0c0,0,0.01-0.01,0.01-0.01
		c0.59-0.52,1.16-1.07,1.72-1.63c0.02-0.02,0.04-0.04,0.06-0.06c0.53-0.54,1.05-1.1,1.55-1.69c0.14-0.16,0.26-0.33,0.39-0.49
		c0.38-0.46,0.76-0.93,1.12-1.41c0.5-0.67,0.97-1.37,1.42-2.09c0.15-0.25,0.26-0.49,0.34-0.74c0.02-0.07,0.04-0.15,0.06-0.23
		C226.96,158.68,226.99,158.5,227,158.31z"/>
	<path class="st1" d="M204.35,148.06C204.35,148.06,204.35,148.06,204.35,148.06c-1.87-0.16-3.8-0.24-5.77-0.23
		c-0.01,0-0.02,0-0.03,0c-0.97,0-1.94,0.03-2.92,0.08c-0.03,0-0.05,0-0.08,0c-0.98,0.05-1.97,0.12-2.96,0.22c0,0-0.01,0-0.01,0l0,0
		c4.2,9.01,5.31,22.48,5.6,29.85l0,0c0,0,0,0,0,0c0.88-0.22,1.77-0.46,2.66-0.71c0.05-0.01,0.1-0.03,0.16-0.04
		c0.85-0.25,1.7-0.51,2.54-0.79c0.07-0.02,0.13-0.04,0.2-0.06c1.81-0.61,3.6-1.3,5.36-2.09c0,0,0,0,0.01,0v0
		C209.3,164.34,206.93,155.1,204.35,148.06L204.35,148.06z"/>
	<path class="st1" d="M187.7,159.42c-1.88,8.59-4.34,15.8-7.37,20.42c0,0.22,0.01,0.46,0.02,0.67c0.68-0.03,1.38-0.07,2.1-0.12
		c0.08-0.01,0.16-0.01,0.25-0.02c0.63-0.04,1.28-0.1,1.95-0.16c0.15-0.01,0.3-0.03,0.45-0.04c0.63-0.06,1.27-0.13,1.92-0.2
		c0.17-0.02,0.33-0.04,0.5-0.06c0.78-0.09,1.57-0.19,2.37-0.31c0.02,0,0.05-0.01,0.07-0.01v0
		C190.24,172.48,189.2,165.51,187.7,159.42z"/>
	<path class="st2" d="M94.34,200.12c4.93,0.59,2.54-3.86-0.05-8.57c-5.83-1.06-10.4-2.38-13-3.86
		C84.52,193.02,89.41,199.54,94.34,200.12z"/>
	<path class="st2" d="M161.75,199.94c4.95-1.12,9.2-8.35,11.84-14.03c-3.35,1.9-7.54,3.44-12.31,4.63
		C159.06,195.8,156.62,201.1,161.75,199.94z"/>
	<path class="st0" d="M96.25,47.53c-3.77-2.93-12.59-9.25-14.57-5.85C80,44.56,81.5,52.82,82.7,58.09
		C86.37,53.68,90.86,50.19,96.25,47.53z"/>
	<path class="st0" d="M181.21,65.55c2.1-4.5,6.3-14.26,5.05-17.87c-1.65-4.76-17.4,3.97-17.4,3.97l0.09,0.13
		C174.05,55.87,177.98,60.67,181.21,65.55z"/>
	<path class="st3" d="M76.31,111.7c2.12-8.56,6.02-15.69,12.02-19.46c14.68-9.24,75.02-7.07,85.9,6.52
		c2.79,3.48,4.57,8.55,5.5,14.44c3.31-3.79,8.43-7.69,12.48-5.98c-0.33-13.9-1.97-25.73-4.94-31.29c-0.56-1.05-1.14-2.12-1.74-3.21
		c2.82-5.79,11.78-25.49,5.96-31.03c-6.85-6.51-28.48,5.86-28.48,5.86l0.25,0.31c-8.64-5.08-20.08-8.17-35.79-7.28
		c-9.43,0.54-17.54,1.88-24.46,4.2c-4.61-3.7-18.7-14.21-25.32-10c-6.65,4.23-1.96,24.56-0.22,31.22
		c-5.09,9.88-7.64,23.07-8.13,40.32C72.02,106.62,74.44,108.92,76.31,111.7z M168.86,51.66c0,0,15.75-8.73,17.4-3.97
		c1.25,3.61-2.95,13.36-5.05,17.87c-3.23-4.88-7.16-9.68-12.26-13.76L168.86,51.66z M151.03,54.77c10.27-5.55,21.22,1.33,27.26,17
		c6.03,15.67-7.8,16.47-15.88,15.34c-8.08-1.14-9.71-9.05-15.87-12.11C140.39,71.94,139.75,60.87,151.03,54.77z M121,52.55
		c6.56,4.83,8.06,10.97,6.63,15.37c6.19-2.07,14.96,1.87,15.3,4.56c0.33,2.64-3.86,5.58-8.45,5.53l-1.2,6.19
		c0.07,0,0.13,0.01,0.19,0.01c3.65,0.13,7.18-1.8,10.44-5.56c0.4-0.45,1.08-0.5,1.54-0.11c0.45,0.4,0.5,1.08,0.11,1.54
		c-3.64,4.19-7.64,6.31-11.89,6.31c-0.08,0-0.17,0-0.26,0c-7.47-0.15-12.86-6.79-13.09-7.07c-0.37-0.47-0.3-1.15,0.17-1.53
		c0.47-0.38,1.15-0.3,1.53,0.17c0.04,0.05,3.83,4.7,9.09,5.95l1.19-6.16c-3.17-0.75-6.82-3.18-7.75-5.55
		c-0.59,0.42-1.23,0.77-1.93,1.01c-6.52,2.17-9.24,9.79-17.4,9.79c-8.15,0-21.75-2.72-13.59-17.4S111.61,45.63,121,52.55z
		 M81.68,41.68c1.98-3.4,10.79,2.92,14.57,5.85c-5.39,2.66-9.88,6.14-13.55,10.55C81.5,52.82,80,44.56,81.68,41.68z"/>
	<path class="st3" d="M187.7,159.42c0.76-3.45,1.42-7.12,1.99-10.93c1.48-9.88,2.32-20.66,2.53-30.93
		c-2.88,3.21-7.31,6.42-11.72,8.49c-0.34,14.9-4.41,31.51-10.62,41.75c-10.87,17.94-64.69,20.66-81.55,4.35
		c-8.93-8.64-14.08-26.97-13.94-44.2c-1.93-1.68-3.78-3.66-5.39-5.75c-0.57,34.14,0.38,53.92,8.82,62.75
		c0.88,0.92,1.84,1.74,2.9,2.43c0.17,0.11,0.39,0.22,0.58,0.32c2.6,1.48,7.17,2.8,13,3.86c17.82,3.23,47.21,3.95,66.98-1.01
		c4.77-1.2,8.97-2.73,12.31-4.63c0.44-0.25,0.87-0.51,1.28-0.77c1.98-1.28,3.62-2.69,4.8-4.29c0.07-0.1,0.14-0.22,0.21-0.31
		c0.16-0.22,0.31-0.46,0.46-0.69C183.36,175.22,185.82,168.01,187.7,159.42z"/>
	<path class="st1" d="M169.32,127.88c-8.47-3.37,5.06-7.1,8.4-12.09c0.54-0.8,1.23-1.69,2.01-2.59c-0.93-5.9-2.71-10.96-5.5-14.44
		c-10.87-13.59-71.22-15.77-85.9-6.52c-6,3.78-9.9,10.9-12.02,19.46c1.55,2.31,2.74,4.92,3.37,6.95c1.8,5.73,13.71,13.14,4.64,13.97
		c-2.9,0.27-6.53-1.71-9.93-4.67c-0.14,17.23,5.01,35.56,13.94,44.2c16.85,16.31,70.67,13.59,81.55-4.35
		c6.21-10.24,10.28-26.85,10.62-41.75C176.28,128.04,172.09,128.98,169.32,127.88z"/>
	<path class="st0" d="M91.65,65.6C83.49,80.28,97.08,83,105.24,83c8.15,0,10.87-7.61,17.4-9.79c0.7-0.23,1.34-0.59,1.93-1.01
		c-0.53-1.36-0.19-2.71,1.69-3.71c0.44-0.23,0.9-0.42,1.37-0.57c1.44-4.4-0.07-10.54-6.63-15.37C111.61,45.63,99.8,50.92,91.65,65.6
		z M104.28,61.57c1.01-0.65,2.35-0.37,3.01,0.63c1.38,2.12,2.87,3.25,4.41,3.34c2.32,0.12,4.71-2.06,5.36-2.84
		c0.77-0.92,2.14-1.04,3.06-0.27c0.92,0.77,1.04,2.14,0.27,3.06c-0.16,0.18-3.74,4.4-8.48,4.4c-0.16,0-0.31-0.01-0.47-0.01
		c-2.99-0.18-5.62-1.96-7.79-5.3C102.99,63.57,103.28,62.22,104.28,61.57z"/>
	<path class="st0" d="M146.54,75c6.16,3.06,7.79,10.98,15.87,12.11c8.08,1.13,21.91,0.33,15.88-15.34
		c-6.03-15.67-16.99-22.55-27.26-17C139.75,60.87,140.39,71.94,146.54,75z M150.88,63.6c1.03-0.62,2.37-0.3,2.99,0.73
		c1.31,2.16,2.75,3.33,4.29,3.47c2.32,0.27,4.73-1.85,5.47-2.67c0.8-0.89,2.17-0.97,3.07-0.16c0.89,0.8,0.97,2.17,0.17,3.06
		c-0.16,0.18-3.74,4.13-8.36,4.13c-0.24,0-0.48-0.01-0.73-0.03c-2.99-0.27-5.55-2.14-7.62-5.55
		C149.53,65.56,149.86,64.22,150.88,63.6z"/>
	<path class="st3" d="M124.57,72.21c0.93,2.38,4.58,4.8,7.75,5.55l-1.19,6.16c-5.26-1.25-9.05-5.89-9.09-5.95
		c-0.37-0.47-1.06-0.54-1.53-0.17c-0.47,0.38-0.54,1.06-0.17,1.53c0.23,0.28,5.62,6.92,13.09,7.07c0.08,0,0.17,0,0.26,0
		c4.25,0,8.25-2.12,11.89-6.31c0.39-0.45,0.34-1.14-0.11-1.54c-0.45-0.39-1.14-0.34-1.54,0.11c-3.27,3.76-6.79,5.7-10.44,5.56
		c-0.07,0-0.13-0.01-0.19-0.01l1.2-6.19c4.59,0.05,8.78-2.88,8.45-5.53c-0.34-2.69-9.11-6.63-15.3-4.56
		c-0.47,0.16-0.94,0.34-1.37,0.57C124.38,69.5,124.03,70.84,124.57,72.21z"/>
	<path class="st2" d="M74.39,127.95c3.4,2.96,7.04,4.94,9.93,4.67c9.08-0.83-2.84-8.24-4.64-13.97c-0.64-2.03-1.82-4.64-3.37-6.95
		c-1.87-2.78-4.29-5.09-6.97-5.37c-1.36-0.15-2.79,0.2-4.25,1.32c-3.06,2.35-0.53,8.8,3.91,14.55
		C70.61,124.29,72.46,126.28,74.39,127.95z"/>
	<path class="st2" d="M179.73,113.2c-0.78,0.9-1.47,1.78-2.01,2.59c-3.34,4.99-16.87,8.72-8.4,12.09c2.78,1.1,6.96,0.16,11.18-1.82
		c4.41-2.07,8.84-5.28,11.72-8.49c2.76-3.08,4.1-6.14,2.61-8.2c-0.79-1.08-1.67-1.75-2.61-2.14
		C188.16,105.51,183.04,109.41,179.73,113.2z"/>
	<path class="st0" d="M157.77,72.13c0.24,0.02,0.49,0.03,0.73,0.03c4.62,0,8.2-3.95,8.36-4.13c0.8-0.89,0.72-2.26-0.17-3.06
		c-0.89-0.8-2.26-0.73-3.07,0.16c-0.74,0.82-3.15,2.93-5.47,2.67c-1.53-0.14-2.97-1.31-4.29-3.47c-0.62-1.03-1.96-1.35-2.99-0.73
		c-1.03,0.62-1.35,1.96-0.73,2.99C152.22,69.99,154.79,71.86,157.77,72.13z"/>
	<path class="st0" d="M111.44,69.88c0.16,0.01,0.31,0.01,0.47,0.01c4.75,0,8.33-4.22,8.48-4.4c0.77-0.92,0.65-2.29-0.27-3.06
		c-0.93-0.77-2.29-0.65-3.06,0.27c-0.65,0.78-3.04,2.95-5.36,2.84c-1.54-0.09-3.02-1.21-4.41-3.34c-0.66-1-2-1.29-3.01-0.63
		c-1.01,0.66-1.29,2-0.63,3.01C105.83,67.92,108.45,69.7,111.44,69.88z"/>
	<path class="st2" d="M165.5,68.62l-8.15-2.06l3.91-2.46c1.02-0.64,1.32-1.98,0.68-3c-0.64-1.02-1.98-1.33-3-0.68l-8.22,5.16
		c-0.74,0.46-1.13,1.32-0.99,2.18c0.13,0.86,0.77,1.56,1.61,1.77l13.08,3.31c0.12,0.03,0.23,0.05,0.35,0.06
		c1.04,0.09,2.03-0.59,2.29-1.63C167.37,70.1,166.66,68.92,165.5,68.62z"/>
	<path class="st2" d="M121.95,63.65l-7.7-5.57c-0.98-0.71-2.33-0.49-3.04,0.49c-0.7,0.97-0.49,2.33,0.49,3.04l4.63,3.35l-7.44,3.26
		c-1.1,0.48-1.6,1.77-1.12,2.86c0.33,0.76,1.04,1.23,1.81,1.29c0.35,0.03,0.71-0.02,1.06-0.18l10.92-4.79
		c0.72-0.31,1.21-0.99,1.29-1.76C122.92,64.87,122.59,64.11,121.95,63.65z"/>
	<path class="st2" d="M124.39,71.87c0.87,2.22,4.12,4.49,7.13,5.38l-0.18,1.66c-3.19-0.24-6.91,0.6-10.98,3.6
		c-0.48,0.36-0.59,1.04-0.23,1.52c0.36,0.48,1.03,0.59,1.52,0.23c11.03-8.13,18.92,1.64,19.25,2.06c0.21,0.27,0.53,0.42,0.86,0.42
		c0.24,0,0.47-0.08,0.67-0.23c0.47-0.37,0.56-1.05,0.19-1.52c-0.06-0.07-3.54-4.42-9.12-5.73l0.17-1.59
		c4.83,0.35,9.43-2.74,9.09-5.5c-0.34-2.69-9.11-6.63-15.3-4.56c-0.47,0.16-0.94,0.34-1.37,0.57
		C124.2,69.16,123.85,70.5,124.39,71.87z"/>
	
		<ellipse transform="matrix(0.1662 -0.9861 0.9861 0.1662 25.0088 203.7101)" class="st2" cx="132.97" cy="87.07" rx="7.17" ry="4.75"/>
</g>
</svg>
