<?xml version="1.0" encoding="utf-8"?>
<!-- Generator: Adobe Illustrator 24.1.0, SVG Export Plug-In . SVG Version: 6.00 Build 0)  -->
<svg version="1.1" id="Layer_1" xmlns="http://www.w3.org/2000/svg" xmlns:xlink="http://www.w3.org/1999/xlink" x="0px" y="0px"
	 viewBox="0 0 250 214.6" enable-background="new 0 0 250 214.6" xml:space="preserve">
<g id="_x31_">
</g>
<g id="Designed_by_Vecteezy">
	<path fill="#393939" d="M209.1,174.3c-1.8,0.8-3.6,1.5-5.4,2.1C205.6,175.8,207.3,175.1,209.1,174.3z"/>
	<path fill="#393939" d="M189.9,179.6c-0.8,0.1-1.6,0.2-2.4,0.3C188.3,179.8,189.1,179.7,189.9,179.6z"/>
	<path fill="#393939" d="M222,165.6c-0.6,0.6-1.1,1.1-1.7,1.6C220.8,166.7,221.4,166.1,222,165.6z"/>
	<path fill="#393939" d="M184.6,180.2c-0.7,0.1-1.3,0.1-1.9,0.2C183.3,180.3,184,180.3,184.6,180.2z"/>
	<path fill="#393939" d="M200.8,177.3c-0.9,0.2-1.8,0.5-2.7,0.7C199.1,177.8,199.9,177.5,200.8,177.3z"/>
	<path fill="#393939" d="M223.6,163.8c-0.5,0.6-1,1.1-1.6,1.7C222.6,165,223.1,164.4,223.6,163.8z"/>
	<path fill="#393939" d="M180.3,179.8c-0.1,0.2-0.3,0.5-0.5,0.7c0.8,0,1.7-0.1,2.6-0.1c-0.7,0.1-1.4,0.1-2.1,0.1
		C180.3,180.3,180.3,180.1,180.3,179.8z"/>
	<path fill="#393939" d="M187,180c-0.6,0.1-1.3,0.1-1.9,0.2C185.7,180.1,186.4,180.1,187,180z"/>
	<path fill="#393939" d="M203.5,176.4c-0.9,0.3-1.7,0.6-2.5,0.8C201.9,177,202.7,176.7,203.5,176.4z"/>
	<path fill="#393939" d="M192.6,148.1c1-0.1,2-0.2,3-0.2C194.6,148,193.6,148,192.6,148.1z"/>
	<path fill="#393939" d="M226.9,157.3C226.9,157.4,226.9,157.4,226.9,157.3C226.9,157.4,226.9,157.4,226.9,157.3z"/>
	<path fill="#393939" d="M225.9,155.6c0.1,0.1,0.1,0.2,0.2,0.3C226.1,155.7,226,155.6,225.9,155.6z"/>
	<path fill="#393939" d="M226.5,156.3c0.1,0.1,0.1,0.2,0.1,0.2C226.6,156.5,226.5,156.4,226.5,156.3z"/>
	<path fill="#393939" d="M225.2,154.8c0.1,0.1,0.1,0.1,0.2,0.2C225.3,154.9,225.3,154.9,225.2,154.8z"/>
	<path fill="#393939" d="M216.8,150.5c-3.6-1.1-7.8-2-12.5-2.4c2.6,7,4.9,16.3,4.8,26.2c4-1.8,7.8-4.1,11.1-7.1
		C220.8,162.7,220.6,156.2,216.8,150.5z"/>
	<path fill="#393939" d="M226.9,159.1c0-0.1,0-0.1,0.1-0.2C226.9,158.9,226.9,159,226.9,159.1z"/>
	<path fill="#393939" d="M224,153.9c0.1,0.1,0.3,0.2,0.4,0.3C224.3,154.1,224.1,153.9,224,153.9z"/>
	<path fill="#393939" d="M227,158.1c0,0.1,0,0.2,0,0.2C227,158.2,227,158.2,227,158.1z"/>
	<path fill="#393939" d="M218.4,151c0.3,0.1,0.5,0.2,0.8,0.3C218.9,151.2,218.6,151.1,218.4,151z"/>
	<path fill="#393939" d="M216.8,150.5c0.3,0.1,0.5,0.2,0.8,0.3C217.3,150.6,217.1,150.6,216.8,150.5z"/>
	<path fill="#393939" d="M225.1,161.9c-0.4,0.5-0.7,0.9-1.1,1.4C224.4,162.9,224.7,162.4,225.1,161.9z"/>
	<path fill="#393939" d="M198.6,147.8c2,0,3.9,0.1,5.8,0.2C202.5,147.9,200.5,147.8,198.6,147.8z"/>
	<path fill="#393939" d="M195.6,147.9c1-0.1,2-0.1,2.9-0.1C197.6,147.8,196.6,147.9,195.6,147.9z"/>
	<path fill="#393939" d="M189.7,148.5c-0.6,3.8-1.2,7.5-2,10.9c1.5,6.1,2.5,13.1,2.2,20.2c2.7-0.4,5.4-0.9,8.2-1.6
		c-0.3-7.4-1.4-20.8-5.6-29.9C191.6,148.2,190.6,148.4,189.7,148.5z"/>
	<path fill="#393939" d="M219.9,151.6c0.2,0.1,0.5,0.2,0.7,0.3C220.3,151.8,220.1,151.7,219.9,151.6z"/>
	<path fill="#393939" d="M222.9,153.1c0.2,0.1,0.3,0.2,0.5,0.3C223.2,153.4,223.1,153.2,222.9,153.1z"/>
	<path fill="#393939" d="M221.6,152.4c0.2,0.1,0.4,0.2,0.6,0.3C222,152.6,221.9,152.5,221.6,152.4z"/>
	<path fill="#A5A5A5" d="M227,158.3c0-0.1,0-0.2,0-0.2c0-0.2,0-0.4-0.1-0.7c0,0,0-0.1,0-0.1c-0.1-0.2-0.2-0.5-0.3-0.7
		c0-0.1-0.1-0.2-0.1-0.2c-0.1-0.2-0.2-0.3-0.3-0.5c-0.1-0.1-0.1-0.2-0.2-0.3c-0.1-0.2-0.3-0.4-0.5-0.5c-0.1-0.1-0.1-0.1-0.2-0.2
		c-0.2-0.2-0.5-0.4-0.8-0.7c-0.1-0.1-0.3-0.2-0.4-0.3c-0.2-0.1-0.4-0.3-0.6-0.4c-0.2-0.1-0.3-0.2-0.5-0.3c-0.2-0.1-0.4-0.3-0.7-0.4
		c-0.2-0.1-0.4-0.2-0.6-0.3c-0.4-0.2-0.7-0.4-1.1-0.5c-0.2-0.1-0.4-0.2-0.7-0.3c-0.2-0.1-0.5-0.2-0.7-0.3s-0.5-0.2-0.8-0.3
		c-0.3-0.1-0.5-0.2-0.8-0.3s-0.5-0.2-0.8-0.3l0,0l0,0c3.8,5.8,4,12.2,3.4,16.7l0,0l0,0c0.6-0.5,1.2-1.1,1.7-1.6c0,0,0,0,0.1-0.1
		c0.5-0.5,1.1-1.1,1.6-1.7c0.1-0.2,0.3-0.3,0.4-0.5c0.4-0.5,0.8-0.9,1.1-1.4c0.5-0.7,1-1.4,1.4-2.1c0.1-0.2,0.3-0.5,0.3-0.7
		c0-0.1,0-0.1,0.1-0.2C227,158.7,227,158.5,227,158.3z"/>
	<path fill="#A5A5A5" d="M204.4,148.1L204.4,148.1c-1.9-0.2-3.8-0.2-5.8-0.2c0,0,0,0,0,0c-1,0-1.9,0-2.9,0.1c0,0-0.1,0-0.1,0
		c-1,0.1-2,0.1-3,0.2h0l0,0c4.2,9,5.3,22.5,5.6,29.9l0,0l0,0c0.9-0.2,1.8-0.5,2.7-0.7c0.1,0,0.1,0,0.2,0c0.9-0.2,1.7-0.5,2.5-0.8
		c0.1,0,0.1,0,0.2-0.1c1.8-0.6,3.6-1.3,5.4-2.1c0,0,0,0,0,0l0,0C209.3,164.3,206.9,155.1,204.4,148.1L204.4,148.1z"/>
	<path fill="#A5A5A5" d="M187.7,159.4c-1.9,8.6-4.3,15.8-7.4,20.4c0,0.2,0,0.5,0,0.7c0.7,0,1.4-0.1,2.1-0.1c0.1,0,0.2,0,0.2,0
		c0.6,0,1.3-0.1,1.9-0.2c0.1,0,0.3,0,0.4,0c0.6-0.1,1.3-0.1,1.9-0.2c0.2,0,0.3,0,0.5-0.1c0.8-0.1,1.6-0.2,2.4-0.3c0,0,0.1,0,0.1,0
		l0,0C190.2,172.5,189.2,165.5,187.7,159.4z"/>
	<path fill="#191919" d="M94.3,200.1c4.9,0.6,2.5-3.9-0.1-8.6c-5.8-1.1-10.4-2.4-13-3.9C84.5,193,89.4,199.5,94.3,200.1z"/>
	<path fill="#191919" d="M161.8,199.9c4.9-1.1,9.2-8.4,11.8-14c-3.4,1.9-7.5,3.4-12.3,4.6C159.1,195.8,156.6,201.1,161.8,199.9z"/>
	<path fill="#393939" d="M96.2,47.5c-3.8-2.9-12.6-9.2-14.6-5.8c-1.7,2.9-0.2,11.1,1,16.4C86.4,53.7,90.9,50.2,96.2,47.5z"/>
	<path fill="#393939" d="M181.2,65.6c2.1-4.5,6.3-14.3,5.1-17.9c-1.6-4.8-17.4,4-17.4,4l0.1,0.1C174.1,55.9,178,60.7,181.2,65.6z"/>
	<path fill="#878787" d="M76.3,111.7c2.1-8.6,6-15.7,12-19.5c14.7-9.2,75-7.1,85.9,6.5c2.8,3.5,4.6,8.6,5.5,14.4
		c3.3-3.8,8.4-7.7,12.5-6c-0.3-13.9-2-25.7-4.9-31.3c-0.6-1.1-1.1-2.1-1.7-3.2c2.8-5.8,11.8-25.5,6-31c-6.9-6.5-28.5,5.9-28.5,5.9
		l0.2,0.3c-8.6-5.1-20.1-8.2-35.8-7.3c-9.4,0.5-17.5,1.9-24.5,4.2c-4.6-3.7-18.7-14.2-25.3-10C71,39,75.7,59.3,77.5,66
		c-5.1,9.9-7.6,23.1-8.1,40.3C72,106.6,74.4,108.9,76.3,111.7z M168.9,51.7c0,0,15.8-8.7,17.4-4c1.2,3.6-2.9,13.4-5.1,17.9
		c-3.2-4.9-7.2-9.7-12.3-13.8L168.9,51.7z M151,54.8c10.3-5.5,21.2,1.3,27.3,17c6,15.7-7.8,16.5-15.9,15.3
		c-8.1-1.1-9.7-9.1-15.9-12.1C140.4,71.9,139.8,60.9,151,54.8z M121,52.5c6.6,4.8,8.1,11,6.6,15.4c6.2-2.1,15,1.9,15.3,4.6
		c0.3,2.6-3.9,5.6-8.4,5.5l-1.2,6.2c0.1,0,0.1,0,0.2,0c3.6,0.1,7.2-1.8,10.4-5.6c0.4-0.4,1.1-0.5,1.5-0.1c0.4,0.4,0.5,1.1,0.1,1.5
		c-3.6,4.2-7.6,6.3-11.9,6.3c-0.1,0-0.2,0-0.3,0c-7.5-0.2-12.9-6.8-13.1-7.1c-0.4-0.5-0.3-1.2,0.2-1.5s1.2-0.3,1.5,0.2
		c0,0.1,3.8,4.7,9.1,5.9l1.2-6.2c-3.2-0.8-6.8-3.2-7.8-5.6c-0.6,0.4-1.2,0.8-1.9,1c-6.5,2.2-9.2,9.8-17.4,9.8
		c-8.2,0-21.8-2.7-13.6-17.4S111.6,45.6,121,52.5z M81.7,41.7c2-3.4,10.8,2.9,14.6,5.8c-5.4,2.7-9.9,6.1-13.6,10.5
		C81.5,52.8,80,44.6,81.7,41.7z"/>
	<path fill="#878787" d="M187.7,159.4c0.8-3.4,1.4-7.1,2-10.9c1.5-9.9,2.3-20.7,2.5-30.9c-2.9,3.2-7.3,6.4-11.7,8.5
		c-0.3,14.9-4.4,31.5-10.6,41.8c-10.9,17.9-64.7,20.7-81.6,4.4c-8.9-8.6-14.1-27-13.9-44.2c-1.9-1.7-3.8-3.7-5.4-5.8
		c-0.6,34.1,0.4,53.9,8.8,62.8c0.9,0.9,1.8,1.7,2.9,2.4c0.2,0.1,0.4,0.2,0.6,0.3c2.6,1.5,7.2,2.8,13,3.9c17.8,3.2,47.2,3.9,67-1
		c4.8-1.2,9-2.7,12.3-4.6c0.4-0.2,0.9-0.5,1.3-0.8c2-1.3,3.6-2.7,4.8-4.3c0.1-0.1,0.1-0.2,0.2-0.3c0.2-0.2,0.3-0.5,0.5-0.7
		C183.4,175.2,185.8,168,187.7,159.4z"/>
	<path fill="#A5A5A5" d="M169.3,127.9c-8.5-3.4,5.1-7.1,8.4-12.1c0.5-0.8,1.2-1.7,2-2.6c-0.9-5.9-2.7-11-5.5-14.4
		C163.4,85.2,103,83,88.3,92.2c-6,3.8-9.9,10.9-12,19.5c1.6,2.3,2.7,4.9,3.4,6.9c1.8,5.7,13.7,13.1,4.6,14c-2.9,0.3-6.5-1.7-9.9-4.7
		c-0.1,17.2,5,35.6,13.9,44.2c16.8,16.3,70.7,13.6,81.6-4.4c6.2-10.2,10.3-26.9,10.6-41.8C176.3,128,172.1,129,169.3,127.9z"/>
	<path fill="#393939" d="M91.7,65.6C83.5,80.3,97.1,83,105.2,83c8.2,0,10.9-7.6,17.4-9.8c0.7-0.2,1.3-0.6,1.9-1
		c-0.5-1.4-0.2-2.7,1.7-3.7c0.4-0.2,0.9-0.4,1.4-0.6c1.4-4.4-0.1-10.5-6.6-15.4C111.6,45.6,99.8,50.9,91.7,65.6z M104.3,61.6
		c1-0.7,2.3-0.4,3,0.6c1.4,2.1,2.9,3.2,4.4,3.3c2.3,0.1,4.7-2.1,5.4-2.8c0.8-0.9,2.1-1,3.1-0.3s1,2.1,0.3,3.1
		c-0.2,0.2-3.7,4.4-8.5,4.4c-0.2,0-0.3,0-0.5,0c-3-0.2-5.6-2-7.8-5.3C103,63.6,103.3,62.2,104.3,61.6z"/>
	<path fill="#393939" d="M146.5,75c6.2,3.1,7.8,11,15.9,12.1c8.1,1.1,21.9,0.3,15.9-15.3s-17-22.5-27.3-17
		C139.8,60.9,140.4,71.9,146.5,75z M150.9,63.6c1-0.6,2.4-0.3,3,0.7c1.3,2.2,2.8,3.3,4.3,3.5c2.3,0.3,4.7-1.8,5.5-2.7
		c0.8-0.9,2.2-1,3.1-0.2c0.9,0.8,1,2.2,0.2,3.1c-0.2,0.2-3.7,4.1-8.4,4.1c-0.2,0-0.5,0-0.7,0c-3-0.3-5.6-2.1-7.6-5.6
		C149.5,65.6,149.9,64.2,150.9,63.6z"/>
	<path fill="#878787" d="M124.6,72.2c0.9,2.4,4.6,4.8,7.8,5.6l-1.2,6.2c-5.3-1.2-9.1-5.9-9.1-5.9c-0.4-0.5-1.1-0.5-1.5-0.2
		c-0.5,0.4-0.5,1.1-0.2,1.5c0.2,0.3,5.6,6.9,13.1,7.1c0.1,0,0.2,0,0.3,0c4.2,0,8.2-2.1,11.9-6.3c0.4-0.4,0.3-1.1-0.1-1.5
		c-0.4-0.4-1.1-0.3-1.5,0.1c-3.3,3.8-6.8,5.7-10.4,5.6c-0.1,0-0.1,0-0.2,0l1.2-6.2c4.6,0.1,8.8-2.9,8.4-5.5
		c-0.3-2.7-9.1-6.6-15.3-4.6c-0.5,0.2-0.9,0.3-1.4,0.6C124.4,69.5,124,70.8,124.6,72.2z"/>
	<path fill="#191919" d="M74.4,127.9c3.4,3,7,4.9,9.9,4.7c9.1-0.8-2.8-8.2-4.6-14c-0.6-2-1.8-4.6-3.4-6.9c-1.9-2.8-4.3-5.1-7-5.4
		c-1.4-0.2-2.8,0.2-4.2,1.3c-3.1,2.3-0.5,8.8,3.9,14.6C70.6,124.3,72.5,126.3,74.4,127.9z"/>
	<path fill="#191919" d="M179.7,113.2c-0.8,0.9-1.5,1.8-2,2.6c-3.3,5-16.9,8.7-8.4,12.1c2.8,1.1,7,0.2,11.2-1.8
		c4.4-2.1,8.8-5.3,11.7-8.5c2.8-3.1,4.1-6.1,2.6-8.2c-0.8-1.1-1.7-1.8-2.6-2.1C188.2,105.5,183,109.4,179.7,113.2z"/>
	<path fill="#393939" d="M157.8,72.1c0.2,0,0.5,0,0.7,0c4.6,0,8.2-3.9,8.4-4.1c0.8-0.9,0.7-2.3-0.2-3.1c-0.9-0.8-2.3-0.7-3.1,0.2
		c-0.7,0.8-3.1,2.9-5.5,2.7c-1.5-0.1-3-1.3-4.3-3.5c-0.6-1-2-1.3-3-0.7s-1.4,2-0.7,3C152.2,70,154.8,71.9,157.8,72.1z"/>
	<path fill="#393939" d="M111.4,69.9c0.2,0,0.3,0,0.5,0c4.8,0,8.3-4.2,8.5-4.4c0.8-0.9,0.7-2.3-0.3-3.1c-0.9-0.8-2.3-0.7-3.1,0.3
		c-0.7,0.8-3,2.9-5.4,2.8c-1.5-0.1-3-1.2-4.4-3.3c-0.7-1-2-1.3-3-0.6s-1.3,2-0.6,3C105.8,67.9,108.4,69.7,111.4,69.9z"/>
	<path fill="#191919" d="M165.5,68.6l-8.1-2.1l3.9-2.5c1-0.6,1.3-2,0.7-3c-0.6-1-2-1.3-3-0.7l-8.2,5.2c-0.7,0.5-1.1,1.3-1,2.2
		c0.1,0.9,0.8,1.6,1.6,1.8l13.1,3.3c0.1,0,0.2,0.1,0.4,0.1c1,0.1,2-0.6,2.3-1.6C167.4,70.1,166.7,68.9,165.5,68.6z"/>
	<path fill="#191919" d="M121.9,63.7l-7.7-5.6c-1-0.7-2.3-0.5-3,0.5c-0.7,1-0.5,2.3,0.5,3l4.6,3.4l-7.4,3.3
		c-1.1,0.5-1.6,1.8-1.1,2.9c0.3,0.8,1,1.2,1.8,1.3c0.3,0,0.7,0,1.1-0.2l10.9-4.8c0.7-0.3,1.2-1,1.3-1.8
		C122.9,64.9,122.6,64.1,121.9,63.7z"/>
	<path fill="#191919" d="M124.4,71.9c0.9,2.2,4.1,4.5,7.1,5.4l-0.2,1.7c-3.2-0.2-6.9,0.6-11,3.6c-0.5,0.4-0.6,1-0.2,1.5
		c0.4,0.5,1,0.6,1.5,0.2c11-8.1,18.9,1.6,19.2,2.1c0.2,0.3,0.5,0.4,0.9,0.4c0.2,0,0.5-0.1,0.7-0.2c0.5-0.4,0.6-1.1,0.2-1.5
		c-0.1-0.1-3.5-4.4-9.1-5.7l0.2-1.6c4.8,0.3,9.4-2.7,9.1-5.5c-0.3-2.7-9.1-6.6-15.3-4.6c-0.5,0.2-0.9,0.3-1.4,0.6
		C124.2,69.2,123.8,70.5,124.4,71.9z"/>
	
		<ellipse transform="matrix(0.1662 -0.9861 0.9861 0.1662 25.0204 203.7091)" fill="#191919" cx="133" cy="87.1" rx="7.2" ry="4.8"/>
</g>
</svg>
