<?xml version="1.0" encoding="utf-8"?>
<!-- Generator: Adobe Illustrator 24.1.0, SVG Export Plug-In . SVG Version: 6.00 Build 0)  -->
<svg version="1.1" xmlns="http://www.w3.org/2000/svg" xmlns:xlink="http://www.w3.org/1999/xlink" x="0px" y="0px"
	 viewBox="0 0 250 250" style="enable-background:new 0 0 250 250;" xml:space="preserve">
<style type="text/css">
	.st0{fill:#393939;}
	.st1{fill:#A5A5A5;}
	.st2{fill:#191919;}
	.st3{fill:#878787;}
</style>
<g id="_x31_">
</g>
<g id="Designed_by_Vecteezy">
	<g>
		<path class="st0" d="M140.12,164.27c0.48,1.66,0.86,3.35,1.14,5.06c-0.63-3.79-1.71-7.51-3.36-11.03l-2.04-0.35
			c-6.21-0.12-13.59-0.95-22.27-2.3c-0.46,2.06-1.27,6.12-1.82,11.29c0.08-0.72,0.16-1.42,0.24-2.09
			C119.97,166.14,131.5,167.31,140.12,164.27z"/>
		<path class="st0" d="M141.86,174.47c-8,1.41-19.4,2.44-30.59,0c-0.08,2.68-0.04,5.51,0.16,8.39c7.31,0.99,20.77,2.22,30.37-0.36
			C142,179.85,142.03,177.16,141.86,174.47z"/>
		<path class="st0" d="M130.75,212.46c-0.12,0.12-0.24,0.24-0.35,0.34C130.51,212.69,130.63,212.57,130.75,212.46z"/>
		<path class="st0" d="M133.67,208.77c-0.14,0.21-0.27,0.42-0.41,0.62C133.4,209.19,133.53,208.98,133.67,208.77z"/>
		<path class="st0" d="M135.33,205.95c-0.13,0.25-0.27,0.48-0.4,0.73C135.06,206.43,135.2,206.2,135.33,205.95z"/>
		<path class="st0" d="M134.52,207.4c-0.14,0.24-0.28,0.47-0.42,0.7C134.23,207.87,134.37,207.64,134.52,207.4z"/>
		<path class="st0" d="M113.2,194.25c1.09,4.27,2.72,8.41,5.05,12.18c4.35,1.36,10.76,2.3,17.08-0.49
			c1.75-3.31,3.33-7.36,4.52-11.85C132.47,195.42,122.96,196.16,113.2,194.25z"/>
		<path class="st0" d="M131.64,211.51c-0.13,0.15-0.26,0.29-0.39,0.43C131.38,211.8,131.51,211.66,131.64,211.51z"/>
		<path class="st0" d="M132.56,210.36c-0.14,0.19-0.29,0.37-0.43,0.55C132.28,210.73,132.42,210.55,132.56,210.36z"/>
		<path class="st0" d="M111.58,169.11c0.06-0.66,0.11-1.3,0.18-1.93C111.69,167.81,111.63,168.45,111.58,169.11z"/>
		<path class="st0" d="M119.57,208.42c-0.46-0.65-0.9-1.31-1.31-1.98C118.67,207.11,119.1,207.78,119.57,208.42z"/>
		<path class="st0" d="M112.03,188.38c-0.13-0.88-0.24-1.75-0.34-2.63C111.79,186.63,111.9,187.51,112.03,188.38z"/>
		<path class="st0" d="M113.2,194.25c-0.48-1.87-0.85-3.75-1.13-5.64C112.35,190.5,112.72,192.38,113.2,194.25z"/>
		<path class="st0" d="M121.01,210.31c-0.49-0.6-0.96-1.21-1.4-1.83C120.05,209.1,120.52,209.71,121.01,210.31z"/>
		<path class="st0" d="M111.27,174.36c0.02-0.8,0.06-1.59,0.1-2.36C111.33,172.77,111.3,173.56,111.27,174.36z"/>
		<path class="st0" d="M122.62,212.13c-0.42-0.44-0.81-0.9-1.2-1.36C121.81,211.23,122.2,211.69,122.62,212.13z"/>
		<path class="st0" d="M111.41,171.5c0.04-0.65,0.08-1.29,0.13-1.91C111.49,170.21,111.45,170.85,111.41,171.5z"/>
		<path class="st0" d="M111.67,185.59c-0.1-0.91-0.18-1.82-0.24-2.73C111.49,183.77,111.57,184.68,111.67,185.59z"/>
		<path class="st1" d="M118.25,206.43L118.25,206.43C118.25,206.44,118.25,206.44,118.25,206.43c0.42,0.68,0.86,1.34,1.32,1.99
			c0.01,0.02,0.03,0.04,0.04,0.05c0.45,0.62,0.91,1.24,1.4,1.83c0.13,0.16,0.27,0.31,0.41,0.46c0.39,0.46,0.78,0.92,1.2,1.36
			c0.58,0.6,1.18,1.19,1.81,1.76c0.22,0.19,0.44,0.34,0.67,0.47c0.07,0.04,0.14,0.07,0.21,0.1c0.17,0.08,0.35,0.14,0.52,0.18
			c0.08,0.02,0.15,0.04,0.23,0.05c0.22,0.03,0.45,0.05,0.68,0.03c0.03,0,0.06,0,0.09,0c0.25-0.02,0.52-0.09,0.78-0.17
			c0.09-0.03,0.18-0.07,0.27-0.1c0.18-0.07,0.37-0.15,0.56-0.25c0.1-0.05,0.2-0.1,0.3-0.16c0.21-0.12,0.41-0.26,0.62-0.4
			c0.07-0.05,0.15-0.1,0.22-0.15c0.27-0.2,0.53-0.43,0.8-0.68c0.12-0.11,0.24-0.23,0.35-0.34c0.17-0.16,0.33-0.34,0.5-0.52
			c0.13-0.14,0.26-0.28,0.39-0.43c0.17-0.19,0.33-0.4,0.5-0.6c0.14-0.18,0.29-0.36,0.43-0.55c0.23-0.31,0.46-0.63,0.69-0.97
			c0.14-0.2,0.27-0.41,0.41-0.62c0.14-0.22,0.28-0.44,0.42-0.67c0.14-0.23,0.28-0.46,0.42-0.7c0.14-0.24,0.28-0.48,0.41-0.73
			c0.13-0.24,0.27-0.48,0.4-0.73c0,0,0,0,0,0l0,0C129.01,208.74,122.6,207.79,118.25,206.43z"/>
		<path class="st1" d="M139.85,194.09C139.85,194.09,139.85,194.09,139.85,194.09c0.48-1.82,0.89-3.71,1.22-5.65
			c0-0.01,0-0.01,0-0.02c0.16-0.96,0.3-1.92,0.43-2.9c0-0.02,0.01-0.05,0.01-0.07c0.12-0.98,0.22-1.96,0.29-2.96c0,0,0-0.01,0-0.01
			l0,0c-9.6,2.58-23.06,1.35-30.37,0.36l0,0c0,0,0,0.01,0,0.01c0.06,0.91,0.14,1.82,0.24,2.73c0.01,0.06,0.01,0.11,0.02,0.17
			c0.1,0.87,0.21,1.75,0.34,2.63c0.01,0.08,0.02,0.15,0.03,0.23c0.29,1.88,0.66,3.77,1.13,5.64c0,0,0,0,0,0l0,0
			C122.96,196.16,132.47,195.42,139.85,194.09L139.85,194.09z"/>
		<path class="st1" d="M141.86,174.47L141.86,174.47C141.86,174.46,141.86,174.46,141.86,174.47c-0.05-0.85-0.13-1.69-0.23-2.54
			c0-0.02,0-0.04-0.01-0.06c-0.1-0.85-0.22-1.69-0.36-2.54c0,0,0-0.01,0-0.01c-0.29-1.7-0.67-3.39-1.14-5.06
			c-8.62,3.04-20.16,1.87-28.1,0.58c-0.08,0.67-0.16,1.37-0.24,2.09c-0.01,0.08-0.02,0.16-0.02,0.24c-0.06,0.63-0.12,1.27-0.18,1.93
			c-0.01,0.16-0.03,0.31-0.04,0.47c-0.05,0.62-0.09,1.27-0.13,1.91c-0.01,0.17-0.02,0.33-0.03,0.5c-0.04,0.77-0.08,1.56-0.1,2.36
			c0,0.04,0,0.07,0,0.1l0,0C122.46,176.91,133.86,175.88,141.86,174.47z"/>
	</g>
	<path class="st2" d="M85.08,198.57c6.06,3.03,2.47-7.38,2.13-13.67c-2.45-0.73-4.43-1.52-5.72-2.37c-2.16-1.41-3.94-3.32-5.42-5.74
		c0.22,1.75,0.62,4.39,1.27,7.26C78.66,189.85,81.01,196.54,85.08,198.57z"/>
	<path class="st2" d="M167.98,183.93c0.51,5.8-4.54,18.8,2.14,15.46c4-2,6.34-8.51,7.67-14.24c0.7-3.04,1.13-5.85,1.35-7.65
		C176.58,180.13,172.72,182.25,167.98,183.93z"/>
	<path class="st0" d="M97.02,42.69c-3.77-2.94-12.59-9.25-14.57-5.85c-1.68,2.88-0.18,11.14,1.02,16.41
		C87.15,48.83,91.63,45.35,97.02,42.69z"/>
	<path class="st0" d="M181.98,60.71c2.1-4.5,6.3-14.26,5.05-17.87c-1.65-4.76-17.4,3.97-17.4,3.97l0.09,0.13
		C174.82,51.02,178.75,55.83,181.98,60.71z"/>
	<path class="st0" d="M47.04,183.58c-0.08,0.06-0.15,0.1-0.22,0.15C46.89,183.68,46.97,183.64,47.04,183.58z"/>
	<path class="st0" d="M45.33,184.54c-0.09,0.03-0.18,0.07-0.27,0.1C45.15,184.62,45.24,184.58,45.33,184.54z"/>
	<path class="st0" d="M44.28,184.81c-0.03,0-0.06,0-0.09,0C44.23,184.81,44.25,184.81,44.28,184.81z"/>
	<path class="st0" d="M43.52,184.78c-0.08-0.01-0.15-0.03-0.23-0.05C43.37,184.75,43.44,184.77,43.52,184.78z"/>
	<path class="st0" d="M42.77,184.55c-0.07-0.03-0.14-0.06-0.21-0.1C42.63,184.49,42.7,184.52,42.77,184.55z"/>
	<path class="st0" d="M46.19,184.14c-0.1,0.06-0.2,0.11-0.3,0.16C45.99,184.25,46.09,184.2,46.19,184.14z"/>
	<path class="st3" d="M76.08,176.79c1.47,2.42,3.26,4.33,5.42,5.74c1.29,0.84,3.27,1.64,5.72,2.37c16.98,5.06,58.52,6.93,80.77-0.97
		c4.73-1.68,8.6-3.8,11.16-6.43c0.47-0.48,0.91-0.98,1.29-1.49c7.27-9.88,11.42-34.52,12.39-57.8c-3.29,5.68-8,10.76-12.12,11.42
		c-1.36,12.43-5,25-10.06,33.34c-10.87,17.94-64.69,20.66-81.55,4.35c-8.69-8.41-13.79-25.99-13.93-42.81
		c-2.05-1.72-3.91-4.58-5.39-7.86c-0.14,8.31-0.2,15.78-0.08,22.46c0.15,8.78,0.6,16.2,1.53,22.34
		C72.22,167.92,73.76,173,76.08,176.79z"/>
	<path class="st3" d="M78.23,102.86c2.27-6.76,5.84-12.29,10.88-15.46c14.68-9.24,75.02-7.07,85.9,6.52
		c4.29,5.36,6.2,14.45,6.29,24.59c0.58-1.18,1.03-2.33,1.17-3.37c0.73-5.38,4.29-15.11,10.49-14c-0.4-13.36-2.02-24.66-4.9-30.06
		c-0.56-1.05-1.14-2.12-1.74-3.21c2.82-5.79,11.78-25.49,5.96-31.03c-6.85-6.51-28.48,5.86-28.48,5.86l0.25,0.31
		c-8.64-5.08-20.08-8.17-35.79-7.28c-9.43,0.54-17.54,1.88-24.46,4.2c-4.61-3.7-18.7-14.2-25.32-10
		c-6.65,4.23-1.96,24.56-0.22,31.22c-4.48,8.68-6.99,19.94-7.86,34.25C74.85,94.7,77.19,98.46,78.23,102.86z M169.63,46.82
		c0,0,15.75-8.73,17.4-3.97c1.25,3.61-2.95,13.36-5.05,17.87c-3.23-4.88-7.16-9.68-12.26-13.76L169.63,46.82z M151.81,49.93
		c10.27-5.55,21.22,1.33,27.26,17c6.03,15.67-7.8,16.47-15.88,15.34c-8.08-1.13-9.71-9.05-15.87-12.11
		C141.16,67.1,140.52,56.03,151.81,49.93z M121.78,47.71c6.56,4.83,8.06,10.97,6.63,15.37c6.19-2.07,14.96,1.87,15.3,4.56
		c0.33,2.64-3.86,5.58-8.45,5.53l-1.2,6.19c0.07,0,0.13,0.01,0.2,0.01c0.07,0,0.13,0,0.2,0c3.6,0,7.04-1.87,10.25-5.57
		c0.4-0.45,1.08-0.5,1.54-0.11c0.45,0.4,0.5,1.08,0.11,1.54c-3.64,4.19-7.64,6.31-11.89,6.31c-0.09,0-0.17,0-0.26,0
		c-7.46-0.15-12.86-6.79-13.09-7.07c-0.37-0.47-0.3-1.15,0.17-1.53c0.47-0.37,1.15-0.3,1.53,0.17c0.04,0.05,3.83,4.7,9.09,5.95
		l1.19-6.16c-3.17-0.75-6.82-3.18-7.75-5.55c-0.59,0.42-1.23,0.77-1.93,1.01c-6.52,2.17-9.24,9.79-17.4,9.79
		c-8.15,0-21.75-2.72-13.59-17.4S112.38,40.79,121.78,47.71z M82.46,36.84c1.98-3.4,10.79,2.92,14.57,5.85
		c-5.39,2.66-9.88,6.14-13.55,10.55C82.27,47.98,80.78,39.72,82.46,36.84z"/>
	<path class="st1" d="M181.29,118.51c-0.08-10.14-2-19.23-6.29-24.59c-10.87-13.59-71.22-15.77-85.9-6.52
		c-5.04,3.17-8.61,8.7-10.88,15.46c0.69,2.94,0.81,6.14,0.6,8.46c-0.54,5.98,7.61,17.4-1.09,14.68c-0.88-0.28-1.74-0.8-2.57-1.49
		c0.14,16.82,5.24,34.4,13.93,42.81c16.85,16.31,70.67,13.59,81.55-4.35c5.05-8.34,8.7-20.91,10.06-33.34
		c-0.16,0.02-0.31,0.06-0.47,0.07C172.75,130.28,178.56,124.05,181.29,118.51z"/>
	<path class="st0" d="M92.42,60.76c-8.15,14.68,5.44,17.4,13.59,17.4c8.15,0,10.87-7.61,17.4-9.79c0.7-0.23,1.34-0.59,1.93-1.01
		c-0.53-1.36-0.19-2.71,1.69-3.71c0.44-0.23,0.9-0.42,1.37-0.57c1.44-4.4-0.07-10.54-6.63-15.37
		C112.38,40.79,100.58,46.08,92.42,60.76z M112.54,54.23c2.7,0,4.89,2.19,4.89,4.89s-2.19,4.89-4.89,4.89s-4.89-2.19-4.89-4.89
		S109.83,54.23,112.54,54.23z"/>
	<circle class="st2" cx="112.54" cy="59.13" r="9.54"/>
	<path class="st0" d="M147.32,70.16c6.16,3.06,7.79,10.98,15.87,12.11c8.08,1.13,21.91,0.33,15.88-15.34
		c-6.03-15.67-16.99-22.55-27.26-17C140.52,56.03,141.16,67.1,147.32,70.16z M154.53,61.84c0.38-2.68,2.85-4.54,5.53-4.16
		c2.68,0.38,4.54,2.85,4.16,5.53c-0.38,2.68-2.85,4.54-5.53,4.16C156.01,66.99,154.15,64.51,154.53,61.84z"/>
	<path class="st2" d="M158.04,71.97c5.22,0.73,10.04-2.9,10.78-8.12c0.73-5.22-2.9-10.04-8.12-10.78
		c-5.22-0.73-10.04,2.9-10.78,8.12C149.19,66.41,152.82,71.23,158.04,71.97z"/>
	<path class="st2" d="M75.17,124.5c0.83,0.7,1.69,1.22,2.57,1.49c8.7,2.72,0.54-8.7,1.09-14.68c0.21-2.31,0.09-5.52-0.6-8.46
		c-1.04-4.4-3.38-8.16-7.84-7.44c-0.26,0.04-0.52,0.06-0.8,0.14c-4.84,1.29-3.63,12.58,0.2,21.09
		C71.26,119.92,73.12,122.78,75.17,124.5z"/>
	<path class="st2" d="M182.45,115.14c-0.14,1.04-0.59,2.19-1.17,3.37c-2.72,5.54-8.54,11.77-1.04,11.18
		c0.15-0.01,0.31-0.05,0.47-0.07c4.12-0.66,8.83-5.73,12.12-11.42c3.93-6.8,5.81-14.44,2.15-16.37c-0.71-0.37-1.38-0.57-2.03-0.69
		C186.74,100.04,183.18,109.76,182.45,115.14z"/>
	<path class="st3" d="M125.27,67.38c0.93,2.38,4.58,4.8,7.75,5.55l-1.19,6.16c-5.26-1.25-9.05-5.89-9.09-5.95
		c-0.37-0.47-1.06-0.54-1.53-0.17c-0.47,0.38-0.54,1.06-0.17,1.53c0.23,0.28,5.62,6.92,13.09,7.07c0.09,0,0.17,0,0.26,0
		c4.25,0,8.25-2.12,11.89-6.31c0.39-0.45,0.34-1.14-0.11-1.54c-0.45-0.39-1.14-0.34-1.54,0.11c-3.21,3.7-6.65,5.57-10.25,5.57
		c-0.06,0-0.13,0-0.2,0c-0.07,0-0.13-0.01-0.2-0.01l1.2-6.19c4.59,0.05,8.78-2.88,8.45-5.53c-0.34-2.69-9.11-6.63-15.3-4.56
		c-0.47,0.16-0.94,0.34-1.37,0.57C125.08,64.67,124.74,66.01,125.27,67.38z"/>
	<path class="st2" d="M125.3,67.38c0.87,2.22,4.12,4.49,7.13,5.38l-0.18,1.66c-3.19-0.24-6.91,0.6-10.98,3.6
		c-0.48,0.36-0.59,1.04-0.23,1.52c0.36,0.48,1.03,0.59,1.52,0.23c11.03-8.13,18.92,1.64,19.25,2.06c0.21,0.27,0.53,0.42,0.86,0.42
		c0.24,0,0.47-0.08,0.67-0.23c0.47-0.37,0.56-1.05,0.19-1.52c-0.06-0.07-3.54-4.42-9.12-5.73l0.17-1.59
		c4.83,0.35,9.43-2.74,9.09-5.5c-0.34-2.69-9.11-6.63-15.3-4.56c-0.47,0.16-0.94,0.34-1.37,0.57
		C125.11,64.67,124.76,66.01,125.3,67.38z"/>
</g>
</svg>
