<?xml version="1.0" encoding="utf-8"?>
<!-- Generator: Adobe Illustrator 24.1.0, SVG Export Plug-In . SVG Version: 6.00 Build 0)  -->
<svg version="1.1" id="Layer_1" xmlns="http://www.w3.org/2000/svg" xmlns:xlink="http://www.w3.org/1999/xlink" x="0px" y="0px"
	 viewBox="0 0 250 214.7" enable-background="new 0 0 250 214.7" xml:space="preserve">
<g id="_x31_">
</g>
<g id="Designed_by_Vecteezy">
	<g>
		<path fill="#393939" d="M140.1,164.3c0.5,1.7,0.9,3.4,1.1,5.1c-0.6-3.8-1.7-7.5-3.4-11l-2-0.4c-6.2-0.1-13.6-0.9-22.3-2.3
			c-0.5,2.1-1.3,6.1-1.8,11.3c0.1-0.7,0.2-1.4,0.2-2.1C120,166.1,131.5,167.3,140.1,164.3z"/>
		<path fill="#393939" d="M141.9,174.5c-8,1.4-19.4,2.4-30.6,0c-0.1,2.7,0,5.5,0.2,8.4c7.3,1,20.8,2.2,30.4-0.4
			C142,179.9,142,177.2,141.9,174.5z"/>
		<path fill="#393939" d="M130.8,212.5c-0.1,0.1-0.2,0.2-0.4,0.3C130.5,212.7,130.6,212.6,130.8,212.5z"/>
		<path fill="#393939" d="M133.7,208.8c-0.1,0.2-0.3,0.4-0.4,0.6C133.4,209.2,133.5,209,133.7,208.8z"/>
		<path fill="#393939" d="M135.3,205.9c-0.1,0.2-0.3,0.5-0.4,0.7C135.1,206.4,135.2,206.2,135.3,205.9z"/>
		<path fill="#393939" d="M134.5,207.4c-0.1,0.2-0.3,0.5-0.4,0.7C134.2,207.9,134.4,207.6,134.5,207.4z"/>
		<path fill="#393939" d="M113.2,194.2c1.1,4.3,2.7,8.4,5.1,12.2c4.3,1.4,10.8,2.3,17.1-0.5c1.8-3.3,3.3-7.4,4.5-11.9
			C132.5,195.4,123,196.2,113.2,194.2z"/>
		<path fill="#393939" d="M131.6,211.5c-0.1,0.1-0.3,0.3-0.4,0.4C131.4,211.8,131.5,211.7,131.6,211.5z"/>
		<path fill="#393939" d="M132.6,210.4c-0.1,0.2-0.3,0.4-0.4,0.6C132.3,210.7,132.4,210.6,132.6,210.4z"/>
		<path fill="#393939" d="M111.6,169.1c0.1-0.7,0.1-1.3,0.2-1.9C111.7,167.8,111.6,168.4,111.6,169.1z"/>
		<path fill="#393939" d="M119.6,208.4c-0.5-0.6-0.9-1.3-1.3-2C118.7,207.1,119.1,207.8,119.6,208.4z"/>
		<path fill="#393939" d="M112,188.4c-0.1-0.9-0.2-1.8-0.3-2.6C111.8,186.6,111.9,187.5,112,188.4z"/>
		<path fill="#393939" d="M113.2,194.2c-0.5-1.9-0.8-3.8-1.1-5.6C112.3,190.5,112.7,192.4,113.2,194.2z"/>
		<path fill="#393939" d="M121,210.3c-0.5-0.6-1-1.2-1.4-1.8C120.1,209.1,120.5,209.7,121,210.3z"/>
		<path fill="#393939" d="M111.3,174.4c0-0.8,0.1-1.6,0.1-2.4C111.3,172.8,111.3,173.6,111.3,174.4z"/>
		<path fill="#393939" d="M122.6,212.1c-0.4-0.4-0.8-0.9-1.2-1.4C121.8,211.2,122.2,211.7,122.6,212.1z"/>
		<path fill="#393939" d="M111.4,171.5c0-0.6,0.1-1.3,0.1-1.9C111.5,170.2,111.4,170.9,111.4,171.5z"/>
		<path fill="#393939" d="M111.7,185.6c-0.1-0.9-0.2-1.8-0.2-2.7C111.5,183.8,111.6,184.7,111.7,185.6z"/>
		<path fill="#A5A5A5" d="M118.2,206.4L118.2,206.4C118.2,206.4,118.2,206.4,118.2,206.4c0.4,0.7,0.9,1.3,1.3,2c0,0,0,0,0,0.1
			c0.4,0.6,0.9,1.2,1.4,1.8c0.1,0.2,0.3,0.3,0.4,0.5c0.4,0.5,0.8,0.9,1.2,1.4c0.6,0.6,1.2,1.2,1.8,1.8c0.2,0.2,0.4,0.3,0.7,0.5
			c0.1,0,0.1,0.1,0.2,0.1c0.2,0.1,0.3,0.1,0.5,0.2c0.1,0,0.2,0,0.2,0.1c0.2,0,0.4,0.1,0.7,0c0,0,0.1,0,0.1,0c0.2,0,0.5-0.1,0.8-0.2
			c0.1,0,0.2-0.1,0.3-0.1c0.2-0.1,0.4-0.1,0.6-0.2c0.1-0.1,0.2-0.1,0.3-0.2c0.2-0.1,0.4-0.3,0.6-0.4c0.1-0.1,0.1-0.1,0.2-0.1
			c0.3-0.2,0.5-0.4,0.8-0.7c0.1-0.1,0.2-0.2,0.4-0.3c0.2-0.2,0.3-0.3,0.5-0.5c0.1-0.1,0.3-0.3,0.4-0.4c0.2-0.2,0.3-0.4,0.5-0.6
			c0.1-0.2,0.3-0.4,0.4-0.6c0.2-0.3,0.5-0.6,0.7-1c0.1-0.2,0.3-0.4,0.4-0.6c0.1-0.2,0.3-0.4,0.4-0.7s0.3-0.5,0.4-0.7
			c0.1-0.2,0.3-0.5,0.4-0.7c0.1-0.2,0.3-0.5,0.4-0.7l0,0l0,0C129,208.7,122.6,207.8,118.2,206.4z"/>
		<path fill="#A5A5A5" d="M139.9,194.1L139.9,194.1c0.5-1.8,0.9-3.7,1.2-5.6c0,0,0,0,0,0c0.2-1,0.3-1.9,0.4-2.9c0,0,0-0.1,0-0.1
			c0.1-1,0.2-2,0.3-3v0l0,0c-9.6,2.6-23.1,1.4-30.4,0.4l0,0v0c0.1,0.9,0.1,1.8,0.2,2.7c0,0.1,0,0.1,0,0.2c0.1,0.9,0.2,1.8,0.3,2.6
			c0,0.1,0,0.1,0,0.2c0.3,1.9,0.7,3.8,1.1,5.6l0,0l0,0C123,196.2,132.5,195.4,139.9,194.1L139.9,194.1z"/>
		<path fill="#A5A5A5" d="M141.9,174.5L141.9,174.5C141.9,174.5,141.9,174.5,141.9,174.5c-0.1-0.9-0.1-1.7-0.2-2.5c0,0,0,0,0-0.1
			c-0.1-0.9-0.2-1.7-0.4-2.5v0c-0.3-1.7-0.7-3.4-1.1-5.1c-8.6,3-20.2,1.9-28.1,0.6c-0.1,0.7-0.2,1.4-0.2,2.1c0,0.1,0,0.2,0,0.2
			c-0.1,0.6-0.1,1.3-0.2,1.9c0,0.2,0,0.3,0,0.5c-0.1,0.6-0.1,1.3-0.1,1.9c0,0.2,0,0.3,0,0.5c0,0.8-0.1,1.6-0.1,2.4c0,0,0,0.1,0,0.1
			l0,0C122.5,176.9,133.9,175.9,141.9,174.5z"/>
	</g>
	<path fill="#191919" d="M85.1,198.6c6.1,3,2.5-7.4,2.1-13.7c-2.4-0.7-4.4-1.5-5.7-2.4c-2.2-1.4-3.9-3.3-5.4-5.7
		c0.2,1.8,0.6,4.4,1.3,7.3C78.7,189.9,81,196.5,85.1,198.6z"/>
	<path fill="#191919" d="M168,183.9c0.5,5.8-4.5,18.8,2.1,15.5c4-2,6.3-8.5,7.7-14.2c0.7-3,1.1-5.9,1.4-7.6
		C176.6,180.1,172.7,182.2,168,183.9z"/>
	<path fill="#393939" d="M97,42.7c-3.8-2.9-12.6-9.2-14.6-5.8c-1.7,2.9-0.2,11.1,1,16.4C87.2,48.8,91.6,45.3,97,42.7z"/>
	<path fill="#393939" d="M182,60.7c2.1-4.5,6.3-14.3,5.1-17.9c-1.6-4.8-17.4,4-17.4,4l0.1,0.1C174.8,51,178.8,55.8,182,60.7z"/>
	<path fill="#393939" d="M47,183.6c-0.1,0.1-0.2,0.1-0.2,0.1C46.9,183.7,47,183.6,47,183.6z"/>
	<path fill="#393939" d="M45.3,184.5c-0.1,0-0.2,0.1-0.3,0.1C45.2,184.6,45.2,184.6,45.3,184.5z"/>
	<path fill="#393939" d="M44.3,184.8C44.2,184.8,44.2,184.8,44.3,184.8C44.2,184.8,44.2,184.8,44.3,184.8z"/>
	<path fill="#393939" d="M43.5,184.8c-0.1,0-0.2,0-0.2-0.1C43.4,184.8,43.4,184.8,43.5,184.8z"/>
	<path fill="#393939" d="M42.8,184.6c-0.1,0-0.1-0.1-0.2-0.1C42.6,184.5,42.7,184.5,42.8,184.6z"/>
	<path fill="#393939" d="M46.2,184.1c-0.1,0.1-0.2,0.1-0.3,0.2C46,184.2,46.1,184.2,46.2,184.1z"/>
	<path fill="#878787" d="M76.1,176.8c1.5,2.4,3.3,4.3,5.4,5.7c1.3,0.8,3.3,1.6,5.7,2.4c17,5.1,58.5,6.9,80.8-1
		c4.7-1.7,8.6-3.8,11.2-6.4c0.5-0.5,0.9-1,1.3-1.5c7.3-9.9,11.4-34.5,12.4-57.8c-3.3,5.7-8,10.8-12.1,11.4c-1.4,12.4-5,25-10.1,33.3
		c-10.9,17.9-64.7,20.7-81.6,4.4c-8.7-8.4-13.8-26-13.9-42.8c-2.1-1.7-3.9-4.6-5.4-7.9c-0.1,8.3-0.2,15.8-0.1,22.5
		c0.2,8.8,0.6,16.2,1.5,22.3C72.2,167.9,73.8,173,76.1,176.8z"/>
	<path fill="#878787" d="M78.2,102.9c2.3-6.8,5.8-12.3,10.9-15.5c14.7-9.2,75-7.1,85.9,6.5c4.3,5.4,6.2,14.4,6.3,24.6
		c0.6-1.2,1-2.3,1.2-3.4c0.7-5.4,4.3-15.1,10.5-14c-0.4-13.4-2-24.7-4.9-30.1c-0.6-1.1-1.1-2.1-1.7-3.2c2.8-5.8,11.8-25.5,6-31
		c-6.9-6.5-28.5,5.9-28.5,5.9l0.2,0.3c-8.6-5.1-20.1-8.2-35.8-7.3c-9.4,0.5-17.5,1.9-24.5,4.2c-4.6-3.7-18.7-14.2-25.3-10
		c-6.7,4.2-2,24.6-0.2,31.2c-4.5,8.7-7,19.9-7.9,34.2C74.8,94.7,77.2,98.5,78.2,102.9z M169.6,46.8c0,0,15.8-8.7,17.4-4
		c1.2,3.6-2.9,13.4-5.1,17.9c-3.2-4.9-7.2-9.7-12.3-13.8L169.6,46.8z M151.8,49.9c10.3-5.5,21.2,1.3,27.3,17
		c6,15.7-7.8,16.5-15.9,15.3s-9.7-9.1-15.9-12.1C141.2,67.1,140.5,56,151.8,49.9z M121.8,47.7c6.6,4.8,8.1,11,6.6,15.4
		c6.2-2.1,15,1.9,15.3,4.6c0.3,2.6-3.9,5.6-8.4,5.5l-1.2,6.2c0.1,0,0.1,0,0.2,0c0.1,0,0.1,0,0.2,0c3.6,0,7-1.9,10.2-5.6
		c0.4-0.4,1.1-0.5,1.5-0.1c0.4,0.4,0.5,1.1,0.1,1.5c-3.6,4.2-7.6,6.3-11.9,6.3c-0.1,0-0.2,0-0.3,0c-7.5-0.2-12.9-6.8-13.1-7.1
		c-0.4-0.5-0.3-1.2,0.2-1.5c0.5-0.4,1.2-0.3,1.5,0.2c0,0.1,3.8,4.7,9.1,5.9l1.2-6.2c-3.2-0.8-6.8-3.2-7.8-5.6
		c-0.6,0.4-1.2,0.8-1.9,1c-6.5,2.2-9.2,9.8-17.4,9.8c-8.2,0-21.8-2.7-13.6-17.4S112.4,40.8,121.8,47.7z M82.5,36.8
		c2-3.4,10.8,2.9,14.6,5.8c-5.4,2.7-9.9,6.1-13.6,10.5C82.3,48,80.8,39.7,82.5,36.8z"/>
	<path fill="#A5A5A5" d="M181.3,118.5c-0.1-10.1-2-19.2-6.3-24.6c-10.9-13.6-71.2-15.8-85.9-6.5c-5,3.2-8.6,8.7-10.9,15.5
		c0.7,2.9,0.8,6.1,0.6,8.5c-0.5,6,7.6,17.4-1.1,14.7c-0.9-0.3-1.7-0.8-2.6-1.5c0.1,16.8,5.2,34.4,13.9,42.8
		c16.8,16.3,70.7,13.6,81.6-4.4c5.1-8.3,8.7-20.9,10.1-33.3c-0.2,0-0.3,0.1-0.5,0.1C172.8,130.3,178.6,124.1,181.3,118.5z"/>
	<path fill="#393939" d="M92.4,60.8c-8.2,14.7,5.4,17.4,13.6,17.4s10.9-7.6,17.4-9.8c0.7-0.2,1.3-0.6,1.9-1
		c-0.5-1.4-0.2-2.7,1.7-3.7c0.4-0.2,0.9-0.4,1.4-0.6c1.4-4.4-0.1-10.5-6.6-15.4C112.4,40.8,100.6,46.1,92.4,60.8z M112.5,54.2
		c2.7,0,4.9,2.2,4.9,4.9s-2.2,4.9-4.9,4.9s-4.9-2.2-4.9-4.9S109.8,54.2,112.5,54.2z"/>
	<circle fill="#191919" cx="112.5" cy="59.1" r="9.5"/>
	<path fill="#393939" d="M147.3,70.2c6.2,3.1,7.8,11,15.9,12.1c8.1,1.1,21.9,0.3,15.9-15.3s-17-22.5-27.3-17
		C140.5,56,141.2,67.1,147.3,70.2z M154.5,61.8c0.4-2.7,2.9-4.5,5.5-4.2s4.5,2.8,4.2,5.5c-0.4,2.7-2.9,4.5-5.5,4.2
		C156,67,154.1,64.5,154.5,61.8z"/>
	<path fill="#191919" d="M158,72c5.2,0.7,10-2.9,10.8-8.1c0.7-5.2-2.9-10-8.1-10.8c-5.2-0.7-10,2.9-10.8,8.1
		C149.2,66.4,152.8,71.2,158,72z"/>
	<path fill="#191919" d="M75.2,124.5c0.8,0.7,1.7,1.2,2.6,1.5c8.7,2.7,0.5-8.7,1.1-14.7c0.2-2.3,0.1-5.5-0.6-8.5
		c-1-4.4-3.4-8.2-7.8-7.4c-0.3,0-0.5,0.1-0.8,0.1c-4.8,1.3-3.6,12.6,0.2,21.1C71.3,119.9,73.1,122.8,75.2,124.5z"/>
	<path fill="#191919" d="M182.4,115.1c-0.1,1-0.6,2.2-1.2,3.4c-2.7,5.5-8.5,11.8-1,11.2c0.1,0,0.3-0.1,0.5-0.1
		c4.1-0.7,8.8-5.7,12.1-11.4c3.9-6.8,5.8-14.4,2.1-16.4c-0.7-0.4-1.4-0.6-2-0.7C186.7,100,183.2,109.8,182.4,115.1z"/>
	<path fill="#878787" d="M125.3,67.4c0.9,2.4,4.6,4.8,7.7,5.6l-1.2,6.2c-5.3-1.2-9.1-5.9-9.1-5.9c-0.4-0.5-1.1-0.5-1.5-0.2
		c-0.5,0.4-0.5,1.1-0.2,1.5c0.2,0.3,5.6,6.9,13.1,7.1c0.1,0,0.2,0,0.3,0c4.2,0,8.2-2.1,11.9-6.3c0.4-0.4,0.3-1.1-0.1-1.5
		c-0.4-0.4-1.1-0.3-1.5,0.1c-3.2,3.7-6.6,5.6-10.2,5.6c-0.1,0-0.1,0-0.2,0c-0.1,0-0.1,0-0.2,0l1.2-6.2c4.6,0.1,8.8-2.9,8.4-5.5
		c-0.3-2.7-9.1-6.6-15.3-4.6c-0.5,0.2-0.9,0.3-1.4,0.6C125.1,64.7,124.7,66,125.3,67.4z"/>
	<path fill="#191919" d="M125.3,67.4c0.9,2.2,4.1,4.5,7.1,5.4l-0.2,1.7c-3.2-0.2-6.9,0.6-11,3.6c-0.5,0.4-0.6,1-0.2,1.5
		c0.4,0.5,1,0.6,1.5,0.2c11-8.1,18.9,1.6,19.2,2.1c0.2,0.3,0.5,0.4,0.9,0.4c0.2,0,0.5-0.1,0.7-0.2c0.5-0.4,0.6-1.1,0.2-1.5
		c-0.1-0.1-3.5-4.4-9.1-5.7l0.2-1.6c4.8,0.3,9.4-2.7,9.1-5.5c-0.3-2.7-9.1-6.6-15.3-4.6c-0.5,0.2-0.9,0.3-1.4,0.6
		C125.1,64.7,124.8,66,125.3,67.4z"/>
</g>
</svg>
