<?xml version="1.0" encoding="utf-8"?>
<!-- Generator: Adobe Illustrator 24.1.0, SVG Export Plug-In . SVG Version: 6.00 Build 0)  -->
<svg version="1.1" xmlns="http://www.w3.org/2000/svg" xmlns:xlink="http://www.w3.org/1999/xlink" x="0px" y="0px"
	 viewBox="0 0 250 250" style="enable-background:new 0 0 250 250;" xml:space="preserve">
<style type="text/css">
	.st0{fill:#191919;}
	.st1{fill:#393939;}
	.st2{fill:#878787;}
	.st3{fill:#A5A5A5;}
</style>
<g id="_x31_">
	<path class="st0" d="M85.45,199.95c6.06,3.03,2.47-7.38,2.13-13.67c-2.45-0.73-4.43-1.52-5.72-2.37c-2.16-1.41-3.94-3.32-5.42-5.74
		c0.22,1.75,0.62,4.39,1.27,7.26C79.03,191.23,81.38,197.92,85.45,199.95z"/>
	<path class="st0" d="M168.35,185.31c0.51,5.8-4.54,18.8,2.14,15.46c4-2,6.34-8.51,7.67-14.24c0.7-3.04,1.13-5.85,1.35-7.65
		C176.95,181.51,173.08,183.63,168.35,185.31z"/>
	<path class="st1" d="M97.39,44.07c-3.77-2.94-12.59-9.25-14.57-5.85c-1.68,2.88-0.18,11.14,1.02,16.41
		C87.51,50.21,91.99,46.73,97.39,44.07z"/>
	<path class="st1" d="M182.34,62.09c2.1-4.5,6.3-14.26,5.05-17.87c-1.65-4.76-17.4,3.97-17.4,3.97l0.09,0.13
		C175.18,52.41,179.11,57.21,182.34,62.09z"/>
	<path class="st1" d="M66.08,168.09c-1.56,0.76-3.16,1.42-4.79,1.99c3.62-1.27,7.11-2.96,10.3-5.19v-2.07
		c-0.94-6.14-1.38-13.55-1.53-22.34c-2.11-0.1-6.25-0.21-11.44,0.14c0.72-0.05,1.42-0.09,2.1-0.12
		C60.81,148.54,61.62,160.11,66.08,168.09z"/>
	<path class="st1" d="M58.79,170.88c-0.81,0.24-1.63,0.46-2.46,0.65C57.16,171.34,57.98,171.12,58.79,170.88z"/>
	<path class="st1" d="M56.33,171.53c-2.76-7.64-5.71-18.7-5.21-30.14c-2.66,0.38-5.43,0.9-8.24,1.59
		c0.27,7.37,1.36,20.85,5.54,29.86C51.06,172.59,53.71,172.16,56.33,171.53z"/>
	<path class="st1" d="M61.29,170.08c-0.81,0.28-1.62,0.54-2.44,0.78C59.67,170.62,60.48,170.36,61.29,170.08z"/>
	<path class="st1" d="M15.8,166.1c-0.07-0.06-0.12-0.13-0.19-0.2C15.68,165.96,15.73,166.03,15.8,166.1z"/>
	<path class="st1" d="M17,167.06c-0.13-0.1-0.27-0.19-0.4-0.29C16.73,166.87,16.87,166.96,17,167.06z"/>
	<path class="st1" d="M21.14,169.31c-0.23-0.1-0.46-0.2-0.68-0.3C20.67,169.11,20.91,169.21,21.14,169.31z"/>
	<path class="st1" d="M24.2,170.46c-0.27-0.09-0.52-0.18-0.78-0.27C23.68,170.28,23.93,170.38,24.2,170.46z"/>
	<path class="st1" d="M22.63,169.91c-0.26-0.1-0.51-0.2-0.77-0.3C22.12,169.71,22.37,169.81,22.63,169.91z"/>
	<path class="st1" d="M31.96,146.66c-4.02,1.8-7.82,4.11-11.14,7.05c-0.6,4.52-0.44,11,3.39,16.75c3.56,1.16,7.83,2.03,12.45,2.43
		C34.09,165.85,31.74,156.61,31.96,146.66z"/>
	<path class="st1" d="M18.09,167.77c-0.17-0.1-0.33-0.2-0.49-0.31C17.76,167.57,17.92,167.67,18.09,167.77z"/>
	<path class="st1" d="M42.43,173.14c-1.97,0-3.9-0.08-5.77-0.24C38.53,173.06,40.46,173.14,42.43,173.14z"/>
	<path class="st1" d="M19.38,168.49c-0.21-0.11-0.41-0.22-0.61-0.33C18.97,168.27,19.17,168.38,19.38,168.49z"/>
	<path class="st1" d="M14.56,164.58c-0.05-0.08-0.1-0.17-0.14-0.25C14.46,164.41,14.51,164.49,14.56,164.58z"/>
	<path class="st1" d="M45.38,173.06c-0.98,0.05-1.96,0.07-2.93,0.07C43.42,173.14,44.39,173.11,45.38,173.06z"/>
	<path class="st1" d="M48.41,172.85c-0.99,0.1-1.98,0.17-2.96,0.21C46.43,173.01,47.42,172.94,48.41,172.85z"/>
	<path class="st1" d="M56.45,140.78c0.66-0.06,1.3-0.11,1.93-0.15C57.75,140.67,57.11,140.73,56.45,140.78z"/>
	<path class="st1" d="M19.08,155.35c0.56-0.56,1.14-1.11,1.73-1.63C20.21,154.25,19.63,154.79,19.08,155.35z"/>
	<path class="st1" d="M37.54,144.51c0.84-0.28,1.69-0.54,2.53-0.78C39.22,143.97,38.38,144.23,37.54,144.51z"/>
	<path class="st1" d="M31.96,146.66c1.76-0.79,3.55-1.47,5.36-2.08C35.51,145.19,33.72,145.88,31.96,146.66z"/>
	<path class="st1" d="M17.46,157.1c0.51-0.59,1.03-1.15,1.57-1.7C18.49,155.95,17.96,156.51,17.46,157.1z"/>
	<path class="st1" d="M14.12,163.59c-0.01-0.03-0.01-0.06-0.01-0.08C14.11,163.53,14.11,163.56,14.12,163.59z"/>
	<path class="st1" d="M51.23,141.38c0.79-0.11,1.57-0.21,2.34-0.3C52.8,141.16,52.02,141.26,51.23,141.38z"/>
	<path class="st1" d="M14.02,162.83c0-0.08,0.01-0.16,0.01-0.23C14.02,162.67,14.01,162.75,14.02,162.83z"/>
	<path class="st1" d="M14.11,162.05c0.02-0.08,0.03-0.15,0.06-0.23C14.15,161.9,14.13,161.98,14.11,162.05z"/>
	<path class="st1" d="M15.94,159c0.36-0.49,0.75-0.95,1.13-1.42C16.69,158.04,16.3,158.51,15.94,159z"/>
	<path class="st1" d="M54.07,141.02c0.65-0.07,1.28-0.14,1.91-0.2C55.35,140.88,54.72,140.95,54.07,141.02z"/>
	<path class="st1" d="M40.23,143.69c0.88-0.25,1.77-0.49,2.65-0.7C41.99,143.2,41.11,143.43,40.23,143.69z"/>
	<path class="st1" d="M15.11,165.36c-0.08-0.09-0.14-0.18-0.21-0.27C14.97,165.18,15.03,165.27,15.11,165.36z"/>
	<path class="st2" d="M76.44,178.17c1.47,2.42,3.26,4.33,5.42,5.74c1.29,0.84,3.27,1.64,5.72,2.37c16.98,5.06,58.52,6.93,80.77-0.97
		c4.73-1.68,8.6-3.8,11.16-6.43c0.47-0.48,0.91-0.98,1.29-1.49c7.27-9.88,11.42-34.52,12.39-57.8c-3.29,5.68-8,10.76-12.12,11.42
		c-1.36,12.43-5,25-10.06,33.34c-10.87,17.94-64.69,20.66-81.55,4.35c-8.69-8.41-13.79-25.99-13.93-42.81
		c-2.05-1.72-3.91-4.58-5.39-7.86c-0.14,8.31-0.2,15.78-0.08,22.46c0.15,8.78,0.6,16.2,1.53,22.34
		C72.59,169.3,74.13,174.38,76.44,178.17z"/>
	<path class="st2" d="M78.59,104.24c2.27-6.76,5.84-12.29,10.88-15.46c14.68-9.24,75.02-7.07,85.9,6.52
		c4.29,5.36,6.2,14.45,6.29,24.59c0.58-1.18,1.03-2.33,1.17-3.37c0.73-5.38,4.29-15.11,10.49-14c-0.4-13.36-2.02-24.66-4.9-30.06
		c-0.56-1.05-1.14-2.12-1.74-3.21c2.82-5.79,11.78-25.49,5.96-31.03c-6.85-6.51-28.48,5.86-28.48,5.86l0.25,0.31
		c-8.64-5.08-20.08-8.17-35.79-7.28c-9.43,0.54-17.54,1.88-24.46,4.2c-4.61-3.7-18.7-14.2-25.32-10
		c-6.65,4.23-1.96,24.56-0.22,31.22c-4.48,8.68-6.99,19.94-7.86,34.25C75.21,96.08,77.55,99.84,78.59,104.24z M169.99,48.2
		c0,0,15.75-8.73,17.4-3.97c1.25,3.61-2.95,13.36-5.05,17.87c-3.23-4.88-7.16-9.68-12.26-13.76L169.99,48.2z M152.17,51.31
		c10.27-5.55,21.22,1.33,27.26,17c6.03,15.67-7.8,16.47-15.88,15.34c-8.08-1.13-9.71-9.05-15.87-12.11
		C141.52,68.48,140.88,57.41,152.17,51.31z M122.14,49.09c6.56,4.83,8.06,10.97,6.63,15.37c6.19-2.07,14.96,1.87,15.3,4.56
		c0.33,2.64-3.86,5.58-8.45,5.53l-1.2,6.19c0.07,0,0.13,0.01,0.2,0.01c0.07,0,0.13,0,0.2,0c3.6,0,7.04-1.87,10.25-5.57
		c0.4-0.45,1.08-0.5,1.54-0.11c0.45,0.4,0.5,1.08,0.11,1.54c-3.64,4.19-7.64,6.31-11.89,6.31c-0.09,0-0.17,0-0.26,0
		c-7.46-0.15-12.86-6.79-13.09-7.07c-0.37-0.47-0.3-1.15,0.17-1.53c0.47-0.37,1.15-0.3,1.53,0.17c0.04,0.05,3.83,4.7,9.09,5.95
		l1.19-6.16c-3.17-0.75-6.82-3.18-7.75-5.55c-0.59,0.42-1.23,0.77-1.93,1.01c-6.52,2.17-9.24,9.79-17.4,9.79
		c-8.15,0-21.75-2.72-13.59-17.4S112.75,42.17,122.14,49.09z M82.82,38.22c1.98-3.4,10.79,2.92,14.57,5.85
		c-5.39,2.66-9.88,6.14-13.55,10.55C82.63,49.36,81.14,41.1,82.82,38.22z"/>
	<path class="st3" d="M181.65,119.89c-0.08-10.14-2-19.23-6.29-24.59c-10.87-13.59-71.22-15.77-85.9-6.52
		c-5.04,3.17-8.61,8.7-10.88,15.46c0.69,2.94,0.81,6.14,0.6,8.46c-0.54,5.98,7.61,17.4-1.09,14.68c-0.88-0.28-1.74-0.8-2.57-1.49
		c0.14,16.82,5.24,34.4,13.93,42.81c16.85,16.31,70.67,13.59,81.55-4.35c5.05-8.34,8.7-20.91,10.06-33.34
		c-0.16,0.02-0.31,0.06-0.47,0.07C173.11,131.66,178.93,125.43,181.65,119.89z"/>
	<path class="st3" d="M20.81,153.71L20.81,153.71C20.81,153.72,20.81,153.72,20.81,153.71c-0.6,0.53-1.18,1.07-1.74,1.64
		c-0.02,0.02-0.03,0.03-0.05,0.05c-0.54,0.55-1.06,1.11-1.57,1.7c-0.13,0.16-0.26,0.32-0.39,0.48c-0.39,0.46-0.77,0.93-1.13,1.42
		c-0.5,0.67-0.97,1.36-1.42,2.09c-0.15,0.25-0.26,0.49-0.34,0.74c-0.03,0.08-0.04,0.15-0.06,0.23c-0.05,0.18-0.07,0.36-0.09,0.55
		c0,0.08-0.01,0.16-0.01,0.23c0,0.22,0.03,0.45,0.09,0.67c0.01,0.03,0.01,0.06,0.01,0.08c0.07,0.25,0.17,0.49,0.3,0.74
		c0.04,0.08,0.09,0.17,0.14,0.25c0.1,0.17,0.21,0.34,0.34,0.51c0.07,0.09,0.13,0.18,0.21,0.27c0.15,0.18,0.32,0.36,0.5,0.54
		c0.07,0.06,0.12,0.13,0.19,0.2c0.24,0.23,0.52,0.45,0.8,0.67c0.13,0.1,0.26,0.19,0.4,0.29c0.19,0.14,0.39,0.27,0.59,0.41
		c0.16,0.1,0.32,0.21,0.49,0.31c0.22,0.13,0.45,0.26,0.68,0.39c0.2,0.11,0.4,0.22,0.61,0.33c0.34,0.18,0.7,0.35,1.07,0.52
		c0.22,0.1,0.45,0.2,0.68,0.3c0.24,0.1,0.48,0.2,0.73,0.3c0.25,0.1,0.51,0.2,0.77,0.3c0.26,0.1,0.52,0.19,0.79,0.28
		c0.26,0.09,0.51,0.18,0.78,0.27c0,0,0,0,0,0l0,0C20.37,164.71,20.21,158.23,20.81,153.71z"/>
	<path class="st3" d="M36.65,172.9C36.66,172.9,36.66,172.9,36.65,172.9c1.88,0.16,3.81,0.25,5.77,0.24c0.01,0,0.01,0,0.02,0
		c0.97,0,1.95-0.03,2.93-0.07c0.02,0,0.05,0,0.07,0c0.98-0.05,1.97-0.12,2.96-0.21c0,0,0.01,0,0.01,0l0,0
		c-4.18-9.02-5.26-22.49-5.54-29.86l0,0c0,0-0.01,0-0.01,0c-0.88,0.22-1.77,0.45-2.65,0.7c-0.05,0.02-0.11,0.03-0.16,0.05
		c-0.84,0.24-1.69,0.5-2.53,0.78c-0.07,0.02-0.15,0.05-0.22,0.07c-1.81,0.6-3.6,1.29-5.36,2.08c0,0,0,0,0,0l0,0
		C31.74,156.61,34.09,165.85,36.65,172.9L36.65,172.9z"/>
	<path class="st3" d="M56.33,171.53L56.33,171.53C56.34,171.53,56.34,171.53,56.33,171.53c0.83-0.2,1.65-0.42,2.46-0.65
		c0.02-0.01,0.04-0.01,0.05-0.02c0.82-0.24,1.63-0.5,2.44-0.78c0,0,0.01,0,0.01,0c1.63-0.57,3.23-1.23,4.79-1.99
		c-4.47-7.98-5.28-19.55-5.36-27.59c-0.68,0.03-1.38,0.07-2.1,0.12c-0.08,0.01-0.16,0.01-0.24,0.02c-0.63,0.04-1.28,0.09-1.93,0.15
		c-0.16,0.01-0.31,0.03-0.47,0.04c-0.62,0.06-1.26,0.12-1.91,0.2c-0.17,0.02-0.33,0.04-0.5,0.05c-0.77,0.09-1.55,0.19-2.34,0.3
		c-0.04,0-0.07,0.01-0.1,0.01l0,0C50.62,152.83,53.58,163.89,56.33,171.53z"/>
	<path class="st1" d="M92.79,62.14c-8.15,14.68,5.44,17.4,13.59,17.4c8.15,0,10.87-7.61,17.4-9.79c0.7-0.23,1.34-0.59,1.93-1.01
		c-0.53-1.36-0.19-2.71,1.69-3.71c0.44-0.23,0.9-0.42,1.37-0.57c1.44-4.4-0.07-10.54-6.63-15.37
		C112.75,42.17,100.94,47.46,92.79,62.14z M112.9,55.61c2.7,0,4.89,2.19,4.89,4.89s-2.19,4.89-4.89,4.89s-4.89-2.19-4.89-4.89
		S110.2,55.61,112.9,55.61z"/>
	<circle class="st0" cx="112.9" cy="60.51" r="4.89"/>
	<path class="st1" d="M147.68,71.54c6.16,3.06,7.79,10.98,15.87,12.11c8.08,1.13,21.91,0.33,15.88-15.34
		c-6.03-15.67-16.99-22.55-27.26-17C140.88,57.41,141.52,68.48,147.68,71.54z M154.89,63.22c0.38-2.68,2.85-4.54,5.53-4.16
		c2.68,0.38,4.54,2.85,4.16,5.53c-0.38,2.68-2.85,4.54-5.53,4.16C156.38,68.37,154.51,65.9,154.89,63.22z"/>
	<path class="st0" d="M159.05,68.75c2.68,0.38,5.15-1.49,5.53-4.16c0.38-2.68-1.49-5.15-4.16-5.53c-2.68-0.38-5.15,1.49-5.53,4.16
		C154.51,65.9,156.38,68.37,159.05,68.75z"/>
	<path class="st0" d="M125.7,68.74c0.93,2.38,4.58,4.8,7.75,5.55l-1.19,6.16c-5.26-1.25-9.05-5.89-9.09-5.95
		c-0.37-0.47-1.06-0.54-1.53-0.17c-0.47,0.38-0.54,1.06-0.17,1.53c0.23,0.28,5.62,6.92,13.09,7.07c0.09,0,0.17,0,0.26,0
		c4.25,0,8.25-2.12,11.89-6.31c0.39-0.45,0.34-1.14-0.11-1.54c-0.45-0.39-1.14-0.34-1.54,0.11c-3.21,3.7-6.65,5.57-10.25,5.57
		c-0.06,0-0.13,0-0.2,0c-0.07,0-0.13-0.01-0.2-0.01l1.2-6.19c4.59,0.05,8.78-2.88,8.45-5.53c-0.34-2.69-9.11-6.63-15.3-4.56
		c-0.47,0.16-0.94,0.34-1.37,0.57C125.52,66.03,125.17,67.38,125.7,68.74z"/>
	<path class="st0" d="M75.54,125.88c0.83,0.7,1.69,1.22,2.57,1.49c8.7,2.72,0.54-8.7,1.09-14.68c0.21-2.31,0.09-5.52-0.6-8.46
		c-1.04-4.4-3.38-8.16-7.84-7.44c-0.26,0.04-0.52,0.06-0.8,0.14c-4.84,1.29-3.63,12.58,0.2,21.09
		C71.62,121.3,73.48,124.16,75.54,125.88z"/>
	<path class="st0" d="M182.82,116.52c-0.14,1.04-0.59,2.19-1.17,3.37c-2.72,5.54-8.54,11.77-1.04,11.18
		c0.15-0.01,0.31-0.05,0.47-0.07c4.12-0.66,8.83-5.73,12.12-11.42c3.93-6.8,5.81-14.44,2.15-16.37c-0.71-0.37-1.38-0.57-2.03-0.69
		C187.11,101.42,183.55,111.14,182.82,116.52z"/>
</g>
<g id="Designed_by_Vecteezy">
</g>
</svg>
