<?xml version="1.0" encoding="utf-8"?>
<!-- Generator: Adobe Illustrator 24.1.0, SVG Export Plug-In . SVG Version: 6.00 Build 0)  -->
<svg version="1.1" id="Layer_1" xmlns="http://www.w3.org/2000/svg" xmlns:xlink="http://www.w3.org/1999/xlink" x="0px" y="0px"
	 viewBox="0 0 250 214.6" enable-background="new 0 0 250 214.6" xml:space="preserve">
<g id="_x31_">
	<path fill="#191919" d="M85.4,199.9c6.1,3,2.5-7.4,2.1-13.7c-2.4-0.7-4.4-1.5-5.7-2.4c-2.2-1.4-3.9-3.3-5.4-5.7
		c0.2,1.8,0.6,4.4,1.3,7.3C79,191.2,81.4,197.9,85.4,199.9z"/>
	<path fill="#191919" d="M168.4,185.3c0.5,5.8-4.5,18.8,2.1,15.5c4-2,6.3-8.5,7.7-14.2c0.7-3,1.1-5.9,1.4-7.6
		C176.9,181.5,173.1,183.6,168.4,185.3z"/>
	<path fill="#393939" d="M97.4,44.1c-3.8-2.9-12.6-9.2-14.6-5.8c-1.7,2.9-0.2,11.1,1,16.4C87.5,50.2,92,46.7,97.4,44.1z"/>
	<path fill="#393939" d="M182.3,62.1c2.1-4.5,6.3-14.3,5.1-17.9c-1.6-4.8-17.4,4-17.4,4l0.1,0.1C175.2,52.4,179.1,57.2,182.3,62.1z"
		/>
	<path fill="#393939" d="M66.1,168.1c-1.6,0.8-3.2,1.4-4.8,2c3.6-1.3,7.1-3,10.3-5.2v-2.1c-0.9-6.1-1.4-13.6-1.5-22.3
		c-2.1-0.1-6.2-0.2-11.4,0.1c0.7-0.1,1.4-0.1,2.1-0.1C60.8,148.5,61.6,160.1,66.1,168.1z"/>
	<path fill="#393939" d="M58.8,170.9c-0.8,0.2-1.6,0.5-2.5,0.6C57.2,171.3,58,171.1,58.8,170.9z"/>
	<path fill="#393939" d="M56.3,171.5c-2.8-7.6-5.7-18.7-5.2-30.1c-2.7,0.4-5.4,0.9-8.2,1.6c0.3,7.4,1.4,20.9,5.5,29.9
		C51.1,172.6,53.7,172.2,56.3,171.5z"/>
	<path fill="#393939" d="M61.3,170.1c-0.8,0.3-1.6,0.5-2.4,0.8C59.7,170.6,60.5,170.4,61.3,170.1z"/>
	<path fill="#393939" d="M15.8,166.1c-0.1-0.1-0.1-0.1-0.2-0.2C15.7,166,15.7,166,15.8,166.1z"/>
	<path fill="#393939" d="M17,167.1c-0.1-0.1-0.3-0.2-0.4-0.3C16.7,166.9,16.9,167,17,167.1z"/>
	<path fill="#393939" d="M21.1,169.3c-0.2-0.1-0.5-0.2-0.7-0.3C20.7,169.1,20.9,169.2,21.1,169.3z"/>
	<path fill="#393939" d="M24.2,170.5c-0.3-0.1-0.5-0.2-0.8-0.3C23.7,170.3,23.9,170.4,24.2,170.5z"/>
	<path fill="#393939" d="M22.6,169.9c-0.3-0.1-0.5-0.2-0.8-0.3C22.1,169.7,22.4,169.8,22.6,169.9z"/>
	<path fill="#393939" d="M32,146.7c-4,1.8-7.8,4.1-11.1,7.1c-0.6,4.5-0.4,11,3.4,16.8c3.6,1.2,7.8,2,12.5,2.4
		C34.1,165.9,31.7,156.6,32,146.7z"/>
	<path fill="#393939" d="M18.1,167.8c-0.2-0.1-0.3-0.2-0.5-0.3C17.8,167.6,17.9,167.7,18.1,167.8z"/>
	<path fill="#393939" d="M42.4,173.1c-2,0-3.9-0.1-5.8-0.2C38.5,173.1,40.5,173.1,42.4,173.1z"/>
	<path fill="#393939" d="M19.4,168.5c-0.2-0.1-0.4-0.2-0.6-0.3C19,168.3,19.2,168.4,19.4,168.5z"/>
	<path fill="#393939" d="M14.6,164.6c-0.1-0.1-0.1-0.2-0.1-0.2C14.5,164.4,14.5,164.5,14.6,164.6z"/>
	<path fill="#393939" d="M45.4,173.1c-1,0.1-2,0.1-2.9,0.1C43.4,173.1,44.4,173.1,45.4,173.1z"/>
	<path fill="#393939" d="M48.4,172.9c-1,0.1-2,0.2-3,0.2C46.4,173,47.4,172.9,48.4,172.9z"/>
	<path fill="#393939" d="M56.5,140.8c0.7-0.1,1.3-0.1,1.9-0.1C57.8,140.7,57.1,140.7,56.5,140.8z"/>
	<path fill="#393939" d="M19.1,155.4c0.6-0.6,1.1-1.1,1.7-1.6C20.2,154.2,19.6,154.8,19.1,155.4z"/>
	<path fill="#393939" d="M37.5,144.5c0.8-0.3,1.7-0.5,2.5-0.8C39.2,144,38.4,144.2,37.5,144.5z"/>
	<path fill="#393939" d="M32,146.7c1.8-0.8,3.5-1.5,5.4-2.1C35.5,145.2,33.7,145.9,32,146.7z"/>
	<path fill="#393939" d="M17.5,157.1c0.5-0.6,1-1.1,1.6-1.7C18.5,155.9,18,156.5,17.5,157.1z"/>
	<path fill="#393939" d="M14.1,163.6C14.1,163.6,14.1,163.5,14.1,163.6C14.1,163.5,14.1,163.6,14.1,163.6z"/>
	<path fill="#393939" d="M51.2,141.4c0.8-0.1,1.6-0.2,2.3-0.3C52.8,141.2,52,141.3,51.2,141.4z"/>
	<path fill="#393939" d="M14,162.8c0-0.1,0-0.2,0-0.2C14,162.7,14,162.8,14,162.8z"/>
	<path fill="#393939" d="M14.1,162.1c0-0.1,0-0.1,0.1-0.2C14.1,161.9,14.1,162,14.1,162.1z"/>
	<path fill="#393939" d="M15.9,159c0.4-0.5,0.7-0.9,1.1-1.4C16.7,158,16.3,158.5,15.9,159z"/>
	<path fill="#393939" d="M54.1,141c0.7-0.1,1.3-0.1,1.9-0.2C55.3,140.9,54.7,140.9,54.1,141z"/>
	<path fill="#393939" d="M40.2,143.7c0.9-0.2,1.8-0.5,2.7-0.7C42,143.2,41.1,143.4,40.2,143.7z"/>
	<path fill="#393939" d="M15.1,165.4c-0.1-0.1-0.1-0.2-0.2-0.3C15,165.2,15,165.3,15.1,165.4z"/>
	<path fill="#878787" d="M76.4,178.2c1.5,2.4,3.3,4.3,5.4,5.7c1.3,0.8,3.3,1.6,5.7,2.4c17,5.1,58.5,6.9,80.8-1
		c4.7-1.7,8.6-3.8,11.2-6.4c0.5-0.5,0.9-1,1.3-1.5c7.3-9.9,11.4-34.5,12.4-57.8c-3.3,5.7-8,10.8-12.1,11.4c-1.4,12.4-5,25-10.1,33.3
		c-10.9,17.9-64.7,20.7-81.6,4.4c-8.7-8.4-13.8-26-13.9-42.8c-2.1-1.7-3.9-4.6-5.4-7.9c-0.1,8.3-0.2,15.8-0.1,22.5
		c0.2,8.8,0.6,16.2,1.5,22.3C72.6,169.3,74.1,174.4,76.4,178.2z"/>
	<path fill="#878787" d="M78.6,104.2c2.3-6.8,5.8-12.3,10.9-15.5c14.7-9.2,75-7.1,85.9,6.5c4.3,5.4,6.2,14.4,6.3,24.6
		c0.6-1.2,1-2.3,1.2-3.4c0.7-5.4,4.3-15.1,10.5-14c-0.4-13.4-2-24.7-4.9-30.1c-0.6-1.1-1.1-2.1-1.7-3.2c2.8-5.8,11.8-25.5,6-31
		c-6.9-6.5-28.5,5.9-28.5,5.9l0.2,0.3c-8.6-5.1-20.1-8.2-35.8-7.3c-9.4,0.5-17.5,1.9-24.5,4.2c-4.6-3.7-18.7-14.2-25.3-10
		c-6.7,4.2-2,24.6-0.2,31.2c-4.5,8.7-7,19.9-7.9,34.2C75.2,96.1,77.6,99.8,78.6,104.2z M170,48.2c0,0,15.8-8.7,17.4-4
		c1.2,3.6-2.9,13.4-5.1,17.9C179.1,57.2,175.1,52.4,170,48.2L170,48.2z M152.2,51.3c10.3-5.5,21.2,1.3,27.3,17
		c6,15.7-7.8,16.5-15.9,15.3c-8.1-1.1-9.7-9.1-15.9-12.1C141.5,68.5,140.9,57.4,152.2,51.3z M122.1,49.1c6.6,4.8,8.1,11,6.6,15.4
		c6.2-2.1,15,1.9,15.3,4.6c0.3,2.6-3.9,5.6-8.4,5.5l-1.2,6.2c0.1,0,0.1,0,0.2,0c0.1,0,0.1,0,0.2,0c3.6,0,7-1.9,10.2-5.6
		c0.4-0.4,1.1-0.5,1.5-0.1s0.5,1.1,0.1,1.5c-3.6,4.2-7.6,6.3-11.9,6.3c-0.1,0-0.2,0-0.3,0c-7.5-0.2-12.9-6.8-13.1-7.1
		c-0.4-0.5-0.3-1.2,0.2-1.5c0.5-0.4,1.2-0.3,1.5,0.2c0,0.1,3.8,4.7,9.1,5.9l1.2-6.2c-3.2-0.8-6.8-3.2-7.8-5.6
		c-0.6,0.4-1.2,0.8-1.9,1c-6.5,2.2-9.2,9.8-17.4,9.8S84.4,76.7,92.6,62S112.8,42.2,122.1,49.1z M82.8,38.2c2-3.4,10.8,2.9,14.6,5.8
		c-5.4,2.7-9.9,6.1-13.6,10.5C82.6,49.4,81.1,41.1,82.8,38.2z"/>
	<path fill="#A5A5A5" d="M181.6,119.9c-0.1-10.1-2-19.2-6.3-24.6c-10.9-13.6-71.2-15.8-85.9-6.5c-5,3.2-8.6,8.7-10.9,15.5
		c0.7,2.9,0.8,6.1,0.6,8.5c-0.5,6,7.6,17.4-1.1,14.7c-0.9-0.3-1.7-0.8-2.6-1.5c0.1,16.8,5.2,34.4,13.9,42.8
		c16.8,16.3,70.7,13.6,81.5-4.4c5.1-8.3,8.7-20.9,10.1-33.3c-0.2,0-0.3,0.1-0.5,0.1C173.1,131.7,178.9,125.4,181.6,119.9z"/>
	<path fill="#A5A5A5" d="M20.8,153.7L20.8,153.7L20.8,153.7c-0.6,0.5-1.2,1.1-1.7,1.6c0,0,0,0,0,0.1c-0.5,0.6-1.1,1.1-1.6,1.7
		c-0.1,0.2-0.3,0.3-0.4,0.5c-0.4,0.5-0.8,0.9-1.1,1.4c-0.5,0.7-1,1.4-1.4,2.1c-0.1,0.2-0.3,0.5-0.3,0.7c0,0.1,0,0.1-0.1,0.2
		c-0.1,0.2-0.1,0.4-0.1,0.6c0,0.1,0,0.2,0,0.2c0,0.2,0,0.4,0.1,0.7v0.1c0.1,0.2,0.2,0.5,0.3,0.7c0,0.1,0.1,0.2,0.1,0.2
		c0.1,0.2,0.2,0.3,0.3,0.5c0.1,0.1,0.1,0.2,0.2,0.3c0.1,0.2,0.3,0.4,0.5,0.5c0.1,0.1,0.1,0.1,0.2,0.2c0.2,0.2,0.5,0.4,0.8,0.7
		c0.1,0.1,0.3,0.2,0.4,0.3c0.2,0.1,0.4,0.3,0.6,0.4c0.2,0.1,0.3,0.2,0.5,0.3s0.5,0.3,0.7,0.4c0.2,0.1,0.4,0.2,0.6,0.3
		c0.3,0.2,0.7,0.4,1.1,0.5c0.2,0.1,0.5,0.2,0.7,0.3s0.5,0.2,0.7,0.3s0.5,0.2,0.8,0.3s0.5,0.2,0.8,0.3s0.5,0.2,0.8,0.3l0,0l0,0
		C20.4,164.7,20.2,158.2,20.8,153.7z"/>
	<path fill="#A5A5A5" d="M36.7,172.9L36.7,172.9c1.9,0.2,3.8,0.2,5.8,0.2l0,0c1,0,2,0,2.9-0.1c0,0,0,0,0.1,0c1-0.1,2-0.1,3-0.2l0,0
		l0,0c-4.2-9-5.3-22.5-5.5-29.9l0,0l0,0c-0.9,0.2-1.8,0.4-2.7,0.7c0,0-0.1,0-0.2,0.1c-0.8,0.2-1.7,0.5-2.5,0.8
		c-0.1,0-0.2,0.1-0.2,0.1c-1.8,0.6-3.6,1.3-5.4,2.1l0,0l0,0C31.7,156.6,34.1,165.9,36.7,172.9L36.7,172.9z"/>
	<path fill="#A5A5A5" d="M56.3,171.5L56.3,171.5L56.3,171.5c0.8-0.2,1.7-0.4,2.5-0.6l0,0c0.8-0.2,1.6-0.5,2.4-0.8l0,0
		c1.6-0.6,3.2-1.2,4.8-2c-4.5-8-5.3-19.6-5.4-27.6c-0.7,0-1.4,0.1-2.1,0.1c-0.1,0-0.2,0-0.2,0c-0.6,0-1.3,0.1-1.9,0.1
		c-0.2,0-0.3,0-0.5,0c-0.6,0.1-1.3,0.1-1.9,0.2c-0.2,0-0.3,0-0.5,0.1c-0.8,0.1-1.5,0.2-2.3,0.3h-0.1l0,0
		C50.6,152.8,53.6,163.9,56.3,171.5z"/>
	<path fill="#393939" d="M92.8,62.1c-8.2,14.7,5.4,17.4,13.6,17.4s10.9-7.6,17.4-9.8c0.7-0.2,1.3-0.6,1.9-1
		c-0.5-1.4-0.2-2.7,1.7-3.7c0.4-0.2,0.9-0.4,1.4-0.6c1.4-4.4-0.1-10.5-6.6-15.4C112.8,42.2,100.9,47.5,92.8,62.1z M112.9,55.6
		c2.7,0,4.9,2.2,4.9,4.9s-2.2,4.9-4.9,4.9s-4.9-2.2-4.9-4.9S110.2,55.6,112.9,55.6z"/>
	<circle fill="#191919" cx="112.9" cy="60.5" r="4.9"/>
	<path fill="#393939" d="M147.7,71.5c6.2,3.1,7.8,11,15.9,12.1s21.9,0.3,15.9-15.3s-17-22.5-27.3-17
		C140.9,57.4,141.5,68.5,147.7,71.5z M154.9,63.2c0.4-2.7,2.9-4.5,5.5-4.2s4.5,2.8,4.2,5.5c-0.4,2.7-2.9,4.5-5.5,4.2
		C156.4,68.4,154.5,65.9,154.9,63.2z"/>
	<path fill="#191919" d="M159.1,68.8c2.7,0.4,5.1-1.5,5.5-4.2c0.4-2.7-1.5-5.2-4.2-5.5c-2.7-0.4-5.1,1.5-5.5,4.2
		C154.5,65.9,156.4,68.4,159.1,68.8z"/>
	<path fill="#191919" d="M125.7,68.7c0.9,2.4,4.6,4.8,7.8,5.6l-1.2,6.2c-5.3-1.2-9.1-5.9-9.1-5.9c-0.4-0.5-1.1-0.5-1.5-0.2
		c-0.5,0.4-0.5,1.1-0.2,1.5c0.2,0.3,5.6,6.9,13.1,7.1c0.1,0,0.2,0,0.3,0c4.2,0,8.2-2.1,11.9-6.3c0.4-0.4,0.3-1.1-0.1-1.5
		c-0.4-0.4-1.1-0.3-1.5,0.1c-3.2,3.7-6.6,5.6-10.2,5.6c-0.1,0-0.1,0-0.2,0c-0.1,0-0.1,0-0.2,0l1.2-6.2c4.6,0.1,8.8-2.9,8.4-5.5
		c-0.3-2.7-9.1-6.6-15.3-4.6c-0.5,0.2-0.9,0.3-1.4,0.6C125.5,66,125.2,67.4,125.7,68.7z"/>
	<path fill="#191919" d="M75.5,125.9c0.8,0.7,1.7,1.2,2.6,1.5c8.7,2.7,0.5-8.7,1.1-14.7c0.2-2.3,0.1-5.5-0.6-8.5
		c-1-4.4-3.4-8.2-7.8-7.4c-0.3,0-0.5,0.1-0.8,0.1c-4.8,1.3-3.6,12.6,0.2,21.1C71.6,121.3,73.5,124.2,75.5,125.9z"/>
	<path fill="#191919" d="M182.8,116.5c-0.1,1-0.6,2.2-1.2,3.4c-2.7,5.5-8.5,11.8-1,11.2c0.1,0,0.3-0.1,0.5-0.1
		c4.1-0.7,8.8-5.7,12.1-11.4c3.9-6.8,5.8-14.4,2.1-16.4c-0.7-0.4-1.4-0.6-2-0.7C187.1,101.4,183.6,111.1,182.8,116.5z"/>
</g>
<g id="Designed_by_Vecteezy">
</g>
</svg>
