<?xml version="1.0" encoding="utf-8"?>
<!-- Generator: Adobe Illustrator 24.1.0, SVG Export Plug-In . SVG Version: 6.00 Build 0)  -->
<svg version="1.1" id="Layer_1" xmlns="http://www.w3.org/2000/svg" xmlns:xlink="http://www.w3.org/1999/xlink" x="0px" y="0px"
	 viewBox="0 0 708.8 144" enable-background="new 0 0 708.8 144" xml:space="preserve">
<g id="background">
</g>
<g id="bars">
</g>
<g>
	<g>
		<path fill="#DCDDDE" d="M24.3,137.5c-9.7,0-17.5-28.8-17.5-64.6S14.6,8.3,24.3,8.3h665c9.7,0,17.5,28.8,17.5,64.6
			s-7.8,64.6-17.5,64.6H24.3z"/>
	</g>
	<path fill="#D99E4F" d="M24.3,137.5c-9.7,0-17.5-28.8-17.5-64.6S14.6,8.3,24.3,8.3h175c9.7,0,17.5,28.8,17.5,64.6
		s-7.8,64.6-17.5,64.6H24.3z"/>
	
		<linearGradient id="SVGID_1_" gradientUnits="userSpaceOnUse" x1="356.65" y1="350.7" x2="356.65" y2="221.5" gradientTransform="matrix(1 0 0 1 0 -213.2)">
		<stop  offset="0" style="stop-color:#FFFFFF;stop-opacity:0"/>
		<stop  offset="4.481354e-02" style="stop-color:#FFFFFF;stop-opacity:8.962709e-02"/>
		<stop  offset="0.5" style="stop-color:#FFFFFF"/>
		<stop  offset="0.9552" style="stop-color:#FFFFFF;stop-opacity:8.962709e-02"/>
		<stop  offset="1" style="stop-color:#FFFFFF;stop-opacity:0"/>
	</linearGradient>
	<path opacity="0.3" fill="url(#SVGID_1_)" enable-background="new    " d="M246.9,8.3l-35,129.2h2.8l35-129.2
		C249.7,8.3,246.9,8.3,246.9,8.3z M225.9,8.3l-35,129.2h2.8l35-129.2C228.7,8.3,225.9,8.3,225.9,8.3z M183.9,8.3l-35,129.2h2.8
		l35-129.2C186.7,8.3,183.9,8.3,183.9,8.3z M204.9,8.3l-35,129.2h2.8l35-129.2C207.7,8.3,204.9,8.3,204.9,8.3z M267.9,8.3l-35,129.2
		h2.8l35-129.2C270.7,8.3,267.9,8.3,267.9,8.3z M330.9,8.3l-35,129.2h2.8l35-129.2C333.7,8.3,330.9,8.3,330.9,8.3z M309.9,8.3
		l-35,129.2h2.8l35-129.2C312.7,8.3,309.9,8.3,309.9,8.3z M288.9,8.3l-35,129.2h2.8l35-129.2C291.7,8.3,288.9,8.3,288.9,8.3z
		 M120.9,8.3l-35,129.2h2.8l35-129.2C123.7,8.3,120.9,8.3,120.9,8.3z M78.9,8.3l-35,129.2h2.8l35-129.2C81.7,8.3,78.9,8.3,78.9,8.3z
		 M57.9,8.3L23,137.1c0.4,0,0.9,0.4,1.3,0.4h1.5l35-129.2C60.8,8.3,57.9,8.3,57.9,8.3z M36.9,8.3L9.7,108.7c0.4,2.2,0.8,4.1,1.2,5.9
		L39.7,8.3H36.9z M8.2,47.1l9-33.2C13.2,20.1,10,31.9,8.2,47.1z M141.9,8.3l-35,129.2h2.8l35-129.2C144.7,8.3,141.9,8.3,141.9,8.3z
		 M162.9,8.3l-35,129.2h2.8l35-129.2C165.7,8.3,162.9,8.3,162.9,8.3z M99.9,8.3l-35,129.2h2.8l35-129.2C102.7,8.3,99.9,8.3,99.9,8.3
		z M351.9,8.3l-35,129.2h2.8l35-129.2C354.7,8.3,351.9,8.3,351.9,8.3z M477.9,8.3l-35,129.2h2.8l35-129.2
		C480.7,8.3,477.9,8.3,477.9,8.3z M625,8.3l-35,129.2h2.8l35-129.2C627.8,8.3,625,8.3,625,8.3z M646,8.3l-35,129.2h2.8l35-129.2
		C648.8,8.3,646,8.3,646,8.3z M604,8.3l-35,129.2h2.8l35-129.2C606.8,8.3,604,8.3,604,8.3z M583,8.3l-35,129.2h2.8l35-129.2
		C585.8,8.3,583,8.3,583,8.3z M689.3,8.3H688l-35,129.2h2.8L690.7,8.7C690.2,8.3,689.8,8.3,689.3,8.3z M667,8.3l-35,129.2h2.8
		l35-129.2C669.8,8.3,667,8.3,667,8.3z M702.7,31.5l-28.7,106h2.8l27.1-100.1C703.5,35.2,703.1,33.4,702.7,31.5z M562,8.3l-35,129.2
		h2.8l35-129.2C564.8,8.3,562,8.3,562,8.3z M498.9,8.3l-35,129.2h2.8l35-129.2C501.7,8.3,498.9,8.3,498.9,8.3z M414.9,8.3l-35,129.2
		h2.8l35-129.2C417.7,8.3,414.9,8.3,414.9,8.3z M435.9,8.3l-35,129.2h2.8l35-129.2C438.7,8.3,435.9,8.3,435.9,8.3z M393.9,8.3
		l-35,129.2h2.8l35-129.2C396.7,8.3,393.9,8.3,393.9,8.3z M456.9,8.3l-35,129.2h2.8l35-129.2C459.7,8.3,456.9,8.3,456.9,8.3z
		 M540.9,8.3l-35,129.2h2.8l35-129.2C543.7,8.3,540.9,8.3,540.9,8.3z M519.9,8.3l-35,129.2h2.8l35-129.2
		C522.7,8.3,519.9,8.3,519.9,8.3z M696.6,131.6c3.8-6.3,6.8-17.7,8.5-31.4L696.6,131.6z M372.9,8.3l-35,129.2h2.8l35-129.2
		C375.7,8.3,372.9,8.3,372.9,8.3z"/>
	
		<linearGradient id="SVGID_2_" gradientUnits="userSpaceOnUse" x1="356.8" y1="358.1" x2="356.8" y2="214.1" gradientTransform="matrix(1 0 0 1 0 -213.2)">
		<stop  offset="0" style="stop-color:#FFFFFF"/>
		<stop  offset="0.5" style="stop-color:#FFFFFF;stop-opacity:0"/>
		<stop  offset="1" style="stop-color:#FFFFFF"/>
	</linearGradient>
	<path fill="url(#SVGID_2_)" d="M689.3,8.3c9.7,0,17.5,28.8,17.5,64.6s-7.8,64.6-17.5,64.6h-665c-9.7,0-17.5-28.8-17.5-64.6
		S14.6,8.3,24.3,8.3L689.3,8.3 M689.3,0.9h-665C13.5,0.9,4.8,33,4.8,72.9c0,39.5,8.7,72,19.5,72h665c10.8,0,19.5-32.1,19.5-72
		S700,0.9,689.3,0.9L689.3,0.9z"/>
	<g>
		<g>
			<g>
				<defs>
					<path id="SVGID_3_" d="M24.3,137.5c-9.7,0-17.5-28.8-17.5-64.6S14.6,8.3,24.3,8.3h665c9.7,0,17.5,28.8,17.5,64.6
						s-7.8,64.6-17.5,64.6H24.3z"/>
				</defs>
				<clipPath id="SVGID_4_">
					<use xlink:href="#SVGID_3_"  overflow="visible"/>
				</clipPath>
				<g clip-path="url(#SVGID_4_)">
					<g>
						<path fill="#FFFFFF" d="M-3.7-27.5v191.3H715V-27.5H-3.7z M689.3,137.5h-665c-9.7,0-17.5-28.8-17.5-64.6S14.6,8.3,24.3,8.3
							h665c9.7,0,17.5,28.8,17.5,64.6C706.8,108.3,698.9,137.5,689.3,137.5z"/>
					</g>
				</g>
			</g>
		</g>
	</g>
	
		<linearGradient id="SVGID_5_" gradientUnits="userSpaceOnUse" x1="356.8" y1="232.4792" x2="356.8" y2="308.1042" gradientTransform="matrix(1 0 0 1 0 -213.2)">
		<stop  offset="0" style="stop-color:#FFFFFF"/>
		<stop  offset="1" style="stop-color:#FFFFFF;stop-opacity:0"/>
	</linearGradient>
	<path opacity="0.6" fill="url(#SVGID_5_)" enable-background="new    " d="M24.3,19.4c-8,0-14.5,24-14.5,53.5s694,29.5,694,0
		s-6.5-53.5-14.5-53.5C689.3,19.4,24.3,19.4,24.3,19.4z"/>
</g>
</svg>
