<?xml version="1.0" encoding="utf-8"?>
<!-- Generator: Adobe Illustrator 24.1.0, SVG Export Plug-In . SVG Version: 6.00 Build 0)  -->
<svg version="1.1" xmlns="http://www.w3.org/2000/svg" xmlns:xlink="http://www.w3.org/1999/xlink" x="0px" y="0px"
	 viewBox="0 0 250 250" style="enable-background:new 0 0 250 250;" xml:space="preserve">
<style type="text/css">
	.st0{fill:#A5A5A5;}
	.st1{fill:#393939;}
	.st2{fill:#191919;}
	.st3{fill:#878787;}
</style>
<g id="_x31_">
</g>
<g id="Designed_by_Vecteezy">
	<path class="st0" d="M181.96,118.15c0.04-0.06,0.09-0.13,0.13-0.19c-0.6-8.04-2.52-15.05-6.08-19.49
		c-10.87-13.59-71.22-15.77-85.9-6.52c-5.4,3.4-9.11,9.53-11.34,16.97c1.76,1.86,3.23,3.98,4.16,5.71c2.85,5.29,4.59-8.24-4.16-5.71
		c-3.55,1.03,2.42,17.28-2.4,13.81c-1.28,18.54,3.96,39.66,13.74,49.13c16.85,16.31,70.67,13.59,81.55-4.35
		c5.67-9.36,9.56-24.04,10.45-37.87"/>
	<path class="st1" d="M71.08,154.3c-1.2,0.59-2.47,1.23-3.78,1.94C68.61,155.54,69.88,154.89,71.08,154.3L71.08,154.3z"/>
	<path class="st1" d="M47.85,196.27c-0.28,0.01-0.56,0.02-0.83,0.03C47.3,196.3,47.57,196.29,47.85,196.27z"/>
	<path class="st1" d="M46.25,196.31c-0.26,0-0.51,0-0.76,0C45.74,196.31,46,196.31,46.25,196.31z"/>
	<path class="st1" d="M62.8,158.82c1.47-0.89,2.9-1.71,4.29-2.46C65.7,157.11,64.27,157.92,62.8,158.82z"/>
	<path class="st1" d="M51.45,167.12c1.43-1.27,2.9-2.46,4.39-3.59C54.35,164.66,52.88,165.86,51.45,167.12z"/>
	<path class="st1" d="M47.25,171.23c1.31-1.42,2.7-2.77,4.13-4.04C49.95,168.46,48.56,169.81,47.25,171.23z"/>
	<path class="st1" d="M67.32,191.43c-1.8,0.78-3.61,1.46-5.4,2.05C63.7,192.89,65.51,192.21,67.32,191.43z"/>
	<path class="st1" d="M72.7,188.8c-0.87,0.48-1.75,0.93-2.64,1.37C70.95,189.73,71.83,189.28,72.7,188.8z"/>
	<path class="st1" d="M70,190.2c-0.89,0.43-1.77,0.84-2.66,1.22C68.22,191.04,69.11,190.63,70,190.2z"/>
	<path class="st1" d="M47.25,171.23c-2.98,3.24-5.57,6.86-7.46,10.87c1.23,4.39,3.94,10.28,9.72,14.05
		c-0.28,0.03-0.56,0.04-0.83,0.06c1.39-0.1,2.85-0.27,4.38-0.52c2.8-0.47,5.79-1.2,8.86-2.21
		C56.78,188.03,50.97,180.45,47.25,171.23z"/>
	<path class="st1" d="M72.71,188.8c1.72-0.94,3.41-1.97,5.05-3.09c-0.27-1.45-0.46-2.74-0.6-3.8c-5.09-5.83-10.86-13.81-14.37-23.08
		c-2.29,1.4-4.64,2.97-6.94,4.71C59,170.2,65.31,182.16,72.71,188.8z"/>
	<path class="st0" d="M39.79,182.11L39.79,182.11C39.79,182.11,39.79,182.11,39.79,182.11c-0.34,0.72-0.66,1.45-0.95,2.19
		c-0.01,0.02-0.02,0.05-0.03,0.07c-0.28,0.71-0.54,1.44-0.77,2.17c-0.06,0.19-0.11,0.39-0.16,0.58c-0.17,0.58-0.34,1.17-0.49,1.77
		c-0.19,0.81-0.36,1.64-0.49,2.48c-0.04,0.29-0.04,0.56-0.02,0.82c0.01,0.08,0.02,0.15,0.03,0.23c0.03,0.19,0.07,0.36,0.14,0.54
		c0.03,0.07,0.05,0.15,0.08,0.22c0.09,0.2,0.21,0.4,0.35,0.58c0.02,0.02,0.03,0.05,0.05,0.07c0.16,0.2,0.35,0.39,0.56,0.56
		c0.07,0.06,0.15,0.12,0.23,0.17c0.16,0.12,0.33,0.23,0.51,0.33c0.1,0.06,0.2,0.11,0.3,0.17c0.21,0.11,0.44,0.21,0.68,0.3
		c0.09,0.03,0.16,0.07,0.25,0.11c0.31,0.11,0.65,0.21,1.01,0.3c0.15,0.04,0.32,0.07,0.48,0.11c0.23,0.05,0.46,0.1,0.71,0.14
		c0.19,0.03,0.38,0.06,0.57,0.09c0.25,0.04,0.52,0.06,0.78,0.09c0.22,0.02,0.44,0.05,0.67,0.06c0.39,0.03,0.79,0.05,1.2,0.06
		c0.25,0.01,0.5,0,0.76,0c0.26,0,0.51,0,0.77-0.01c0.27-0.01,0.55-0.02,0.83-0.03c0.27-0.01,0.55-0.03,0.83-0.05
		c0.28-0.02,0.55-0.04,0.83-0.06C43.73,192.38,41.02,186.49,39.79,182.11z"/>
	<path class="st0" d="M61.92,193.48L61.92,193.48C61.92,193.48,61.92,193.48,61.92,193.48c1.79-0.59,3.6-1.28,5.4-2.06
		c0.01,0,0.01,0,0.02-0.01c0.89-0.38,1.78-0.79,2.66-1.22c0.02-0.01,0.04-0.02,0.07-0.03c0.88-0.43,1.77-0.89,2.64-1.37
		c0,0,0,0,0.01,0v0c-7.4-6.64-13.71-18.59-16.87-25.26l0,0c0,0,0,0,0,0c-1.49,1.12-2.96,2.32-4.39,3.59
		c-0.02,0.02-0.05,0.04-0.07,0.06c-1.43,1.27-2.82,2.62-4.13,4.04c0,0,0,0,0,0v0C50.97,180.45,56.78,188.03,61.92,193.48z"/>
	<path class="st0" d="M77.08,181.33c-3.55-5.83-5.28-14.68-6-27.03c-1.2,0.59-2.47,1.23-3.78,1.94c-0.07,0.04-0.13,0.07-0.2,0.11
		c-1.39,0.75-2.83,1.57-4.29,2.46c-0.01,0-0.01,0.01-0.02,0.01h0c3.51,9.27,9.28,17.25,14.37,23.08
		C77.13,181.71,77.1,181.51,77.08,181.33z"/>
	<path class="st2" d="M77.08,181.33c0.02,0.18,0.05,0.38,0.07,0.57c0.14,1.06,0.33,2.34,0.6,3.8c1.14,6.23,3.56,15.02,8.33,17.41
		c6.06,3.03,2.47-7.38,2.13-13.67c-2.45-0.73-4.43-1.52-5.72-2.37C80.33,185.67,78.55,183.76,77.08,181.33z"/>
	<path class="st2" d="M168.99,188.47c0.51,5.8-4.54,18.8,2.14,15.46c4.89-2.44,7.3-11.59,8.41-17.84c0.28-1.59,0.48-2.99,0.61-4.04
		C177.59,184.67,173.72,186.79,168.99,188.47z"/>
	<path class="st1" d="M98.03,47.23c-3.77-2.93-12.59-9.25-14.57-5.85c-1.68,2.88-0.18,11.14,1.02,16.41
		C88.15,53.38,92.63,49.89,98.03,47.23z"/>
	<path class="st1" d="M182.98,65.25c2.1-4.5,6.3-14.26,5.05-17.87c-1.65-4.76-17.4,3.97-17.4,3.97l0.09,0.13
		C175.82,55.57,179.75,60.37,182.98,65.25z"/>
	<path class="st3" d="M78.77,108.91c2.23-7.44,5.94-13.57,11.34-16.97c14.68-9.24,75.02-7.07,85.9,6.52
		c3.56,4.44,5.47,11.45,6.08,19.49c2.37-3.68,7.4-8.96,11.94-9.16c-0.23-14.71-1.87-27.36-4.97-33.17
		c-0.56-1.05-1.14-2.12-1.74-3.21c2.82-5.79,11.78-25.49,5.96-31.03c-6.85-6.51-28.48,5.86-28.48,5.86l0.25,0.31
		c-8.64-5.08-20.08-8.17-35.79-7.28c-9.43,0.54-17.54,1.88-24.46,4.2c-4.61-3.7-18.7-14.21-25.32-10
		c-6.65,4.23-1.96,24.56-0.22,31.22c-4.94,9.57-7.48,22.26-8.08,38.73C73.81,104.58,76.52,106.53,78.77,108.91z M170.63,51.36
		c0,0,15.75-8.73,17.4-3.97c1.25,3.61-2.95,13.36-5.05,17.87c-3.23-4.88-7.16-9.68-12.26-13.76L170.63,51.36z M152.81,54.47
		c10.27-5.55,21.22,1.33,27.26,17c6.03,15.67-7.8,16.47-15.88,15.34c-8.08-1.14-9.71-9.05-15.87-12.11
		C142.16,71.64,141.52,60.57,152.81,54.47z M122.78,52.25c6.56,4.83,8.06,10.97,6.63,15.37c6.19-2.07,14.96,1.87,15.3,4.56
		c0.35,2.77-4.26,5.85-9.09,5.5l-0.17,1.59c5.58,1.32,9.06,5.66,9.12,5.73c0.37,0.47,0.28,1.15-0.19,1.52
		c-0.2,0.16-0.43,0.23-0.67,0.23c-0.32,0-0.64-0.14-0.86-0.42c-0.33-0.42-8.22-10.19-19.25-2.06c-0.49,0.36-1.16,0.25-1.52-0.23
		c-0.36-0.48-0.25-1.16,0.23-1.52c4.07-3,7.79-3.84,10.98-3.6l0.18-1.66c-3.01-0.9-6.26-3.16-7.13-5.38
		c-0.59,0.42-1.23,0.77-1.93,1.01c-6.52,2.17-9.24,9.79-17.4,9.79s-21.75-2.72-13.59-17.4C101.58,50.62,113.38,45.33,122.78,52.25z
		 M83.46,41.38c1.98-3.4,10.79,2.92,14.57,5.85c-5.39,2.66-9.88,6.14-13.55,10.55C83.27,52.52,81.78,44.26,83.46,41.38z"/>
	<path class="st3" d="M77.08,181.33c1.47,2.42,3.25,4.33,5.42,5.74c1.29,0.84,3.27,1.64,5.72,2.37c16.98,5.06,58.52,6.93,80.77-0.97
		c4.73-1.68,8.6-3.8,11.16-6.43c0.47-0.48,0.91-0.98,1.29-1.49c7.32-9.95,11.65-48.31,12.58-71.75c-4.63,1.68-8.69,5.09-11.94,9.16
		c-0.89,13.83-4.76,40.19-10.43,49.55c-10.87,17.94-64.69,20.66-81.55,4.35c-9.79-9.47-13.64-45.41-12.36-63.95
		c-2-1.44-5.05-2.54-6.58-3.46c-0.28,14.48-0.66,40.04-0.09,49.86v0C71.8,166.66,73.53,175.51,77.08,181.33z"/>
	<path class="st1" d="M93.42,65.3c-8.15,14.68,5.44,17.4,13.59,17.4s10.87-7.61,17.4-9.79c0.7-0.23,1.34-0.59,1.93-1.01
		c-0.53-1.36-0.19-2.71,1.69-3.71c0.44-0.23,0.9-0.42,1.37-0.57c1.44-4.4-0.07-10.54-6.63-15.37
		C113.38,45.33,101.58,50.62,93.42,65.3z M106.24,59.26c0.97-0.71,2.33-0.5,3.04,0.46c1.5,2.04,3.05,3.08,4.59,3.09
		c0,0,0.01,0,0.01,0c2.33,0,4.57-2.32,5.18-3.13c0.72-0.96,2.08-1.16,3.04-0.45c0.96,0.72,1.16,2.08,0.45,3.04
		c-0.15,0.2-3.69,4.88-8.67,4.88c-0.01,0-0.01,0-0.02,0c-3-0.01-5.72-1.64-8.08-4.86C105.06,61.33,105.27,59.97,106.24,59.26z"/>
	<path class="st1" d="M148.32,74.7c6.16,3.06,7.79,10.98,15.87,12.11c8.08,1.13,21.91,0.33,15.88-15.34
		c-6.03-15.67-16.99-22.55-27.26-17C141.52,60.57,142.16,71.64,148.32,74.7z M152.17,61.87c0.97-0.71,2.33-0.51,3.04,0.46
		c1.5,2.04,3.05,3.08,4.59,3.09c2.4,0.02,4.58-2.31,5.19-3.13c0.72-0.96,2.08-1.17,3.04-0.45c0.96,0.72,1.16,2.08,0.45,3.04
		c-0.15,0.2-3.69,4.88-8.67,4.88c-0.01,0-0.01,0-0.02,0c-3-0.01-5.72-1.64-8.08-4.86C150.99,63.94,151.2,62.58,152.17,61.87z"/>
	<path class="st2" d="M126.34,71.91c0.87,2.22,4.12,4.49,7.13,5.38l-0.18,1.66c-3.19-0.24-6.91,0.6-10.98,3.6
		c-0.48,0.36-0.59,1.04-0.23,1.52c0.36,0.48,1.03,0.59,1.52,0.23c11.03-8.13,18.92,1.64,19.25,2.06c0.21,0.27,0.53,0.42,0.86,0.42
		c0.24,0,0.47-0.08,0.67-0.23c0.47-0.37,0.56-1.05,0.19-1.52c-0.06-0.07-3.54-4.42-9.12-5.73l0.17-1.59
		c4.83,0.35,9.43-2.74,9.09-5.5c-0.34-2.69-9.11-6.63-15.3-4.56c-0.47,0.16-0.94,0.34-1.37,0.57
		C126.15,69.2,125.81,70.54,126.34,71.91z"/>
	<path class="st2" d="M67.29,117.82c0.27,5.93,1.82,11.58,4.83,13.73c7.42,5.29,3.23-8.1,5.61-13.61c0.78-1.8,1.52-4.27,1.89-6.8
		c0.48-3.24,0.33-6.58-1.2-8.73c-0.94-1.32-2.4-2.2-4.56-2.33c-3.29-0.18-5.43,4.55-6.24,10.45
		C67.3,112.86,67.18,115.36,67.29,117.82z"/>
	<path class="st2" d="M184.65,120.56c0.01,0.07,0.02,0.15,0.03,0.23c0.95,5.93-6.39,17.88,2.1,14.57c2.13-0.83,4.04-3.09,5.6-6.03
		c2.02-3.83,3.44-8.81,3.93-13.32c0.65-5.88-0.28-10.96-3.49-11.58c-2.28-0.44-3.98,0.17-5.24,1.38
		C184.29,108.95,184,116.23,184.65,120.56z"/>
	<path class="st2" d="M113.86,67.16c0.01,0,0.01,0,0.02,0c4.98,0,8.52-4.68,8.67-4.88c0.72-0.96,0.52-2.33-0.45-3.04
		c-0.96-0.72-2.32-0.52-3.04,0.45c-0.61,0.81-2.85,3.13-5.18,3.13c0,0-0.01,0-0.01,0c-1.54,0-3.09-1.04-4.59-3.09
		c-0.71-0.97-2.07-1.18-3.04-0.46c-0.97,0.71-1.17,2.07-0.46,3.04C108.14,65.51,110.86,67.15,113.86,67.16z"/>
	<path class="st2" d="M159.79,69.76c0.01,0,0.01,0,0.02,0c4.98,0,8.52-4.68,8.67-4.88c0.72-0.96,0.52-2.33-0.45-3.04
		c-0.96-0.72-2.32-0.51-3.04,0.45c-0.61,0.82-2.79,3.15-5.19,3.13c-1.54,0-3.09-1.04-4.59-3.09c-0.71-0.97-2.07-1.17-3.04-0.46
		c-0.97,0.71-1.17,2.07-0.46,3.04C154.07,68.12,156.79,69.75,159.79,69.76z"/>
</g>
</svg>
