<?xml version="1.0" encoding="utf-8"?>
<!-- Generator: Adobe Illustrator 24.1.0, SVG Export Plug-In . SVG Version: 6.00 Build 0)  -->
<svg version="1.1" id="Layer_1" xmlns="http://www.w3.org/2000/svg" xmlns:xlink="http://www.w3.org/1999/xlink" x="0px" y="0px"
	 viewBox="0 0 250 214.6" enable-background="new 0 0 250 214.6" xml:space="preserve">
<g id="_x31_">
</g>
<g id="Designed_by_Vecteezy">
	<path fill="#A5A5A5" d="M182,118.2c0-0.1,0.1-0.1,0.1-0.2c-0.6-8-2.5-15.1-6.1-19.5c-10.9-13.6-71.2-15.8-85.9-6.5
		c-5.4,3.4-9.1,9.5-11.3,17c1.8,1.9,3.2,4,4.2,5.7c2.8,5.3,4.6-8.2-4.2-5.7c-3.6,1,2.4,17.3-2.4,13.8c-1.3,18.5,4,39.7,13.7,49.1
		c16.8,16.3,70.7,13.6,81.6-4.4c5.7-9.4,9.6-24,10.4-37.9"/>
	<path fill="#393939" d="M71.1,154.3c-1.2,0.6-2.5,1.2-3.8,1.9C68.6,155.5,69.9,154.9,71.1,154.3L71.1,154.3z"/>
	<path fill="#393939" d="M47.8,196.3c-0.3,0-0.6,0-0.8,0C47.3,196.3,47.6,196.3,47.8,196.3z"/>
	<path fill="#393939" d="M46.2,196.3c-0.3,0-0.5,0-0.8,0C45.7,196.3,46,196.3,46.2,196.3z"/>
	<path fill="#393939" d="M62.8,158.8c1.5-0.9,2.9-1.7,4.3-2.5C65.7,157.1,64.3,157.9,62.8,158.8z"/>
	<path fill="#393939" d="M51.5,167.1c1.4-1.3,2.9-2.5,4.4-3.6C54.3,164.7,52.9,165.9,51.5,167.1z"/>
	<path fill="#393939" d="M47.2,171.2c1.3-1.4,2.7-2.8,4.1-4C50,168.5,48.6,169.8,47.2,171.2z"/>
	<path fill="#393939" d="M67.3,191.4c-1.8,0.8-3.6,1.5-5.4,2.1C63.7,192.9,65.5,192.2,67.3,191.4z"/>
	<path fill="#393939" d="M72.7,188.8c-0.9,0.5-1.8,0.9-2.6,1.4C70.9,189.7,71.8,189.3,72.7,188.8z"/>
	<path fill="#393939" d="M70,190.2c-0.9,0.4-1.8,0.8-2.7,1.2C68.2,191,69.1,190.6,70,190.2z"/>
	<path fill="#393939" d="M47.2,171.2c-3,3.2-5.6,6.9-7.5,10.9c1.2,4.4,3.9,10.3,9.7,14.1c-0.3,0-0.6,0-0.8,0.1
		c1.4-0.1,2.8-0.3,4.4-0.5c2.8-0.5,5.8-1.2,8.9-2.2C56.8,188,51,180.4,47.2,171.2z"/>
	<path fill="#393939" d="M72.7,188.8c1.7-0.9,3.4-2,5.1-3.1c-0.3-1.4-0.5-2.7-0.6-3.8c-5.1-5.8-10.9-13.8-14.4-23.1
		c-2.3,1.4-4.6,3-6.9,4.7C59,170.2,65.3,182.2,72.7,188.8z"/>
	<path fill="#A5A5A5" d="M39.8,182.1L39.8,182.1L39.8,182.1c-0.3,0.7-0.7,1.4-1,2.2c0,0,0,0.1,0,0.1c-0.3,0.7-0.5,1.4-0.8,2.2
		c-0.1,0.2-0.1,0.4-0.2,0.6c-0.2,0.6-0.3,1.2-0.5,1.8c-0.2,0.8-0.4,1.6-0.5,2.5c0,0.3,0,0.6,0,0.8c0,0.1,0,0.1,0,0.2
		c0,0.2,0.1,0.4,0.1,0.5c0,0.1,0,0.1,0.1,0.2c0.1,0.2,0.2,0.4,0.3,0.6c0,0,0,0.1,0,0.1c0.2,0.2,0.3,0.4,0.6,0.6
		c0.1,0.1,0.2,0.1,0.2,0.2c0.2,0.1,0.3,0.2,0.5,0.3c0.1,0.1,0.2,0.1,0.3,0.2c0.2,0.1,0.4,0.2,0.7,0.3c0.1,0,0.2,0.1,0.2,0.1
		c0.3,0.1,0.7,0.2,1,0.3c0.2,0,0.3,0.1,0.5,0.1c0.2,0.1,0.5,0.1,0.7,0.1c0.2,0,0.4,0.1,0.6,0.1c0.2,0,0.5,0.1,0.8,0.1
		c0.2,0,0.4,0.1,0.7,0.1c0.4,0,0.8,0.1,1.2,0.1c0.2,0,0.5,0,0.8,0s0.5,0,0.8,0c0.3,0,0.5,0,0.8,0c0.3,0,0.5,0,0.8-0.1
		c0.3,0,0.5,0,0.8-0.1C43.7,192.4,41,186.5,39.8,182.1z"/>
	<path fill="#A5A5A5" d="M61.9,193.5L61.9,193.5L61.9,193.5c1.8-0.6,3.6-1.3,5.4-2.1c0,0,0,0,0,0c0.9-0.4,1.8-0.8,2.7-1.2
		c0,0,0,0,0.1,0c0.9-0.4,1.8-0.9,2.6-1.4c0,0,0,0,0,0l0,0c-7.4-6.6-13.7-18.6-16.9-25.3l0,0l0,0c-1.5,1.1-3,2.3-4.4,3.6
		c0,0,0,0-0.1,0.1c-1.4,1.3-2.8,2.6-4.1,4l0,0l0,0C51,180.4,56.8,188,61.9,193.5z"/>
	<path fill="#A5A5A5" d="M77.1,181.3c-3.6-5.8-5.3-14.7-6-27c-1.2,0.6-2.5,1.2-3.8,1.9c-0.1,0-0.1,0.1-0.2,0.1
		c-1.4,0.8-2.8,1.6-4.3,2.5c0,0,0,0,0,0l0,0c3.5,9.3,9.3,17.2,14.4,23.1C77.1,181.7,77.1,181.5,77.1,181.3z"/>
	<path fill="#191919" d="M77.1,181.3c0,0.2,0.1,0.4,0.1,0.6c0.1,1.1,0.3,2.3,0.6,3.8c1.1,6.2,3.6,15,8.3,17.4
		c6.1,3,2.5-7.4,2.1-13.7c-2.4-0.7-4.4-1.5-5.7-2.4C80.3,185.7,78.6,183.8,77.1,181.3z"/>
	<path fill="#191919" d="M169,188.5c0.5,5.8-4.5,18.8,2.1,15.5c4.9-2.4,7.3-11.6,8.4-17.8c0.3-1.6,0.5-3,0.6-4
		C177.6,184.7,173.7,186.8,169,188.5z"/>
	<path fill="#393939" d="M98,47.2c-3.8-2.9-12.6-9.2-14.6-5.8c-1.7,2.9-0.2,11.1,1,16.4C88.2,53.4,92.6,49.9,98,47.2z"/>
	<path fill="#393939" d="M183,65.2c2.1-4.5,6.3-14.3,5.1-17.9c-1.6-4.8-17.4,4-17.4,4l0.1,0.1C175.8,55.6,179.8,60.4,183,65.2z"/>
	<path fill="#878787" d="M78.8,108.9c2.2-7.4,5.9-13.6,11.3-17c14.7-9.2,75-7.1,85.9,6.5c3.6,4.4,5.5,11.4,6.1,19.5
		c2.4-3.7,7.4-9,11.9-9.2c-0.2-14.7-1.9-27.4-5-33.2c-0.6-1.1-1.1-2.1-1.7-3.2c2.8-5.8,11.8-25.5,6-31c-6.9-6.5-28.5,5.9-28.5,5.9
		l0.2,0.3c-8.6-5.1-20.1-8.2-35.8-7.3c-9.4,0.5-17.5,1.9-24.5,4.2c-4.6-3.7-18.7-14.2-25.3-10c-6.7,4.2-2,24.6-0.2,31.2
		c-4.9,9.6-7.5,22.3-8.1,38.7C73.8,104.6,76.5,106.5,78.8,108.9z M170.6,51.4c0,0,15.8-8.7,17.4-4c1.2,3.6-2.9,13.4-5.1,17.9
		c-3.2-4.9-7.2-9.7-12.3-13.8L170.6,51.4z M152.8,54.5c10.3-5.5,21.2,1.3,27.3,17c6,15.7-7.8,16.5-15.9,15.3
		c-8.1-1.1-9.7-9.1-15.9-12.1S141.5,60.6,152.8,54.5z M122.8,52.2c6.6,4.8,8.1,11,6.6,15.4c6.2-2.1,15,1.9,15.3,4.6
		c0.4,2.8-4.3,5.8-9.1,5.5l-0.2,1.6c5.6,1.3,9.1,5.7,9.1,5.7c0.4,0.5,0.3,1.2-0.2,1.5c-0.2,0.2-0.4,0.2-0.7,0.2
		c-0.3,0-0.6-0.1-0.9-0.4c-0.3-0.4-8.2-10.2-19.2-2.1c-0.5,0.4-1.2,0.2-1.5-0.2c-0.4-0.5-0.2-1.2,0.2-1.5c4.1-3,7.8-3.8,11-3.6
		l0.2-1.7c-3-0.9-6.3-3.2-7.1-5.4c-0.6,0.4-1.2,0.8-1.9,1c-6.5,2.2-9.2,9.8-17.4,9.8S85.3,80,93.4,65.3
		C101.6,50.6,113.4,45.3,122.8,52.2z M83.5,41.4c2-3.4,10.8,2.9,14.6,5.8c-5.4,2.7-9.9,6.1-13.6,10.5C83.3,52.5,81.8,44.3,83.5,41.4
		z"/>
	<path fill="#878787" d="M77.1,181.3c1.5,2.4,3.2,4.3,5.4,5.7c1.3,0.8,3.3,1.6,5.7,2.4c17,5.1,58.5,6.9,80.8-1
		c4.7-1.7,8.6-3.8,11.2-6.4c0.5-0.5,0.9-1,1.3-1.5c7.3-9.9,11.6-48.3,12.6-71.8c-4.6,1.7-8.7,5.1-11.9,9.2
		c-0.9,13.8-4.8,40.2-10.4,49.6c-10.9,17.9-64.7,20.7-81.6,4.4c-9.8-9.5-13.6-45.4-12.4-63.9c-2-1.4-5.1-2.5-6.6-3.5
		c-0.3,14.5-0.7,40-0.1,49.9l0,0C71.8,166.7,73.5,175.5,77.1,181.3z"/>
	<path fill="#393939" d="M93.4,65.3C85.3,80,98.9,82.7,107,82.7s10.9-7.6,17.4-9.8c0.7-0.2,1.3-0.6,1.9-1c-0.5-1.4-0.2-2.7,1.7-3.7
		c0.4-0.2,0.9-0.4,1.4-0.6c1.4-4.4-0.1-10.5-6.6-15.4C113.4,45.3,101.6,50.6,93.4,65.3z M106.2,59.3c1-0.7,2.3-0.5,3,0.5
		c1.5,2,3.1,3.1,4.6,3.1h0c2.3,0,4.6-2.3,5.2-3.1c0.7-1,2.1-1.2,3-0.5c1,0.7,1.2,2.1,0.4,3c-0.2,0.2-3.7,4.9-8.7,4.9c0,0,0,0,0,0
		c-3,0-5.7-1.6-8.1-4.9C105.1,61.3,105.3,60,106.2,59.3z"/>
	<path fill="#393939" d="M148.3,74.7c6.2,3.1,7.8,11,15.9,12.1c8.1,1.1,21.9,0.3,15.9-15.3s-17-22.5-27.3-17
		C141.5,60.6,142.2,71.6,148.3,74.7z M152.2,61.9c1-0.7,2.3-0.5,3,0.5c1.5,2,3.1,3.1,4.6,3.1c2.4,0,4.6-2.3,5.2-3.1
		c0.7-1,2.1-1.2,3-0.5c1,0.7,1.2,2.1,0.4,3c-0.1,0.2-3.7,4.9-8.7,4.9c0,0,0,0,0,0c-3,0-5.7-1.6-8.1-4.9
		C151,63.9,151.2,62.6,152.2,61.9z"/>
	<path fill="#191919" d="M126.3,71.9c0.9,2.2,4.1,4.5,7.1,5.4l-0.2,1.7c-3.2-0.2-6.9,0.6-11,3.6c-0.5,0.4-0.6,1-0.2,1.5
		c0.4,0.5,1,0.6,1.5,0.2c11-8.1,18.9,1.6,19.2,2.1c0.2,0.3,0.5,0.4,0.9,0.4c0.2,0,0.5-0.1,0.7-0.2c0.5-0.4,0.6-1.1,0.2-1.5
		c-0.1-0.1-3.5-4.4-9.1-5.7l0.2-1.6c4.8,0.3,9.4-2.7,9.1-5.5c-0.3-2.7-9.1-6.6-15.3-4.6c-0.5,0.2-0.9,0.3-1.4,0.6
		C126.2,69.2,125.8,70.5,126.3,71.9z"/>
	<path fill="#191919" d="M67.3,117.8c0.3,5.9,1.8,11.6,4.8,13.7c7.4,5.3,3.2-8.1,5.6-13.6c0.8-1.8,1.5-4.3,1.9-6.8
		c0.5-3.2,0.3-6.6-1.2-8.7c-0.9-1.3-2.4-2.2-4.6-2.3c-3.3-0.2-5.4,4.6-6.2,10.4C67.3,112.9,67.2,115.4,67.3,117.8z"/>
	<path fill="#191919" d="M184.6,120.6c0,0.1,0,0.2,0,0.2c0.9,5.9-6.4,17.9,2.1,14.6c2.1-0.8,4-3.1,5.6-6c2-3.8,3.4-8.8,3.9-13.3
		c0.6-5.9-0.3-11-3.5-11.6c-2.3-0.4-4,0.2-5.2,1.4C184.3,108.9,184,116.2,184.6,120.6z"/>
	<path fill="#191919" d="M113.9,67.2C113.9,67.2,113.9,67.2,113.9,67.2c5,0,8.5-4.7,8.7-4.9c0.7-1,0.5-2.3-0.4-3
		c-1-0.7-2.3-0.5-3,0.5c-0.6,0.8-2.8,3.1-5.2,3.1h0c-1.5,0-3.1-1-4.6-3.1c-0.7-1-2.1-1.2-3-0.5c-1,0.7-1.2,2.1-0.5,3
		C108.1,65.5,110.9,67.2,113.9,67.2z"/>
	<path fill="#191919" d="M159.8,69.8C159.8,69.8,159.8,69.8,159.8,69.8c5,0,8.5-4.7,8.7-4.9c0.7-1,0.5-2.3-0.4-3
		c-1-0.7-2.3-0.5-3,0.5c-0.6,0.8-2.8,3.1-5.2,3.1c-1.5,0-3.1-1-4.6-3.1c-0.7-1-2.1-1.2-3-0.5c-1,0.7-1.2,2.1-0.5,3
		C154.1,68.1,156.8,69.8,159.8,69.8z"/>
</g>
</svg>
