<?xml version="1.0" encoding="utf-8"?>
<!-- Generator: Adobe Illustrator 24.1.0, SVG Export Plug-In . SVG Version: 6.00 Build 0)  -->
<svg version="1.1" id="Layer_1" xmlns="http://www.w3.org/2000/svg" xmlns:xlink="http://www.w3.org/1999/xlink" x="0px" y="0px"
	 viewBox="0 0 300 300" enable-background="new 0 0 300 300" xml:space="preserve">
<path fill-rule="evenodd" clip-rule="evenodd" fill="#414142" d="M150,267.1c68.5,0,124,2.5,124,5.6c0,3.1-55.5,5.6-124,5.6
	s-124-2.5-124-5.6C26,269.6,81.5,267.1,150,267.1"/>
<polygon fill-rule="evenodd" clip-rule="evenodd" fill="#D6D6D7" points="40.8,64.1 150,64.1 259.2,64.1 247.1,263.3 150,263.3 
	52.9,263.3 "/>
<path fill-rule="evenodd" clip-rule="evenodd" fill="#B4B5B8" d="M50.4,257.6h199.2c2.2,0,4,1.8,4,4v5.8c0,2.2-1.8,4-4,4H50.4
	c-2.2,0-4-1.8-4-4v-5.8C46.5,259.4,48.2,257.6,50.4,257.6"/>
<path fill-rule="evenodd" clip-rule="evenodd" fill="#949599" d="M35.9,55.6h228.2c2.4,0,4.4,2,4.4,4.4v6.4c0,2.4-2,4.4-4.4,4.4
	H35.9c-2.4,0-4.4-2-4.4-4.4V60C31.5,57.6,33.5,55.6,35.9,55.6"/>
<path fill-rule="evenodd" clip-rule="evenodd" fill="#B4B5B8" d="M41.2,55.6h217.6V39.5c0-4.3-3.5-7.8-7.8-7.8H49
	c-4.3,0-7.8,3.5-7.8,7.8V55.6z"/>
<path fill-rule="evenodd" clip-rule="evenodd" fill="#949599" d="M115.4,31.6h69.1v-6.2c0-2-1.6-3.6-3.6-3.6h-61.8
	c-2,0-3.6,1.6-3.6,3.6V31.6z"/>
<path fill-rule="evenodd" clip-rule="evenodd" fill="#9EA0A3" d="M62.6,76.7L62.6,76.7c4.7-0.2,8.8,3.4,9,8.1l8.1,155
	c0.2,4.7-3.4,8.8-8.1,9c-4.7,0.2-8.8-3.4-9-8.1l-8.1-155C54.2,81,57.9,76.9,62.6,76.7"/>
<path fill-rule="evenodd" clip-rule="evenodd" fill="#B4B5B8" d="M64.9,76.9c3.7,0.8,6.5,4,6.7,7.9l8.1,155c0.2,3.9-2.3,7.4-5.8,8.6
	c-3.7-0.8-6.5-4-6.7-7.9l-8.1-155C58.8,81.5,61.3,78.1,64.9,76.9"/>
<path fill-rule="evenodd" clip-rule="evenodd" fill="#9EA0A3" d="M105.8,76.6L105.8,76.6c4.7-0.1,8.7,3.6,8.8,8.3l4,155.2
	c0.1,4.7-3.6,8.7-8.3,8.8c-4.7,0.1-8.7-3.6-8.8-8.3l-4-155.2C97.3,80.7,101.1,76.7,105.8,76.6"/>
<path fill-rule="evenodd" clip-rule="evenodd" fill="#B4B5B8" d="M108.1,76.9c3.6,0.9,6.4,4.2,6.5,8.1l4,155.2
	c0.1,3.9-2.5,7.3-6.1,8.4c-3.6-0.9-6.4-4.2-6.5-8.1l-4-155.2C101.9,81.4,104.5,78,108.1,76.9"/>
<path fill-rule="evenodd" clip-rule="evenodd" fill="#9EA0A3" d="M150,76.6L150,76.6c4.7,0,8.6,3.9,8.6,8.6v155.2
	c0,4.7-3.9,8.6-8.6,8.6c-4.7,0-8.6-3.9-8.6-8.6V85.2C141.4,80.4,145.3,76.6,150,76.6"/>
<path fill-rule="evenodd" clip-rule="evenodd" fill="#B4B5B8" d="M152.3,76.9c3.6,1,6.3,4.3,6.3,8.3v155.2c0,3.9-2.7,7.2-6.3,8.3
	c-3.6-1-6.3-4.3-6.3-8.3V85.2C146,81.2,148.7,77.9,152.3,76.9"/>
<path fill-rule="evenodd" clip-rule="evenodd" fill="#9EA0A3" d="M237.4,76.7L237.4,76.7c-4.7-0.2-8.8,3.4-9,8.1l-8.1,155
	c-0.2,4.7,3.4,8.8,8.1,9c4.7,0.2,8.8-3.4,9-8.1l8.1-155C245.8,81,242.1,76.9,237.4,76.7"/>
<path fill-rule="evenodd" clip-rule="evenodd" fill="#B4B5B8" d="M235.1,76.9c-3.7,0.8-6.5,4-6.7,7.9l-8.1,155
	c-0.2,3.9,2.3,7.4,5.8,8.6c3.7-0.8,6.5-4,6.7-7.9l8.1-155C241.2,81.5,238.7,78.1,235.1,76.9"/>
<path fill-rule="evenodd" clip-rule="evenodd" fill="#9EA0A3" d="M194.2,76.6L194.2,76.6c-4.7-0.1-8.7,3.6-8.8,8.3l-4,155.2
	c-0.1,4.7,3.6,8.7,8.3,8.8c4.7,0.1,8.7-3.6,8.8-8.3l4-155.2C202.7,80.7,198.9,76.7,194.2,76.6"/>
<path fill-rule="evenodd" clip-rule="evenodd" fill="#B4B5B8" d="M191.9,76.9c-3.6,0.9-6.4,4.2-6.5,8.1l-4,155.2
	c-0.1,3.9,2.5,7.3,6.1,8.4c3.6-0.9,6.4-4.2,6.5-8.1l4-155.2C198.1,81.4,195.5,78,191.9,76.9"/>
<path fill-rule="evenodd" clip-rule="evenodd" fill="#9EA0A3" d="M150,76.6L150,76.6c-4.7,0-8.6,3.9-8.6,8.6v155.2
	c0,4.7,3.9,8.6,8.6,8.6c4.7,0,8.6-3.9,8.6-8.6V85.2C158.6,80.4,154.7,76.6,150,76.6"/>
<path fill-rule="evenodd" clip-rule="evenodd" fill="#B4B5B8" d="M147.7,76.9c-3.6,1-6.3,4.3-6.3,8.3v155.2c0,3.9,2.7,7.2,6.3,8.3
	c3.6-1,6.3-4.3,6.3-8.3V85.2C154,81.2,151.3,77.9,147.7,76.9"/>
</svg>
